<svg xmlns="http://www.w3.org/2000/svg" viewBox="0 0 320 50"><defs><style>.cls-1{fill:#222;}.cls-2{fill:none;}</style></defs><title>headline-new</title><g id="Layer_2" data-name="Layer 2"><g id="layer_1-2" data-name="layer 1"><path class="cls-1" d="M139.21,28.65v1.9h-8.55V29L134.5,25c1.51-1.57,1.87-2.2,1.87-3,0-1-.76-1.51-1.77-1.51a4.73,4.73,0,0,0-3.43,1.83L130.78,20a5.56,5.56,0,0,1,4-1.53c2.39,0,3.89,1.27,3.89,3.3,0,1.37-.78,2.62-2.12,4l-2.81,2.88Z"/><path class="cls-1" d="M149,21.51h2.61V23.1H149v7.45h-2.11V23.1h-1.51l0-1.59h1.53v-1a3.05,3.05,0,0,1,3.28-3.41,3,3,0,0,1,1.6.39l-.24,1.83a2.37,2.37,0,0,0-1.22-.3A1.27,1.27,0,0,0,149,20.45Z"/><path class="cls-1" d="M152.28,26a4.74,4.74,0,0,1,9.47,0,4.74,4.74,0,0,1-9.47,0Zm7.35,0a2.61,2.61,0,1,0-5.2,0,2.61,2.61,0,1,0,5.2,0Z"/><path class="cls-1" d="M169.86,21.73l-.29,1.93a3.07,3.07,0,0,0-1.51-.37,2.79,2.79,0,0,0-2.4,1.46v5.8h-2.11v-9h2.11v1.22a3.14,3.14,0,0,1,2.65-1.39A3.1,3.1,0,0,1,169.86,21.73Z"/><path class="cls-1" d="M180.27,30.55h-2.18V21.61L176,23.24V21.06l2.9-2.41h1.42Z"/><path class="cls-1" d="M190.57,21.51h2.62V23.1h-2.62v7.45h-2.11V23.1H187l0-1.59h1.53v-1a3.05,3.05,0,0,1,3.28-3.41,3,3,0,0,1,1.6.39l-.24,1.83a2.37,2.37,0,0,0-1.22-.3,1.27,1.27,0,0,0-1.31,1.44Z"/><path class="cls-1" d="M201.12,21.73l-.29,1.93a3,3,0,0,0-1.51-.37,2.79,2.79,0,0,0-2.39,1.46v5.8h-2.11v-9h2.11v1.22a3.13,3.13,0,0,1,2.65-1.39A3.07,3.07,0,0,1,201.12,21.73Z"/><path class="cls-1" d="M201.65,26a4.74,4.74,0,0,1,9.47,0,4.74,4.74,0,0,1-9.47,0ZM209,26a2.62,2.62,0,1,0-5.21,0A2.62,2.62,0,1,0,209,26Z"/><path class="cls-1" d="M225.91,24.19v6.36H223.8V24.8c0-.95-.37-1.54-1.34-1.54a2.46,2.46,0,0,0-2,1.14v6.15h-2.11V24.8c0-.95-.37-1.54-1.36-1.54a2.46,2.46,0,0,0-2,1.14v6.15h-2.11v-9H215v1.12a3.56,3.56,0,0,1,2.75-1.29,2.44,2.44,0,0,1,2.47,1.53,3.7,3.7,0,0,1,3-1.53A2.52,2.52,0,0,1,225.91,24.19Z"/><path class="cls-1" d="M241.52,28.81v1.74H233.1V29.24c1.9-.53,2.38-1.45,2.38-2.28a2.27,2.27,0,0,0-.12-.69h-2V24.82h1.09l-.1-.12a4.74,4.74,0,0,1-1.26-3c0-1.62,1.41-3.18,4-3.18a5,5,0,0,1,4,1.89L240,22.24a3.6,3.6,0,0,0-3-1.77A1.58,1.58,0,0,0,235.24,22a3.65,3.65,0,0,0,1.06,2.2c.17.22.35.44.51.66H240v1.45H237.4a.9.9,0,0,1,0,.23,2.86,2.86,0,0,1-1,2.31Z"/><path class="cls-1" d="M251.87,26.27a4.62,4.62,0,0,1-9.23-.14c0-2.77,1.92-5.29,4.54-7.48H250a18.21,18.21,0,0,0-4.16,4.11,4.42,4.42,0,0,1,2-.42A3.87,3.87,0,0,1,251.87,26.27Zm-2.19.17a2.32,2.32,0,0,0-2.45-2.37,2.4,2.4,0,1,0,0,4.8A2.35,2.35,0,0,0,249.68,26.44Z"/><path class="cls-1" d="M262,23.07c0,2.77-1.93,5.29-4.55,7.48h-2.81a18.07,18.07,0,0,0,4.17-4.11,4.57,4.57,0,0,1-2,.42,3.87,3.87,0,0,1-4.06-3.93,4.62,4.62,0,0,1,9.24.14Zm-2.15-.29a2.31,2.31,0,0,0-2.42-2.45A2.34,2.34,0,0,0,255,22.76a2.44,2.44,0,0,0,4.88,0Z"/><rect class="cls-2" width="320" height="50"/></g></g></svg>