<svg xmlns="http://www.w3.org/2000/svg" viewBox="0 0 592 399"><defs><style>.cls-1{fill:#bcd200;}</style></defs><title>Asset 18</title><g id="Layer_2" data-name="Layer 2"><g id="Logo_only" data-name="Logo only"><path class="cls-1" d="M296,2A418.35,418.35,0,0,1,410.67,17.6c35,10,66.51,24.29,93.52,42.49s48.1,39.3,62.85,62.82c15.24,24.27,23,50,23,76.59s-7.72,52.32-23,76.59c-14.75,23.52-35.9,44.65-62.85,62.82s-58.48,32.5-93.52,42.49A418.35,418.35,0,0,1,296,397a418.35,418.35,0,0,1-114.67-15.6c-35-10-66.51-24.29-93.52-42.49S39.71,299.61,25,276.09c-15.24-24.27-23-50-23-76.59s7.72-52.32,23-76.59c14.75-23.52,35.9-44.65,62.85-62.82s58.48-32.5,93.52-42.49A418.35,418.35,0,0,1,296,2m0-2C132.52,0,0,89.32,0,199.5S132.52,399,296,399s296-89.32,296-199.5S459.48,0,296,0Z"/></g></g></svg>