<svg xmlns="http://www.w3.org/2000/svg" viewBox="0 0 1502 1012.98"><defs><style>.cls-1{fill:#016c42;}</style></defs><title>Asset 33</title><g id="Layer_2" data-name="Layer 2"><g id="Logo_only" data-name="Logo only"><path class="cls-1" d="M751,1013c-101.34,0-199.65-13.38-292.21-39.76-89.41-25.49-169.71-62-238.68-108.47s-123.17-100.66-161-161C19.88,641.3,0,574.92,0,506.49S19.88,371.68,59.09,309.2c37.85-60.31,92-114.47,161-161s149.27-83,238.68-108.47C551.35,13.38,649.66,0,751,0s199.66,13.38,292.21,39.76c89.41,25.49,169.71,62,238.68,108.47s123.17,100.66,161,161c39.21,62.48,59.09,128.86,59.09,197.29s-19.88,134.81-59.09,197.29c-37.85,60.31-92,114.47-161,161s-149.27,83-238.68,108.47C950.66,999.6,852.34,1013,751,1013ZM751,2C649.84,2,551.71,15.35,459.34,41.69,370.13,67.12,290,103.52,221.23,149.88S98.49,250.19,60.79,310.26C21.78,372.42,2,438.44,2,506.49S21.78,640.56,60.79,702.72c37.7,60.07,91.68,114,160.44,160.38s148.9,82.76,238.11,108.19C551.71,997.63,649.84,1011,751,1011s199.29-13.35,291.66-39.69c89.21-25.43,169.32-61.83,238.11-108.19s122.74-100.31,160.44-160.38c39-62.16,58.79-128.18,58.79-196.23s-19.78-134.07-58.79-196.23c-37.7-60.07-91.68-114-160.44-160.38s-148.9-82.76-238.11-108.19C950.29,15.35,852.16,2,751,2Z"/></g></g></svg>