<svg xmlns="http://www.w3.org/2000/svg" viewBox="0 0 300 600"><defs><style>.cls-1{fill:#009452;}.cls-2{fill:#fff;}.cls-3{fill:none;}</style></defs><title>specslogo300x600</title><g id="Layer_2" data-name="Layer 2"><g id="template_2" data-name="template 2"><g id="specslogo300x600"><path class="cls-1" d="M253,543c-8.27,0-15.66,2.59-20.59,6.61-4.94-4-12.32-6.51-20.57-6.49-14.87,0-26.9,8.31-26.88,18.5S197.09,580,212,580c8.27,0,15.66-2.59,20.58-6.61h0c4.94,4,12.32,6.51,20.57,6.49,14.87,0,26.9-8.31,26.88-18.5S267.91,543,253,543Z"/><path class="cls-2" d="M201.62,564.9a4.18,4.18,0,0,1-3.5,1.31h0a11.36,11.36,0,0,1-2.85-.29.28.28,0,0,1-.25-.25v-1.19a.24.24,0,0,1,.26-.23c.65.08,2.29.16,2.87.16,1.38,0,1.94-.47,1.95-1.56,0-.71-.36-1.05-1.42-1.68l-2.14-1.3a3.2,3.2,0,0,1-1.88-2.94,2.73,2.73,0,0,1,1-2.29,4.85,4.85,0,0,1,3-.77,18.33,18.33,0,0,1,3.09.29.26.26,0,0,1,.23.24v1.22a.22.22,0,0,1-.23.22c-1.2-.11-2.24-.16-3.19-.16-1.19,0-1.77.42-1.77,1.25,0,.59.29.92,1.36,1.52l2,1.1c1.56.88,2.21,1.84,2.22,3.29A3.26,3.26,0,0,1,201.62,564.9Z"/><path class="cls-2" d="M208.73,560.87v1.27c0,1.14-.2,2.45-1.83,2.46a13.27,13.27,0,0,1-1.56-.12h-.09v-5.92h.08a9,9,0,0,1,1.57-.12C208.51,558.41,208.73,559.72,208.73,560.87Zm1.93,0c0-2.63-1.31-4-3.77-4a13.87,13.87,0,0,0-3.23.44c-.34.09-.36.16-.36.34l0,11.46a.22.22,0,0,0,.22.22H205a.22.22,0,0,0,.22-.23v-3l.12,0a12.38,12.38,0,0,0,1.54.11c2.46,0,3.76-1.4,3.75-4Z"/><path class="cls-2" d="M217.2,560.62v.17h-3.63v-.17c0-1.3.71-2.13,1.83-2.13S217.2,559.33,217.2,560.62Zm2,.28c0-2.52-1.45-4.08-3.76-4.07s-3.78,1.53-3.77,4.08v1.22a3.67,3.67,0,0,0,3.82,4,14.5,14.5,0,0,0,3.12-.29c.23,0,.26-.1.26-.32v-1.09c0-.13-.14-.14-.19-.14h0c-.72.07-1.83.17-3,.17a2,2,0,0,1-2-2.19v-.15h5.38c.11,0,.22,0,.22-.31Z"/><path class="cls-2" d="M226.12,558.41c0,.13-.12.15-.23.15a12.84,12.84,0,0,0-2.1-.11c-.62,0-1.65.29-1.65,2.26v1.53c0,2,1,2.26,1.66,2.25a13.68,13.68,0,0,0,2.09-.11h.05c.07,0,.19,0,.19.15v1.07c0,.21,0,.27-.26.33a8.44,8.44,0,0,1-2.06.21c-2.25,0-3.59-1.45-3.6-3.89v-1.53c0-2.44,1.33-3.9,3.58-3.9a9.33,9.33,0,0,1,2.06.2c.23.06.26.12.26.33Z"/><path class="cls-2" d="M230.41,566.12a13.55,13.55,0,0,1-2.88-.32.27.27,0,0,1-.23-.28v-1a.17.17,0,0,1,.17-.16h.06c.77.1,2.23.18,2.73.18,1.1,0,1.25-.44,1.24-.9s-.24-.6-.76-.92l-2.22-1.38a2.62,2.62,0,0,1-1.31-2.18c0-1.59,1-2.37,3-2.37a10.11,10.11,0,0,1,2.7.3.25.25,0,0,1,.22.27v1c0,.14-.06.21-.16.21h-.05a19,19,0,0,0-2.53-.17c-.6,0-1.22.09-1.22.79,0,.34.33.54.7.76l2.12,1.31a2.56,2.56,0,0,1,1.51,2.42C233.47,565.17,232.3,566.11,230.41,566.12Z"/><path class="cls-2" d="M249.79,557.12l-2,7.49a2,2,0,0,1-3.83,0s-2.05-7.49-2.06-7.5v-.07a.15.15,0,0,1,.16-.16h1.62c.1,0,.19.1.22.25l1.57,6.89c.07.33.21.49.41.49s.34-.16.4-.49l1.54-6.9c0-.17.15-.25.24-.25h1.62a.16.16,0,0,1,.16.16S249.79,557.1,249.79,557.12Z"/><path class="cls-2" d="M263.28,558.13a.22.22,0,0,1-.22.23,4.63,4.63,0,0,0-2.28.6l0,0v6.69a.23.23,0,0,1-.22.24H259a.24.24,0,0,1-.22-.25l0-8.61a.22.22,0,0,1,.22-.23h1.41a.22.22,0,0,1,.22.22v.56l.17-.13a3.57,3.57,0,0,1,2.25-.77.22.22,0,0,1,.22.22Z"/><path class="cls-2" d="M267.27,566a12.84,12.84,0,0,1-2.87-.32.27.27,0,0,1-.24-.28v-1a.17.17,0,0,1,.17-.16h.06c.77.1,2.23.18,2.73.18,1.1,0,1.25-.43,1.25-.9s-.25-.6-.76-.92l-2.23-1.38a2.62,2.62,0,0,1-1.31-2.18c0-1.59,1-2.37,3-2.37a10.06,10.06,0,0,1,2.7.3.26.26,0,0,1,.22.28v1c0,.14,0,.21-.16.21h-.05a20.57,20.57,0,0,0-2.53-.18c-.6,0-1.22.09-1.22.79,0,.34.33.54.7.77l2.12,1.31a2.54,2.54,0,0,1,1.51,2.41C270.33,565.09,269.16,566,267.27,566Z"/><path class="cls-2" d="M257.64,561.74c0,.27-.11.3-.22.3l-5.38,0v.15a2,2,0,0,0,2.05,2.19c1.15,0,2.25-.1,3-.17h.05c.06,0,.19,0,.19.14v1.09c0,.22,0,.28-.26.32a14.57,14.57,0,0,1-3.12.29,3.66,3.66,0,0,1-3.82-4v-1.22c0-2.55,1.41-4.08,3.78-4.09s3.75,1.56,3.76,4.07Zm-3.76-3.33a1.88,1.88,0,0,0-1.83,2.14v.17h3.64v-.17C255.68,559.25,255,558.41,253.88,558.41Z"/><path class="cls-2" d="M241.37,565.74a.22.22,0,0,1-.22.22h-1.38a.23.23,0,0,1-.22-.23v-.45l-.15.1a4.86,4.86,0,0,1-1.34.59h0a3.46,3.46,0,0,1-.89.12,2.39,2.39,0,0,1-2.7-2.64v-.06c0-1.9,1.18-2.75,3.84-2.75h1.12v-.83c0-.93-.37-1.28-1-1.39a3.09,3.09,0,0,0-.55,0,26.09,26.09,0,0,0-2.64.14h-.08c-.15,0-.19,0-.19-.18v-1.05c0-.09,0-.2.22-.24a12.78,12.78,0,0,1,2.68-.27h0c2.27,0,3.42,1,3.43,3Zm-2.53-3.85h-.53c-1.58,0-1.9.58-1.9,1.5v.07c0,.94.49,1.12,1.27,1.12a3,3,0,0,0,.83-.12h0a3.48,3.48,0,0,0,.87-.36l.05,0v-2.19Z"/><rect class="cls-3" width="300" height="600"/></g></g></g></svg>