<svg xmlns="http://www.w3.org/2000/svg" viewBox="0 0 728 90"><defs><style>.cls-1{fill:none;}.cls-2{fill:#222;}</style></defs><title>headline-new-v2</title><g id="Layer_2" data-name="Layer 2"><g id="Layer_1-2" data-name="Layer 1"><g id="headline"><rect class="cls-1" width="728" height="90"/><path class="cls-2" d="M137.86,44c0-5.38,4.16-8.64,9.27-8.64a9.81,9.81,0,0,1,5.16,1.37l-.24,3.14a7.92,7.92,0,0,0-5-1.75A5.72,5.72,0,0,0,141,44c0,3.7,2.45,5.9,5.61,5.9a4.71,4.71,0,0,0,4.16-2.06V45.68h-5.31V43.3h8.31v5.28a8.09,8.09,0,0,1-7.16,4.06C141.8,52.64,137.86,49.42,137.86,44Z"/><path class="cls-2" d="M156.75,34.64h3V52.4h-3Z"/><path class="cls-2" d="M173.7,44.48V52.4h-3V51.1a5.48,5.48,0,0,1-3.84,1.54c-2.85,0-4.6-1.73-4.6-4.13,0-2.57,2-4.13,5-4.13a11.84,11.84,0,0,1,3.48.58v-.38c0-1.95-1.46-2.81-3.28-2.81a6.74,6.74,0,0,0-4,1.39l-.12-2.59A9,9,0,0,1,168,39.39C171.3,39.39,173.7,40.93,173.7,44.48Zm-3,4.46V47a10.59,10.59,0,0,0-3.14-.55c-1.54,0-2.45.79-2.45,2s1,1.92,2.33,1.92A4.51,4.51,0,0,0,170.74,48.94Z"/><path class="cls-2" d="M175.59,51.3l.31-2.88a7.18,7.18,0,0,0,4.64,1.63c1.24,0,2.11-.53,2.11-1.42,0-2.37-6.87-1.15-6.87-5.42,0-2.57,2.21-3.82,4.85-3.82A8.08,8.08,0,0,1,185,40.52l-.15,2.66a7.64,7.64,0,0,0-4.17-1.29c-1.06,0-1.92.4-1.92,1.22,0,2,6.88,1,6.88,5.43,0,2.71-2.37,4.1-5.13,4.1A8.7,8.7,0,0,1,175.59,51.3Z"/><path class="cls-2" d="M187.47,51.3l.31-2.88a7.18,7.18,0,0,0,4.64,1.63c1.24,0,2.11-.53,2.11-1.42,0-2.37-6.87-1.15-6.87-5.42,0-2.57,2.21-3.82,4.85-3.82a8.08,8.08,0,0,1,4.35,1.13l-.15,2.66a7.64,7.64,0,0,0-4.17-1.29c-1.06,0-1.92.4-1.92,1.22,0,2,6.88,1,6.88,5.43,0,2.71-2.37,4.1-5.13,4.1A8.7,8.7,0,0,1,187.47,51.3Z"/><path class="cls-2" d="M211.33,47h-9a3.55,3.55,0,0,0,3.81,3.07,8,8,0,0,0,4.32-1.2l.17,2.61a9.33,9.33,0,0,1-4.7,1.18c-3.65,0-6.65-2.28-6.65-6.58a6.5,6.5,0,0,1,6.62-6.67c3.75,0,5.69,2.26,5.69,5.55A7.77,7.77,0,0,1,211.33,47Zm-2.55-2.4a2.61,2.61,0,0,0-2.8-2.77,3.66,3.66,0,0,0-3.6,3.13h6.36A2,2,0,0,0,208.78,44.58Z"/><path class="cls-2" d="M213.51,51.3l.31-2.88a7.18,7.18,0,0,0,4.64,1.63c1.24,0,2.11-.53,2.11-1.42,0-2.37-6.87-1.15-6.87-5.42,0-2.57,2.21-3.82,4.85-3.82a8.08,8.08,0,0,1,4.35,1.13l-.15,2.66a7.64,7.64,0,0,0-4.17-1.29c-1.06,0-1.92.4-1.92,1.22,0,2,6.88,1,6.88,5.43,0,2.71-2.37,4.1-5.13,4.1A8.7,8.7,0,0,1,213.51,51.3Z"/><path class="cls-2" d="M237.29,39.63H241v2.26h-3.7V52.4h-3V41.89h-2.14l0-2.26h2.16V38.21c0-3.28,1.94-4.82,4.63-4.82a4.25,4.25,0,0,1,2.26.55l-.34,2.59a3.37,3.37,0,0,0-1.73-.43,1.8,1.8,0,0,0-1.85,2Z"/><path class="cls-2" d="M252.2,39.94l-.41,2.74a4.26,4.26,0,0,0-2.13-.53,3.93,3.93,0,0,0-3.39,2.07V52.4h-3V39.63h3v1.73a4.57,4.57,0,0,1,5.93-1.42Z"/><path class="cls-2" d="M252.94,46a6.69,6.69,0,0,1,13.37,0,6.69,6.69,0,0,1-13.37,0Zm10.37,0c0-2.55-1.65-4-3.67-4S256,43.47,256,46s1.63,4,3.67,4S263.31,48.61,263.31,46Z"/><path class="cls-2" d="M287.19,43.42v9h-3V44.29c0-1.35-.53-2.19-1.9-2.19a3.51,3.51,0,0,0-2.81,1.61V52.4h-3V44.29c0-1.35-.53-2.19-1.93-2.19a3.5,3.5,0,0,0-2.78,1.61V52.4h-3V39.63h3v1.58a5.06,5.06,0,0,1,3.89-1.82,3.46,3.46,0,0,1,3.48,2.16,5.25,5.25,0,0,1,4.2-2.16C285.78,39.39,287.19,40.83,287.19,43.42Z"/><path class="cls-2" d="M309.22,50V52.4H297.34V50.55c2.69-.74,3.36-2,3.36-3.21a3.26,3.26,0,0,0-.17-1h-2.88v-2h1.54l-.14-.17a6.71,6.71,0,0,1-1.78-4.29c0-2.28,2-4.49,5.64-4.49A7,7,0,0,1,308.57,38l-1.48,2.64a5.11,5.11,0,0,0-4.23-2.49,2.22,2.22,0,0,0-2.49,2.11,5.13,5.13,0,0,0,1.48,3.1c.24.31.51.62.72.93H307v2h-3.63a1.31,1.31,0,0,1,0,.34A4,4,0,0,1,302.07,50Z"/><path class="cls-2" d="M323.36,49.71V52.4H311.29V50.14l5.42-5.56c2.14-2.21,2.64-3.1,2.64-4.28,0-1.41-1.08-2.13-2.5-2.13A6.65,6.65,0,0,0,312,40.76l-.56-3.24a7.9,7.9,0,0,1,5.62-2.16c3.38,0,5.5,1.8,5.5,4.65,0,2-1.11,3.7-3,5.65l-4,4.05Z"/><path class="cls-2" d="M325.35,51.3l.46-3.1a7,7,0,0,0,4.77,1.8c1.63,0,3.39-.91,3.39-2.93s-1.52-2.9-4-2.9a11.55,11.55,0,0,0-4.25.91l.86-9.48H336v2.69h-7L328.52,42a11.51,11.51,0,0,1,2.76-.29c3.41,0,5.73,1.85,5.73,5.12,0,3.84-2.95,5.78-6.14,5.78A10.79,10.79,0,0,1,325.35,51.3Z"/></g></g></g></svg>