<svg xmlns="http://www.w3.org/2000/svg" viewBox="0 0 728 90"><defs><style>.cls-1{fill:none;}.cls-2{fill:#fff;}</style></defs><title>sub-new</title><g id="Layer_2" data-name="Layer 2"><g id="layer_1-2" data-name="layer 1"><g id="sub728x90v2"><rect class="cls-1" width="728" height="90"/><path class="cls-2" d="M312.61,51.17a5.85,5.85,0,1,1,5.85,5.76A5.64,5.64,0,0,1,312.61,51.17Zm10.14,0a4.3,4.3,0,1,0-4.29,4.4A4.22,4.22,0,0,0,322.75,51.17Z"/><path class="cls-2" d="M333.63,48.25v8.52h-1.47V55.62a4.13,4.13,0,0,1-3,1.31c-2,0-3-1.18-3-3.1V48.25h1.47v5.29c0,1.25.59,2.06,1.94,2.06a3.31,3.31,0,0,0,2.54-1.33v-6Z"/><path class="cls-2" d="M341.5,48.43l-.22,1.39a2.54,2.54,0,0,0-1.3-.35,2.84,2.84,0,0,0-2.45,1.7v5.6h-1.47V48.25h1.47v1.4a3.12,3.12,0,0,1,2.6-1.56A2.7,2.7,0,0,1,341.5,48.43Z"/><path class="cls-2" d="M356.59,54.59l.12,1.51a5.65,5.65,0,0,1-3.22.83,5,5,0,0,1-5.11-4.31h-1.17V51.7h1.12V50.64h-1.12v-.93h1.17a5,5,0,0,1,5.11-4.3,6,6,0,0,1,3.22.8l-.12,1.58a5,5,0,0,0-3-1A3.6,3.6,0,0,0,350,49.71h5.18l-.33.93h-4.93V51.7h4.48l-.35.92h-4a3.62,3.62,0,0,0,3.61,3A4.58,4.58,0,0,0,356.59,54.59Z"/><path class="cls-2" d="M358.21,55.91l.22-1.57a4.78,4.78,0,0,0,3.3,1.25,2.42,2.42,0,0,0,2.65-2.36c0-1.53-1.18-2.21-2.94-2.21a7.83,7.83,0,0,0-3,.66l.65-6.11h6.16v1.34h-5l-.43,3.14a7.87,7.87,0,0,1,2.08-.26c2.34,0,3.95,1.17,3.95,3.36a3.71,3.71,0,0,1-4,3.78A6.25,6.25,0,0,1,358.21,55.91Z"/><path class="cls-2" d="M375.31,49.62c0,2.68-2.13,5.23-4.53,7.15h-2.06a16.9,16.9,0,0,0,4.13-4,4.12,4.12,0,0,1-2.15.54,3.69,3.69,0,0,1-3.85-3.74,4.23,4.23,0,0,1,8.46.08Zm-1.5-.15a2.57,2.57,0,0,0-2.71-2.75,2.64,2.64,0,0,0-2.73,2.72,2.72,2.72,0,0,0,5.44,0Z"/><path class="cls-2" d="M389.44,48.25v7.9c0,2.8-1.87,3.92-4.06,3.92a6.15,6.15,0,0,1-3.22-.9l.16-1.42a4.79,4.79,0,0,0,3.07,1.1A2.33,2.33,0,0,0,388,56.31v-.6a3.87,3.87,0,0,1-2.63,1,4,4,0,0,1-4-4.33,4,4,0,0,1,3.94-4.33A3.65,3.65,0,0,1,388,49.17v-.92Zm-1.47,6V50.67a3,3,0,0,0-2.5-1.31c-1.47,0-2.64,1.17-2.64,3.06s1.17,3,2.63,3A3,3,0,0,0,388,54.26Z"/><path class="cls-2" d="M391.89,44.93h1.47V56.77h-1.47Z"/><path class="cls-2" d="M402.51,51.49v5.28H401v-1a3.68,3.68,0,0,1-2.74,1.17c-1.82,0-3.09-1.09-3.09-2.72s1.36-2.72,3.29-2.72A7.92,7.92,0,0,1,401,52v-.45a2.11,2.11,0,0,0-2.35-2.21,4.33,4.33,0,0,0-2.64.91L396,48.88a5.37,5.37,0,0,1,2.93-.79C400.94,48.09,402.51,49.15,402.51,51.49ZM401,54.56V53.1a6.2,6.2,0,0,0-2.4-.51c-1.28,0-2,.66-2,1.59a1.67,1.67,0,0,0,1.87,1.57A3.35,3.35,0,0,0,401,54.56Z"/><path class="cls-2" d="M404.09,56l.18-1.47a4.52,4.52,0,0,0,3,1.1c1,0,1.71-.48,1.71-1.26,0-1.92-4.83-1-4.83-3.87,0-1.57,1.39-2.41,3.06-2.41a5.22,5.22,0,0,1,2.85.79L410,50.26a4.49,4.49,0,0,0-2.72-.9c-.88,0-1.61.34-1.61,1.1,0,1.67,4.86.88,4.86,3.88,0,1.69-1.5,2.59-3.23,2.59A5.4,5.4,0,0,1,404.09,56Z"/><path class="cls-2" d="M411.8,56l.18-1.47a4.52,4.52,0,0,0,3,1.1c1,0,1.72-.48,1.72-1.26,0-1.92-4.84-1-4.84-3.87,0-1.57,1.39-2.41,3.06-2.41a5.22,5.22,0,0,1,2.85.79l-.11,1.38a4.52,4.52,0,0,0-2.73-.9c-.88,0-1.61.34-1.61,1.1,0,1.67,4.86.88,4.86,3.88,0,1.69-1.5,2.59-3.23,2.59A5.42,5.42,0,0,1,411.8,56Z"/><path class="cls-2" d="M427.28,53.07h-6.23a2.71,2.71,0,0,0,2.87,2.56,4.39,4.39,0,0,0,2.83-.92l.11,1.37a5.38,5.38,0,0,1-3,.85,4.08,4.08,0,0,1-4.32-4.37,4.32,4.32,0,0,1,4.31-4.47,3.36,3.36,0,0,1,3.62,3.61A5,5,0,0,1,427.28,53.07Zm-1.23-1.58a2.08,2.08,0,0,0-2.2-2.16,2.85,2.85,0,0,0-2.78,2.57H426C426,51.76,426.05,51.65,426.05,51.49Z"/><path class="cls-2" d="M428.83,56l.17-1.47a4.55,4.55,0,0,0,3.05,1.1c1,0,1.71-.48,1.71-1.26,0-1.92-4.84-1-4.84-3.87,0-1.57,1.4-2.41,3.06-2.41a5.2,5.2,0,0,1,2.85.79l-.11,1.38a4.51,4.51,0,0,0-2.72-.9c-.88,0-1.62.34-1.62,1.1,0,1.67,4.87.88,4.87,3.88,0,1.69-1.51,2.59-3.24,2.59A5.36,5.36,0,0,1,428.83,56Z"/><path class="cls-2" d="M445.61,48.09a5,5,0,0,1,2.77.81l-.14,1.4a4.19,4.19,0,0,0-2.53-.91,3.12,3.12,0,0,0,0,6.24,4,4,0,0,0,2.53-.94l.16,1.38a4.79,4.79,0,0,1-2.79.86,4.42,4.42,0,0,1,0-8.84Z"/><path class="cls-2" d="M449.64,52.51A4.36,4.36,0,1,1,454,56.93,4.22,4.22,0,0,1,449.64,52.51Zm7.22,0A2.88,2.88,0,1,0,454,55.63,2.88,2.88,0,0,0,456.86,52.51Z"/><path class="cls-2" d="M459.66,56l.18-1.47a4.51,4.51,0,0,0,3,1.1c1,0,1.71-.48,1.71-1.26,0-1.92-4.83-1-4.83-3.87,0-1.57,1.39-2.41,3.05-2.41a5.2,5.2,0,0,1,2.85.79l-.11,1.38a4.49,4.49,0,0,0-2.72-.9c-.88,0-1.62.34-1.62,1.1,0,1.67,4.87.88,4.87,3.88,0,1.69-1.51,2.59-3.23,2.59A5.37,5.37,0,0,1,459.66,56Z"/><path class="cls-2" d="M473.28,56.34a3.44,3.44,0,0,1-2,.59c-1.78,0-2.67-1.18-2.67-3.07V49.42H467V48.25h1.56V46.51l1.47-.37v2.11h3.1v1.17H470v4.47c0,1,.42,1.71,1.49,1.71a2.59,2.59,0,0,0,1.52-.51Z"/><path class="cls-2" d="M487,51.2v5.57h-1.45V51.49a1.81,1.81,0,0,0-1.94-2.05,3.22,3.22,0,0,0-2.56,1.33v6H479.6V48.25h1.47v1.19a4,4,0,0,1,3-1.35C486.09,48.09,487,49.28,487,51.2Z"/><path class="cls-2" d="M488.86,52.51a4.36,4.36,0,1,1,4.35,4.42A4.21,4.21,0,0,1,488.86,52.51Zm7.22,0a2.88,2.88,0,1,0-5.73,0,2.88,2.88,0,1,0,5.73,0Z"/><path class="cls-2" d="M504.78,56.34a3.44,3.44,0,0,1-2,.59c-1.77,0-2.67-1.18-2.67-3.07V49.42h-1.55V48.25h1.55V46.51l1.47-.37v2.11h3.11v1.17h-3.11v4.47c0,1,.42,1.71,1.49,1.71a2.59,2.59,0,0,0,1.52-.51Z"/><path class="cls-2" d="M513.89,51.2v5.57h-1.48V51.49a1.81,1.81,0,0,0-2-2.05,3.29,3.29,0,0,0-2.57,1.41v5.92h-1.47V44.93h1.47v4.49a4.15,4.15,0,0,1,3-1.33C512.94,48.09,513.89,49.28,513.89,51.2Z"/><path class="cls-2" d="M516.06,45.71a1,1,0,1,1,1,1A1,1,0,0,1,516.06,45.71Zm1.74,11.06h-1.47V48.25h1.47Z"/><path class="cls-2" d="M527.7,51.2v5.57h-1.46V51.49a1.81,1.81,0,0,0-1.94-2.05,3.22,3.22,0,0,0-2.56,1.33v6h-1.47V48.25h1.47v1.19a4,4,0,0,1,3-1.35C526.77,48.09,527.7,49.28,527.7,51.2Z"/><path class="cls-2" d="M537.63,48.25v7.9c0,2.8-1.87,3.92-4.06,3.92a6.15,6.15,0,0,1-3.22-.9l.16-1.42a4.79,4.79,0,0,0,3.07,1.1,2.33,2.33,0,0,0,2.58-2.54v-.6a3.87,3.87,0,0,1-2.63,1,4,4,0,0,1-4-4.33,4,4,0,0,1,3.94-4.33,3.65,3.65,0,0,1,2.69,1.08v-.92Zm-1.47,6V50.67a3,3,0,0,0-2.5-1.31c-1.47,0-2.64,1.17-2.64,3.06s1.17,3,2.63,3A3,3,0,0,0,536.16,54.26Z"/><path class="cls-2" d="M312.16,68.25h1.55l2.29,6,2.37-6h.93l2.38,6,2.27-6h1.57l-3.42,8.52h-.8l-2.45-6.26-2.47,6.26h-.81Z"/><path class="cls-2" d="M326.78,65.71a1,1,0,1,1,1,1A1,1,0,0,1,326.78,65.71Zm1.75,11.06h-1.48V68.25h1.48Z"/><path class="cls-2" d="M336.51,76.34a3.44,3.44,0,0,1-2.05.59c-1.77,0-2.67-1.18-2.67-3.07V69.42h-1.55V68.25h1.55V66.51l1.47-.37v2.11h3.11v1.17h-3.11v4.47c0,1,.42,1.71,1.49,1.71a2.59,2.59,0,0,0,1.52-.51Z"/><path class="cls-2" d="M345.62,71.2v5.57h-1.48V71.49a1.81,1.81,0,0,0-2-2,3.29,3.29,0,0,0-2.57,1.41v5.92h-1.47V64.93h1.47v4.49a4.15,4.15,0,0,1,3-1.33C344.67,68.09,345.62,69.28,345.62,71.2Z"/><path class="cls-2" d="M361,69.21c0,2.55-1.9,3.7-4.07,3.7h-2.7v3.86h-1.52V65.57h4.3C359.34,65.57,361,66.88,361,69.21Zm-1.52.05a2.24,2.24,0,0,0-2.5-2.35h-2.75v4.66H357A2.19,2.19,0,0,0,359.52,69.26Z"/><path class="cls-2" d="M363,65.57h4.33c2.26,0,3.69,1.2,3.69,3.15a2.79,2.79,0,0,1-1.92,2.85c.67.16,1.05.64,1.45,1.81l1.19,3.39h-1.57l-1.06-3.14a1.8,1.8,0,0,0-2-1.45h-2.61v4.59H363Zm4.54,5.33a1.84,1.84,0,0,0,2-2c0-1.38-.81-2.06-2.21-2.06h-2.81V70.9Z"/><path class="cls-2" d="M372.92,75.71l.16-1.76a5.47,5.47,0,0,0,3.77,1.62c1.5,0,2.49-.74,2.49-1.89,0-1.34-1.26-1.86-3.12-2.27s-3.14-1.3-3.14-3c0-1.94,1.75-3,3.86-3a5.9,5.9,0,0,1,3.32.89l-.1,1.63a5.21,5.21,0,0,0-3.25-1.18c-1.36,0-2.32.61-2.32,1.6s1.09,1.52,2.91,2,3.36,1.2,3.36,3.28-1.79,3.35-4.05,3.35A6.46,6.46,0,0,1,372.92,75.71Z"/><path class="cls-2" d="M382.89,65.57h1.52v11.2h-1.52Z"/><path class="cls-2" d="M391,72.51a4.36,4.36,0,1,1,4.35,4.42A4.21,4.21,0,0,1,391,72.51Zm7.22,0a2.88,2.88,0,1,0-5.73,0,2.88,2.88,0,1,0,5.73,0Z"/><path class="cls-2" d="M407.05,68.43l-.22,1.39a2.54,2.54,0,0,0-1.3-.35,2.84,2.84,0,0,0-2.45,1.7v5.6h-1.47V68.25h1.47v1.4a3.12,3.12,0,0,1,2.6-1.56A2.7,2.7,0,0,1,407.05,68.43Z"/><path class="cls-2" d="M425.2,71v5.81h-1.47V71.28c0-1.12-.4-1.84-1.55-1.84A2.76,2.76,0,0,0,420,70.72v6h-1.47V71.28c0-1.12-.41-1.84-1.55-1.84a2.78,2.78,0,0,0-2.15,1.25v6.08h-1.47V68.25h1.48v1.09a3.4,3.4,0,0,1,2.57-1.25,2.32,2.32,0,0,1,2.38,1.51,3.56,3.56,0,0,1,2.82-1.51C424.32,68.09,425.2,69.15,425.2,71Z"/><path class="cls-2" d="M434.78,73.07h-6.22a2.7,2.7,0,0,0,2.86,2.56,4.39,4.39,0,0,0,2.83-.92l.12,1.37a5.43,5.43,0,0,1-3,.85A4.08,4.08,0,0,1,427,72.56a4.31,4.31,0,0,1,4.3-4.47A3.36,3.36,0,0,1,435,71.7,4.61,4.61,0,0,1,434.78,73.07Zm-1.23-1.58a2.07,2.07,0,0,0-2.19-2.16,2.86,2.86,0,0,0-2.79,2.57h4.95A2.63,2.63,0,0,0,433.55,71.49Z"/><path class="cls-2" d="M444.5,64.93V76.77H443v-1a3.86,3.86,0,0,1-2.65,1.14c-2.23,0-4-1.55-4-4.42s1.85-4.42,4-4.42a3.7,3.7,0,0,1,2.7,1.09V64.93ZM443,74.34v-3.6a2.94,2.94,0,0,0-2.48-1.35c-1.54,0-2.69,1.2-2.69,3.12s1.15,3.12,2.68,3.12A3,3,0,0,0,443,74.34Z"/><path class="cls-2" d="M446.72,65.71a1,1,0,1,1,1,1A1,1,0,0,1,446.72,65.71Zm1.74,11.06H447V68.25h1.47Z"/><path class="cls-2" d="M454.73,68.09a5,5,0,0,1,2.77.81l-.14,1.4a4.19,4.19,0,0,0-2.53-.91,3.12,3.12,0,0,0,0,6.24,4,4,0,0,0,2.53-.94l.16,1.38a4.82,4.82,0,0,1-2.79.86,4.42,4.42,0,0,1,0-8.84Z"/><path class="cls-2" d="M466.05,71.49v5.28h-1.48v-1a3.66,3.66,0,0,1-2.73,1.17c-1.83,0-3.09-1.09-3.09-2.72s1.36-2.72,3.28-2.72a7.82,7.82,0,0,1,2.54.48v-.45a2.11,2.11,0,0,0-2.35-2.21,4.33,4.33,0,0,0-2.64.91l-.08-1.34a5.39,5.39,0,0,1,2.93-.79C464.48,68.09,466.05,69.15,466.05,71.49Zm-1.48,3.07V73.1a6.2,6.2,0,0,0-2.4-.51c-1.28,0-2,.66-2,1.59A1.67,1.67,0,0,0,462,75.75,3.35,3.35,0,0,0,464.57,74.56Z"/><path class="cls-2" d="M468.2,64.93h1.48V76.77H468.2Z"/><path class="cls-2" d="M480.64,68.09a5,5,0,0,1,2.77.81l-.15,1.4a4.19,4.19,0,0,0-2.53-.91,3.12,3.12,0,0,0,0,6.24,4,4,0,0,0,2.53-.94l.16,1.38a4.78,4.78,0,0,1-2.78.86,4.42,4.42,0,0,1,0-8.84Z"/><path class="cls-2" d="M492,71.49v5.28h-1.47v-1a3.68,3.68,0,0,1-2.74,1.17c-1.82,0-3.09-1.09-3.09-2.72s1.36-2.72,3.28-2.72a7.93,7.93,0,0,1,2.55.48v-.45a2.11,2.11,0,0,0-2.36-2.21,4.38,4.38,0,0,0-2.64.91l-.08-1.34a5.39,5.39,0,0,1,2.93-.79C490.38,68.09,492,69.15,492,71.49Zm-1.47,3.07V73.1a6.24,6.24,0,0,0-2.4-.51c-1.28,0-2,.66-2,1.59A1.67,1.67,0,0,0,488,75.75,3.35,3.35,0,0,0,490.48,74.56Z"/><path class="cls-2" d="M499.53,68.43l-.22,1.39a2.54,2.54,0,0,0-1.3-.35,2.84,2.84,0,0,0-2.45,1.7v5.6h-1.47V68.25h1.47v1.4a3.12,3.12,0,0,1,2.6-1.56A2.7,2.7,0,0,1,499.53,68.43Z"/><path class="cls-2" d="M508.16,64.93V76.77h-1.47v-1A3.88,3.88,0,0,1,504,76.93c-2.23,0-4-1.55-4-4.42s1.84-4.42,4-4.42a3.73,3.73,0,0,1,2.71,1.09V64.93Zm-1.47,9.41v-3.6a2.94,2.94,0,0,0-2.48-1.35c-1.54,0-2.69,1.2-2.69,3.12s1.15,3.12,2.67,3.12A3,3,0,0,0,506.69,74.34Z"/><path class="cls-2" d="M510,76l.18-1.47a4.52,4.52,0,0,0,3,1.1c1,0,1.71-.48,1.71-1.26,0-1.92-4.83-1-4.83-3.87,0-1.57,1.39-2.41,3.06-2.41a5.22,5.22,0,0,1,2.85.79l-.12,1.38a4.49,4.49,0,0,0-2.72-.9c-.88,0-1.61.34-1.61,1.1,0,1.67,4.86.88,4.86,3.88,0,1.69-1.5,2.59-3.23,2.59A5.4,5.4,0,0,1,510,76Z"/></g></g></g></svg>