<svg xmlns="http://www.w3.org/2000/svg" viewBox="0 0 300 600"><defs><style>.cls-1{fill:#016c42;}.cls-2{fill:#fff;}.cls-3{fill:none;}</style></defs><title>cta2</title><g id="Layer_2" data-name="Layer 2"><g id="Logo_only" data-name="Logo only"><rect class="cls-1" x="20" y="543" width="134" height="37" rx="18.5"/><path class="cls-2" d="M35,557.17v3.07h4.47v1.67H35v4.67H33v-11.2h7.32v1.79Z"/><path class="cls-2" d="M41.66,555.52a1.27,1.27,0,1,1,1.27,1.27A1.28,1.28,0,0,1,41.66,555.52Zm2.26,11.06h-2v-8.51h2Z"/><path class="cls-2" d="M54,561.14v5.44H52v-4.94a1.69,1.69,0,0,0-1.76-1.92A2.81,2.81,0,0,0,48,560.8v5.78H46v-8.51h2v1.09a4,4,0,0,1,3-1.25C53,557.91,54,559.16,54,561.14Z"/><path class="cls-2" d="M64,554.74v11.84h-2v-.91a3.81,3.81,0,0,1-2.61,1.07c-2.21,0-4-1.52-4-4.42s1.87-4.41,4-4.41a3.65,3.65,0,0,1,2.57,1v-4.13Zm-2,9.09v-3a2.78,2.78,0,0,0-2.23-1.18,2.71,2.71,0,0,0,0,5.37A2.63,2.63,0,0,0,62.07,563.83Z"/><path class="cls-2" d="M70.11,562.32a4.46,4.46,0,1,1,4.47,4.42A4.26,4.26,0,0,1,70.11,562.32Zm6.92,0A2.46,2.46,0,1,0,74.58,565,2.46,2.46,0,0,0,77,562.32Z"/><path class="cls-2" d="M88.48,558.07v8.51h-2v-1.09a4.09,4.09,0,0,1-3,1.25c-2,0-3-1.25-3-3.23v-5.44h2V563c0,1.19.59,1.94,1.76,1.94a2.81,2.81,0,0,0,2.22-1.12v-5.76Z"/><path class="cls-2" d="M96.43,566.2a3.83,3.83,0,0,1-2.11.54c-1.84,0-2.93-1.09-2.93-3.28v-3.89H89.84v-1.5h1.55v-1.72l2-.46v2.18h3v1.5h-3v3.91A1.29,1.29,0,0,0,94.72,565a2.48,2.48,0,0,0,1.42-.45Z"/><path class="cls-2" d="M114.59,560.6v6h-2v-5.41c0-.89-.35-1.45-1.26-1.45a2.34,2.34,0,0,0-1.88,1.07v5.79h-2v-5.41c0-.89-.35-1.45-1.28-1.45a2.33,2.33,0,0,0-1.86,1.07v5.79h-2v-8.51h2v1a3.37,3.37,0,0,1,2.59-1.21,2.29,2.29,0,0,1,2.32,1.44,3.53,3.53,0,0,1,2.81-1.44A2.38,2.38,0,0,1,114.59,560.6Z"/><path class="cls-2" d="M116.08,562.32a4.46,4.46,0,1,1,4.46,4.42A4.25,4.25,0,0,1,116.08,562.32Zm6.91,0a2.46,2.46,0,1,0-2.45,2.69A2.45,2.45,0,0,0,123,562.32Z"/><path class="cls-2" d="M132.46,558.27l-.27,1.83a2.84,2.84,0,0,0-1.42-.35,2.64,2.64,0,0,0-2.26,1.37v5.46h-2v-8.51h2v1.15a3.06,3.06,0,0,1,4-1Z"/><path class="cls-2" d="M140.83,563h-6a2.37,2.37,0,0,0,2.55,2,5.31,5.31,0,0,0,2.88-.8l.11,1.75a6.29,6.29,0,0,1-3.14.78,4.16,4.16,0,0,1-4.43-4.38,4.33,4.33,0,0,1,4.41-4.45,3.44,3.44,0,0,1,3.8,3.69A5.16,5.16,0,0,1,140.83,563Zm-1.69-1.61a1.74,1.74,0,0,0-1.88-1.84,2.45,2.45,0,0,0-2.4,2.08h4.24A.86.86,0,0,0,139.14,561.36Z"/><rect class="cls-3" width="300" height="600"/></g></g></svg>