<svg xmlns="http://www.w3.org/2000/svg" viewBox="0 0 300 600"><defs><style>.cls-1{fill:none;}</style></defs><title>headline (2)</title><g id="Layer_2" data-name="Layer 2"><g id="Logo_only" data-name="Logo only"><g id="headline"><rect class="cls-1" width="300" height="600"/><path d="M35.32,465.14v3.36H20.23v-2.82l6.78-7c2.67-2.76,3.3-3.87,3.3-5.34,0-1.77-1.35-2.67-3.12-2.67-2.19,0-4.23,1.2-6.06,3.24l-.69-4.05a9.84,9.84,0,0,1,7-2.7c4.23,0,6.87,2.25,6.87,5.82,0,2.43-1.38,4.62-3.75,7.05l-4.95,5.07Z"/><path d="M52.66,452.54h4.62v2.82H52.66V468.5H48.94V455.36H46.27l0-2.82h2.7v-1.77c0-4.11,2.43-6,5.79-6a5.24,5.24,0,0,1,2.82.69l-.42,3.24a4.2,4.2,0,0,0-2.16-.54,2.25,2.25,0,0,0-2.31,2.55Z"/><path d="M58.39,460.52c0-5.19,3.78-8.28,8.37-8.28s8.34,3.09,8.34,8.28-3.75,8.28-8.34,8.28S58.39,465.71,58.39,460.52Zm13,0c0-3.18-2.07-5-4.59-5s-4.59,1.86-4.59,5,2,5,4.59,5S71.35,463.76,71.35,460.52Z"/><path d="M89.41,452.93l-.51,3.42a5.41,5.41,0,0,0-2.67-.66A4.91,4.91,0,0,0,82,458.27V468.5H78.28v-16H82v2.16a5.7,5.7,0,0,1,7.41-1.77Z"/><path d="M107.77,468.5h-3.84V452.72l-3.78,2.88v-3.84l5.13-4.26h2.49Z"/><path d="M26.08,486.54H30.7v2.82H26.08V502.5H22.36V489.36H19.69l0-2.82h2.7v-1.77c0-4.11,2.43-6,5.79-6a5.24,5.24,0,0,1,2.82.69l-.42,3.24a4.2,4.2,0,0,0-2.16-.54,2.25,2.25,0,0,0-2.31,2.55Z"/><path d="M44.71,486.93l-.51,3.42a5.41,5.41,0,0,0-2.67-.66,4.91,4.91,0,0,0-4.23,2.58V502.5H33.58v-16H37.3v2.16a5.7,5.7,0,0,1,7.41-1.77Z"/><path d="M45.64,494.52c0-5.19,3.78-8.28,8.37-8.28s8.34,3.09,8.34,8.28S58.6,502.8,54,502.8,45.64,499.71,45.64,494.52Zm13,0c0-3.18-2.07-5-4.59-5s-4.59,1.86-4.59,5,2,5,4.59,5S58.6,497.76,58.6,494.52Z"/><path d="M88.45,491.28V502.5H84.73V492.36c0-1.68-.66-2.73-2.37-2.73a4.38,4.38,0,0,0-3.51,2V502.5H75.13V492.36c0-1.68-.66-2.73-2.4-2.73a4.37,4.37,0,0,0-3.48,2V502.5H65.53v-16h3.72v2a6.33,6.33,0,0,1,4.86-2.28,4.32,4.32,0,0,1,4.35,2.7,6.57,6.57,0,0,1,5.25-2.7C86.68,486.24,88.45,488,88.45,491.28Z"/><path d="M116,499.44v3.06H101.14v-2.31c3.36-.93,4.2-2.55,4.2-4a4.23,4.23,0,0,0-.21-1.23h-3.6v-2.55h1.92l-.18-.21a8.39,8.39,0,0,1-2.22-5.37c0-2.85,2.49-5.61,7-5.61a8.79,8.79,0,0,1,7.08,3.33l-1.86,3.3a6.37,6.37,0,0,0-5.28-3.12c-1.89,0-3.12,1.14-3.12,2.64s.78,2.49,1.86,3.87c.3.39.63.78.9,1.17h5.58v2.55h-4.53a2,2,0,0,1,0,.42,5,5,0,0,1-1.71,4.08Z"/><path d="M134.26,494.94c0,4.74-3.51,7.86-8.25,7.86a7.76,7.76,0,0,1-8-8.1c0-4.89,3.39-9.33,8-13.2h5a31.82,31.82,0,0,0-7.35,7.26,7.87,7.87,0,0,1,3.54-.75A6.82,6.82,0,0,1,134.26,494.94Zm-3.87.3a4.09,4.09,0,0,0-4.32-4.17,4.23,4.23,0,1,0-.06,8.46A4.13,4.13,0,0,0,130.39,495.24Z"/><path d="M152.2,489.3c0,4.89-3.42,9.33-8,13.2h-4.95a31.82,31.82,0,0,0,7.35-7.26,7.83,7.83,0,0,1-3.51.75,6.83,6.83,0,0,1-7.17-6.93c0-4.74,3.51-7.86,8.25-7.86A7.78,7.78,0,0,1,152.2,489.3Zm-3.81-.51a4.06,4.06,0,0,0-4.26-4.32,4.13,4.13,0,0,0-4.35,4.29,4.31,4.31,0,0,0,8.61,0Z"/></g></g></g></svg>