<svg xmlns="http://www.w3.org/2000/svg" viewBox="0 0 300 600"><defs><style>.cls-1{fill:#016c42;}.cls-2{fill:none;}</style></defs><title>headline</title><g id="Layer_2" data-name="Layer 2"><g id="Logo_only" data-name="Logo only"><g id="headline"><path class="cls-1" d="M36.46,49.35v3.7H21.18V30H25.4v19.4Z"/><path class="cls-1" d="M54.58,42.16V53.05H50.52V51.27a7.62,7.62,0,0,1-5.28,2.11c-3.93,0-6.34-2.38-6.34-5.68,0-3.53,2.74-5.67,6.83-5.67a16.08,16.08,0,0,1,4.79.79v-.53c0-2.67-2-3.86-4.52-3.86a9.25,9.25,0,0,0-5.55,1.91l-.16-3.56a12.33,12.33,0,0,1,6.43-1.62C51.28,35.16,54.58,37.27,54.58,42.16ZM50.52,48.3V45.66a14.15,14.15,0,0,0-4.33-.76c-2.11,0-3.36,1.09-3.36,2.67s1.38,2.64,3.2,2.64A6.22,6.22,0,0,0,50.52,48.3Z"/><path class="cls-1" d="M57.18,51.53l.43-4A9.85,9.85,0,0,0,64,49.82c1.72,0,2.9-.73,2.9-2,0-3.27-9.43-1.59-9.43-7.46,0-3.53,3-5.25,6.66-5.25a11.14,11.14,0,0,1,6,1.55l-.2,3.67a10.48,10.48,0,0,0-5.75-1.79c-1.45,0-2.64.56-2.64,1.69C61.5,43,71,41.7,71,47.74c0,3.73-3.27,5.64-7.07,5.64A11.9,11.9,0,0,1,57.18,51.53Z"/><path class="cls-1" d="M86.29,52.26a8,8,0,0,1-4.36,1.12c-3.79,0-6-2.24-6-6.77v-8h-3.2v-3.1h3.2V32L80,31v4.49h6.11v3.1H80v8.06c0,1.78.93,3,2.78,3a5.19,5.19,0,0,0,2.93-.92Z"/><path class="cls-1" d="M115.59,41.83V53.05H111.5V42.85c0-2.44-1.29-4-3.63-4a5.74,5.74,0,0,0-4.59,2.25V53.05H99.19V35.49h4.09v2.25a8.33,8.33,0,0,1,6.11-2.58C113.55,35.16,115.59,37.74,115.59,41.83Z"/><path class="cls-1" d="M119.58,30.24a2.61,2.61,0,1,1,2.61,2.61A2.63,2.63,0,0,1,119.58,30.24Zm4.66,22.81h-4.1V35.49h4.1Z"/><path class="cls-1" d="M145.36,35.49V51.14c0,6.33-4.23,8.71-9.24,8.71a14.7,14.7,0,0,1-6.74-1.59l.3-3.72a11,11,0,0,0,6.47,2.07c2.87,0,5.12-1.35,5.12-5v-.82a7.91,7.91,0,0,1-5.22,1.91c-4.06,0-8.22-2.9-8.22-8.81S132,35.16,136,35.16A7.44,7.44,0,0,1,141.27,37V35.49Zm-4.09,11.65V40.9a5.91,5.91,0,0,0-4.59-2.27c-2.68,0-4.69,2.11-4.69,5.31s2,5.31,4.66,5.31A5.84,5.84,0,0,0,141.27,47.14Z"/><path class="cls-1" d="M166.51,41.83V53.05h-4.09V42.85c0-2.47-1.35-4-3.83-4A6,6,0,0,0,154,41.43V53.05h-4.09V28.63H154v9.11a8.35,8.35,0,0,1,6.17-2.58C164.46,35.16,166.51,37.74,166.51,41.83Z"/><path class="cls-1" d="M182.71,52.26a8,8,0,0,1-4.35,1.12c-3.8,0-6-2.24-6-6.77v-8h-3.2v-3.1h3.2V32l4.09-1v4.49h6.1v3.1h-6.1v8.06c0,1.78.92,3,2.77,3a5.2,5.2,0,0,0,2.94-.92Z"/><path class="cls-1" d="M35.77,79.16V90.05H31.71V88.27a7.62,7.62,0,0,1-5.28,2.11c-3.93,0-6.34-2.38-6.34-5.68,0-3.53,2.74-5.67,6.83-5.67a16.08,16.08,0,0,1,4.79.79v-.53c0-2.67-2-3.86-4.52-3.86a9.25,9.25,0,0,0-5.55,1.91l-.16-3.56a12.33,12.33,0,0,1,6.43-1.62C32.47,72.16,35.77,74.27,35.77,79.16ZM31.71,85.3V82.66a14.15,14.15,0,0,0-4.33-.76C25.27,81.9,24,83,24,84.57s1.38,2.64,3.2,2.64A6.22,6.22,0,0,0,31.71,85.3Z"/><path class="cls-1" d="M66.72,81.27c0,6-3.86,9.11-8.38,9.11a7.69,7.69,0,0,1-5.18-1.91v1.58h-4.1V65.63h4.1v8.78a7.71,7.71,0,0,1,5.47-2.25C63.06,72.16,66.72,75.3,66.72,81.27Zm-4.13,0c0-3.33-2-5.54-4.88-5.54a5.33,5.33,0,0,0-4.55,2.5v6.31a5.66,5.66,0,0,0,4.58,2.28C60.58,86.82,62.59,84.6,62.59,81.27Z"/><path class="cls-1" d="M70.28,65.63h4.1V90.05h-4.1Z"/><path class="cls-1" d="M95.23,72.49V90.05H91.17V87.81a8.48,8.48,0,0,1-6.1,2.57c-4.19,0-6.21-2.57-6.21-6.67V72.49H83v10.2c0,2.44,1.22,4,3.63,4a5.8,5.8,0,0,0,4.59-2.31V72.49Z"/><path class="cls-1" d="M112,72.92l-.56,3.76a5.92,5.92,0,0,0-2.94-.72,5.39,5.39,0,0,0-4.65,2.84V90.05H99.72V72.49h4.09v2.38A6.08,6.08,0,0,1,109,72.16,6.19,6.19,0,0,1,112,72.92Z"/><path class="cls-1" d="M119.48,81.77a6.85,6.85,0,0,1,3.34-5.62c1.55-1,2.34-2,2.34-3.13,0-1.62-1.35-2.67-3.27-2.67-2.34,0-4.58,1.38-5.81,4.25l-2.21-3.66C115,68.6,118,66.62,122,66.62c4.69,0,7.53,2.77,7.53,6.17,0,2.47-1.45,4.19-3.67,5.74a4.75,4.75,0,0,0-2.44,3.63v1h-3.93Zm-.56,6.07a2.55,2.55,0,1,1,2.54,2.54A2.56,2.56,0,0,1,118.92,87.84Z"/><rect class="cls-2" width="300" height="600"/></g></g></g></svg>