<?xml version="1.0" encoding="utf-8"?>
<!-- Generator: Adobe Illustrator 23.0.0, SVG Export Plug-In . SVG Version: 6.00 Build 0)  -->
<svg version="1.1" id="Layer_1" xmlns="http://www.w3.org/2000/svg" xmlns:xlink="http://www.w3.org/1999/xlink" x="0px" y="0px"
	 viewBox="0 0 2211 1497" style="enable-background:new 0 0 2211 1497;" xml:space="preserve">
<style type="text/css">
	.st0{display:none;}
	.st1{display:inline;}
	.st2{fill:#016C42;}
	.st3{display:none;fill:none;stroke:#016C42;stroke-miterlimit:10;}
	.st4{fill:none;stroke:#C1D100;stroke-width:2;stroke-miterlimit:10;}
</style>
<g class="st0">
	<g id="Layer_1-2" class="st1">
		<path class="st2" d="M1105.5,3.2c148.9,0,293.4,19.6,429.4,58.4c131.3,37.4,249.2,90.9,350.5,159.1c48.2,32.3,93.3,69,134.5,109.8
			c38.5,38,72.5,80.3,101.5,126c57.3,91.2,86.4,188.1,86.4,288s-29.1,196.8-86.4,288.1c-29,45.7-63,87.9-101.5,126
			c-41.2,40.8-86.3,77.6-134.5,109.8c-101.2,68.2-219.2,121.7-350.5,159.1c-136,38.6-280.5,58.3-429.4,58.3s-293.4-19.6-429.4-58.4
			c-131.3-37.4-249.2-90.9-350.5-159.1c-48.2-32.3-93.3-69-134.5-109.8c-38.5-38-72.5-80.3-101.5-126
			c-57.3-91.2-86.4-188.1-86.4-288s29.1-196.8,86.4-288.1c29-45.7,63-87.9,101.5-126c41.2-40.8,86.3-77.6,134.5-109.8
			C426.8,152.5,544.8,98.9,676.1,61.5C812.1,22.9,956.6,3.2,1105.5,3.2 M1105.5,0C494.9,0,0,333.3,0,744.5s494.9,744.5,1105.5,744.5
			S2211,1155.7,2211,744.5S1716.1,0,1105.5,0z"/>
	</g>
</g>
<ellipse class="st3" cx="1103.9" cy="748.5" rx="1103.9" ry="748.5"/>
<ellipse class="st4" cx="1105.5" cy="748.5" rx="1105.5" ry="748.5"/>
</svg>
