<svg xmlns="http://www.w3.org/2000/svg" viewBox="0 0 95 36.75"><defs><style>.cls-1{fill:#009452;}.cls-2{fill:#fff;}</style></defs><title>Asset 8</title><g id="Layer_2" data-name="Layer 2"><g id="Logo_only" data-name="Logo only"><path class="cls-1" d="M68,0C59.77,0,52.38,2.57,47.45,6.57,42.51,2.61,35.13.1,26.88.12,12,.15,0,8.38,0,18.49S12.09,36.78,27,36.75c8.27,0,15.66-2.57,20.58-6.57h0c4.94,4,12.32,6.47,20.57,6.45C83,36.6,95,28.38,95,18.26S82.91,0,68,0Z"/><path class="cls-2" d="M16.62,21.76a4.24,4.24,0,0,1-3.5,1.3h0a12.37,12.37,0,0,1-2.85-.29.28.28,0,0,1-.25-.25V21.34a.25.25,0,0,1,.26-.24c.65.09,2.29.16,2.87.16,1.38,0,1.94-.46,1.95-1.55,0-.7-.36-1-1.42-1.66l-2.14-1.29a3.19,3.19,0,0,1-1.88-2.92,2.69,2.69,0,0,1,1-2.27,4.85,4.85,0,0,1,3-.77,18.47,18.47,0,0,1,3.09.28.27.27,0,0,1,.23.24v1.21a.21.21,0,0,1-.23.22,31.35,31.35,0,0,0-3.19-.15c-1.19,0-1.77.41-1.77,1.23,0,.59.29.92,1.36,1.52l1.95,1.09c1.56.87,2.21,1.83,2.22,3.27A3.25,3.25,0,0,1,16.62,21.76Z"/><path class="cls-2" d="M23.73,17.75V19c0,1.13-.2,2.44-1.83,2.44a13.1,13.1,0,0,1-1.56-.11h-.09V15.45l.08,0a10.13,10.13,0,0,1,1.57-.12C23.51,15.31,23.73,16.61,23.73,17.75Zm1.93,0c0-2.61-1.31-4-3.77-4a13.34,13.34,0,0,0-3.23.43c-.34.09-.36.16-.36.34l0,11.38a.22.22,0,0,0,.22.23H20a.22.22,0,0,0,.22-.22v-3h.12a12.38,12.38,0,0,0,1.54.11c2.46,0,3.76-1.39,3.75-4Z"/><path class="cls-2" d="M32.2,17.5v.17H28.57v-.17c0-1.28.71-2.12,1.83-2.12S32.2,16.22,32.2,17.5Zm1.95.28c0-2.5-1.45-4.05-3.76-4.05s-3.78,1.53-3.77,4.06V19a3.65,3.65,0,0,0,3.82,4,14,14,0,0,0,3.12-.28c.23,0,.26-.1.26-.32V21.31c0-.13-.14-.14-.19-.14h-.05c-.72.07-1.83.16-3,.16a1.94,1.94,0,0,1-2-2.17V19h5.38c.11,0,.22,0,.22-.31Z"/><path class="cls-2" d="M41.12,15.31c0,.12-.12.14-.23.14a14.09,14.09,0,0,0-2.1-.11c-.62,0-1.65.3-1.65,2.25v1.52c0,1.95,1,2.24,1.66,2.24a13.41,13.41,0,0,0,2.09-.12h0c.07,0,.19,0,.19.14v1.07c0,.21,0,.27-.26.32a8.75,8.75,0,0,1-2.06.22c-2.25,0-3.59-1.44-3.6-3.86V17.59c0-2.42,1.33-3.87,3.58-3.87a8.14,8.14,0,0,1,2.06.2c.23.06.26.12.26.33Z"/><path class="cls-2" d="M45.41,23a13.49,13.49,0,0,1-2.88-.31.28.28,0,0,1-.23-.28v-1a.17.17,0,0,1,.17-.16h.06c.77.09,2.23.17,2.73.17,1.1,0,1.25-.43,1.24-.89s-.24-.59-.76-.92l-2.22-1.37a2.57,2.57,0,0,1-1.31-2.16c0-1.58,1-2.35,3-2.36a10.54,10.54,0,0,1,2.7.3.26.26,0,0,1,.22.28v1c0,.13-.06.2-.16.2h0a20.57,20.57,0,0,0-2.53-.18c-.6,0-1.22.1-1.22.79,0,.34.33.54.7.76L47,18.11a2.53,2.53,0,0,1,1.51,2.4C48.47,22,47.3,23,45.41,23Z"/><path class="cls-2" d="M64.79,14l-2,7.45a2,2,0,0,1-3.83,0S56.88,14,56.87,14V14a.16.16,0,0,1,.16-.16h1.62c.1,0,.19.09.22.25l1.57,6.84c.07.32.21.49.41.49s.34-.17.4-.49L62.78,14c0-.17.15-.25.24-.25h1.62a.16.16,0,0,1,.16.16S64.79,14,64.79,14Z"/><path class="cls-2" d="M78.28,15a.21.21,0,0,1-.22.22,4.65,4.65,0,0,0-2.28.61l0,0v6.64a.23.23,0,0,1-.22.24H74a.23.23,0,0,1-.22-.24l0-8.56a.22.22,0,0,1,.22-.22h1.41a.22.22,0,0,1,.22.23v.55l.17-.13a3.61,3.61,0,0,1,2.25-.76.21.21,0,0,1,.22.22Z"/><path class="cls-2" d="M82.27,22.88a12.79,12.79,0,0,1-2.87-.31.27.27,0,0,1-.24-.28v-1a.17.17,0,0,1,.17-.16h.06c.77.1,2.23.18,2.73.18,1.1,0,1.25-.43,1.25-.89s-.25-.6-.76-.92l-2.23-1.37A2.6,2.6,0,0,1,79.07,16c0-1.58,1-2.35,3-2.35a10.06,10.06,0,0,1,2.7.3.25.25,0,0,1,.22.27v1c0,.14,0,.21-.16.21h0a20.92,20.92,0,0,0-2.53-.17c-.6,0-1.22.09-1.22.79,0,.33.33.53.7.75L83.82,18a2.51,2.51,0,0,1,1.51,2.39C85.33,21.94,84.16,22.88,82.27,22.88Z"/><path class="cls-2" d="M72.64,18.61c0,.27-.11.31-.22.31H67v.15a1.94,1.94,0,0,0,2,2.17,27.94,27.94,0,0,0,3-.17h0c.06,0,.19,0,.19.15v1.08c0,.22,0,.28-.26.32a14,14,0,0,1-3.12.28,3.65,3.65,0,0,1-3.82-4V17.71c0-2.54,1.41-4.05,3.78-4.06s3.75,1.55,3.76,4Zm-3.76-3.3a1.87,1.87,0,0,0-1.83,2.12v.17h3.64v-.17C70.68,16.14,70,15.31,68.88,15.31Z"/><path class="cls-2" d="M56.37,22.59a.22.22,0,0,1-.22.22H54.77a.22.22,0,0,1-.22-.22v-.45l-.15.1a5.18,5.18,0,0,1-1.34.59h0a3.46,3.46,0,0,1-.89.12,2.39,2.39,0,0,1-2.7-2.62v-.07c0-1.88,1.18-2.73,3.84-2.73h1.12V16.7c0-.93-.37-1.27-1-1.38a3.09,3.09,0,0,0-.55,0,23.42,23.42,0,0,0-2.64.14h-.08c-.15,0-.19,0-.19-.18V14.19c0-.09,0-.19.22-.24a13.64,13.64,0,0,1,2.68-.26h0c2.27,0,3.42,1,3.43,3Zm-2.53-3.83h-.53c-1.58,0-1.9.58-1.9,1.5v.06c0,.93.49,1.12,1.27,1.12a3.47,3.47,0,0,0,.83-.12h0a3.48,3.48,0,0,0,.87-.36l0,0V18.76Z"/></g></g></svg>