<?xml version="1.0" encoding="utf-8"?>
<!-- Generator: Adobe Illustrator 24.3.0, SVG Export Plug-In . SVG Version: 6.00 Build 0)  -->
<svg version="1.1" id="Layer_1" xmlns="http://www.w3.org/2000/svg" xmlns:xlink="http://www.w3.org/1999/xlink" x="0px" y="0px"
	 viewBox="0 0 320 50" style="enable-background:new 0 0 320 50;" xml:space="preserve">
<style type="text/css">
	.st0{fill:#009152;}
	.st1{fill:#FFFFFF;}
	.st2{display:none;}
	.st3{display:inline;}
	.st4{fill:#009452;}
	.st5{fill:none;}
	.st6{clip-path:url(#SVGID_2_);}
</style>
<symbol  id="New_Symbol" viewBox="-152.4 -58.2 304.8 116.4">
	<ellipse class="st0" cx="66.2" cy="0" rx="86.2" ry="58.2"/>
	<ellipse class="st0" cx="-66.2" cy="0" rx="86.2" ry="58.2"/>
	<path class="st1" d="M-108.6,6.6c-5.1,1.4-8.2,2.4-8.2,5c0,2.2,2.2,3.6,5.6,3.6s6.8-1.3,9.6-3.6l0.1-0.1l0.3,6.5l0,0l0,0
		c-2.7,1.5-5.4,2.5-9.8,2.5c-3.2,0-6.1-0.8-8.2-2.3c-2.3-1.6-3.5-4-3.5-6.8c0-5.5,4.6-7.9,8.5-8.9c5.2-1.4,8.8-2.6,8.8-5.8
		c0-2.7-2.4-4.4-6.3-4.4s-7.8,1.7-10.8,4.6l-0.1,0.1l-0.6-6.9l0,0l0,0c3.1-2.1,7-3.2,11.2-3.2c3.6,0,6.7,0.9,8.9,2.6
		c2.4,1.8,3.7,4.4,3.7,7.6C-99.4,1.9-102.4,5-108.6,6.6z"/>
	<path class="st1" d="M-70.5,0c0-8.6-5.6-13.1-12.1-13.1c-3.1,0-5.6,1.1-7.5,2.8v-10.1H-96v33.1h5.9V9.9c2,1.9,4.6,3.2,7.9,3.2
		C-75.8,13.1-70.5,8.6-70.5,0z M-76.5,0c0,4.8-2.9,8-7,8c-2.5,0-4.9-1.1-6.6-3.6v-9.1c1.7-2.2,4-3.3,6.6-3.3
		C-79.4-8-76.5-4.8-76.5,0z"/>
	<path class="st1" d="M-43.5-1.9h-17.9c0.7-4,3.6-6.1,7.6-6.1c3.4,0,5.9,0.8,8.6,2.4l0.3-5.2c-2.4-1.3-5.4-2.3-9.3-2.3
		c-7.2,0-13.2,4.5-13.2,13c0,7.9,6,13.2,13.1,13.2c7.4,0,11.3-4.5,11.3-11C-43,0.8-43.1-0.5-43.5-1.9z M-48.6,2.9
		c0,3.1-2,5.5-5.6,5.5c-3.4,0-6.4-2.3-7.1-6.2h12.6C-48.6,2.4-48.6,2.6-48.6,2.9z"/>
	<path class="st1" d="M-15.3-10.5l0.6,5.7C-12.3-6.8-9-8-5.5-8C-3-8-1.3-7-1.3-5.2c0,4.7-13.6,2.3-13.6,10.8c0,5.1,4.4,7.6,9.6,7.6
		c3.7,0,6.5-0.9,8.6-2.2L3.1,5.6C0.5,7.3-2.5,8.2-5.2,8.2C-7.3,8.2-9,7.4-9,5.8c0-4,13.7-2,13.7-10.8c0-5.4-4.7-8.1-10.2-8.1
		C-9.6-13.1-12.9-12.1-15.3-10.5z"/>
	<path class="st1" d="M30.3,3v-15.7h-5.9v2.6c-2-1.9-4.6-3-7.6-3c-5.7,0-9.1,3.4-9.1,8.2c0,5.1,4,8.2,9.9,8.2c2.2,0,4.4-0.4,6.9-1.1
		V3c0,3.9-2.9,5.6-6.5,5.6c-2.7,0-5.8-1-8-2.8l-0.2,5.1c1.9,1.3,5.4,2.3,9.3,2.3C25.5,13.1,30.3,10.1,30.3,3z M24.4-5.8V-2
		c-2.1,0.7-4.1,1.1-6.2,1.1c-3,0-4.9-1.6-4.9-3.9s2-3.8,4.6-3.8C20.4-8.6,22.4-7.7,24.4-5.8z"/>
	<path class="st1" d="M30.8,12.7h6.4l7.3-16l7.2,16h6.4l-12-25.3h-3.3L30.8,12.7z"/>
	<path class="st1" d="M81.2-1.9H63.4C64-5.9,67-8,70.9-8c3.4,0,5.9,0.8,8.6,2.4l0.3-5.2c-2.4-1.3-5.4-2.3-9.3-2.3
		c-7.2,0-13.2,4.5-13.2,13c0,7.9,6,13.2,13.1,13.2c7.4,0,11.3-4.5,11.3-11C81.8,0.8,81.6-0.5,81.2-1.9z M76.2,2.9
		c0,3.1-2,5.5-5.6,5.5c-3.4,0-6.4-2.3-7.1-6.2h12.6C76.1,2.4,76.2,2.6,76.2,2.9z"/>
	<path class="st1" d="M103.4,12l-0.8-5.4c-1.4,0.8-2.8,1-4.2,1c-2.6,0-5-1.3-6.7-4.1v-16.2h-5.9v25.3h5.9V9.2
		c1.7,2.3,4.1,3.9,7.4,3.9C100.7,13.1,102.1,12.8,103.4,12z"/>
	<path class="st1" d="M105.1-10.5l0.6,5.7c2.4-2,5.7-3.2,9.2-3.2c2.5,0,4.2,1,4.2,2.8c0,4.7-13.6,2.3-13.6,10.8
		c0,5.1,4.4,7.6,9.6,7.6c3.7,0,6.5-0.9,8.6-2.2l-0.3-5.3c-2.5,1.7-5.6,2.6-8.3,2.6c-2.1,0-3.8-0.8-3.8-2.4c0-4,13.7-2,13.7-10.8
		c0-5.4-4.7-8.1-10.2-8.1C110.8-13.1,107.5-12.1,105.1-10.5z"/>
	<path class="st1" d="M-19.6-5.7c-2-1.5-4.1-2.3-6.5-2.3c-4.1,0-7.7,2.9-7.7,8s3.6,8,7.7,8c2.4,0,4.5-0.8,6.5-2.2
		c0.3,1.8,0.6,3.5,1.1,5.2c-2.1,1.2-4.7,2.1-8.3,2.1c-7.2,0-13-4.9-13-13.1s5.9-13.1,13.1-13.1c3.6,0,6.2,1,8.3,2.3
		C-19-9.2-19.3-7.5-19.6-5.7z"/>
</symbol>
<g id="Layer_2_1_" class="st2">
	<g id="layer_1-2" class="st3">
		<path class="st4" d="M72.4,8c-7.8,0-14.8,2.4-19.5,6.3c-4.7-3.8-11.7-6.2-19.5-6.2C19.3,8.1,7.9,16,7.9,25.6S19.4,43,33.5,43
			c7.8,0,14.8-2.5,19.5-6.3l0,0c4.7,3.8,11.7,6.2,19.5,6.2C86.6,42.9,98,35,98,25.4S86.5,8,72.4,8z"/>
		<path class="st1" d="M23.7,28.7c-0.8,0.9-2.1,1.4-3.3,1.3l0,0c-0.9,0-1.8-0.1-2.7-0.3c-0.1,0-0.2-0.1-0.2-0.3v-1.2
			c0-0.1,0.1-0.2,0.2-0.2l0,0c0.6,0.1,2.2,0.1,2.7,0.1c1.3,0,1.8-0.4,1.9-1.5c0-0.7-0.4-1-1.3-1.6l-2-1.2c-1.1-0.5-1.8-1.6-1.8-2.8
			c-0.2-0.7,0.2-1.5,0.8-2c0.8-0.5,1.8-0.8,2.8-0.7c1,0,2,0.1,2.9,0.3c0.1,0,0.2,0.1,0.2,0.2v1.1c0,0.1-0.1,0.2-0.2,0.2l0,0
			c-1.1-0.1-2.1-0.1-3-0.1c-1.1,0-1.7,0.4-1.7,1.2c0,0.6,0.3,0.9,1.3,1.5l1.8,1c1.5,0.8,2.1,1.7,2.1,3.1
			C24.3,27.4,24.1,28.1,23.7,28.7z"/>
		<path class="st1" d="M30.4,24.9v1.2c0,1.1-0.2,2.3-1.7,2.3c-0.5,0-1,0-1.5-0.1h-0.1v-5.6h0.1c0.5-0.1,1-0.1,1.5-0.1
			C30.2,22.6,30.4,23.8,30.4,24.9z M32.2,24.9c0-2.5-1.2-3.8-3.6-3.8c-1,0-2.1,0.1-3.1,0.4c-0.3,0.1-0.3,0.2-0.3,0.3v10.8
			c0,0.1,0.1,0.2,0.2,0.2h1.4c0.1,0,0.2-0.1,0.2-0.2v-2.9h0.1c0.5,0.1,1,0.1,1.5,0.1c2.3,0,3.6-1.3,3.6-3.8V24.9z"/>
		<path class="st1" d="M38.4,24.7v0.2H35v-0.2c0-1.2,0.7-2,1.7-2S38.4,23.4,38.4,24.7z M40.3,24.9c0-2.4-1.4-3.9-3.6-3.9
			s-3.6,1.5-3.6,3.9v1.2c-0.2,1.9,1.2,3.6,3.1,3.8c0.2,0,0.3,0,0.5,0c1,0,2-0.1,3-0.3c0.2,0,0.3-0.1,0.3-0.3v-1
			c0-0.1-0.1-0.1-0.2-0.1l0,0c-0.7,0.1-1.7,0.1-2.8,0.2c-1,0.1-1.9-0.7-2-1.7c0-0.1,0-0.3,0-0.4v-0.1h5.1c0.1,0,0.2,0,0.2-0.3V24.9z
			"/>
		<path class="st1" d="M46.9,22.6c0,0.1-0.1,0.1-0.2,0.1c-0.7-0.1-1.3-0.1-2-0.1c-0.6,0-1.6,0.3-1.6,2.1v1.5c0,1.9,1,2.1,1.6,2.1
			c0.7,0,1.3,0,2-0.1l0,0c0.1,0,0.2,0,0.2,0.1v1c0,0.2,0,0.3-0.3,0.3c-0.7,0.1-1.3,0.2-2,0.2c-2.1,0-3.4-1.4-3.4-3.7v-1.4
			c0-2.3,1.3-3.7,3.4-3.7c0.7,0,1.3,0,2,0.2c0.2,0,0.2,0.1,0.3,0.3V22.6z"/>
		<path class="st1" d="M50.9,29.9c-0.9,0-1.8-0.1-2.7-0.3c-0.1,0-0.2-0.1-0.2-0.3v-0.9c0-0.1,0.1-0.2,0.2-0.1l0,0
			c0.7,0.1,2.1,0.2,2.6,0.2c1,0,1.2-0.4,1.2-0.9s-0.2-0.6-0.7-0.9l-2.1-1.3c-0.7-0.4-1.2-1.2-1.3-2.1c0-1.5,0.9-2.2,2.8-2.2
			c0.9,0,1.7,0.1,2.6,0.3c0.1,0,0.2,0.1,0.2,0.3v0.9c0,0.1,0,0.2-0.2,0.2l0,0c-0.8-0.1-1.6-0.2-2.4-0.2c-0.6,0-1.2,0.1-1.2,0.8
			c0,0.3,0.3,0.5,0.7,0.7l2,1.2c0.9,0.4,1.5,1.3,1.4,2.3C53.8,29,52.7,29.9,50.9,29.9z"/>
		<path class="st1" d="M69.3,21.4l-1.9,7.1c-0.3,1-1.3,1.6-2.3,1.3c-0.6-0.2-1.2-0.7-1.3-1.3c0,0-1.9-7.1-2-7.1v-0.1
			c0-0.1,0.1-0.2,0.1-0.2l0,0h1.5c0.1,0,0.2,0.1,0.2,0.2l1.5,6.5c0.1,0.3,0.2,0.5,0.4,0.5s0.3-0.2,0.4-0.5l1.5-6.5
			c0-0.2,0.1-0.2,0.2-0.2h1.5c0.1,0,0.1,0.1,0.2,0.1C69.3,21.2,69.3,21.3,69.3,21.4C69.3,21.3,69.3,21.3,69.3,21.4z"/>
		<path class="st1" d="M82.1,22.3c0,0.1-0.1,0.2-0.2,0.2c-0.8,0-1.5,0.2-2.2,0.6l0,0v6.3c0,0.1-0.1,0.2-0.2,0.2h-1.4
			c-0.1,0-0.2-0.1-0.2-0.2v-8.1c0-0.1,0.1-0.2,0.2-0.2h1.3c0.1,0,0.2,0.1,0.2,0.2v0.5l0.2-0.1c0.6-0.5,1.4-0.7,2.1-0.7
			c0.1,0,0.2,0.1,0.2,0.2l0,0V22.3z"/>
		<path class="st1" d="M85.8,29.8c-0.9,0-1.8-0.1-2.7-0.3c-0.1,0-0.2-0.1-0.2-0.3v-0.9c0-0.1,0.1-0.2,0.2-0.1h0.1
			c0.7,0.1,2.1,0.2,2.6,0.2c1,0,1.2-0.4,1.2-0.9s-0.2-0.6-0.7-0.9l-2.1-1.3c-0.7-0.4-1.2-1.2-1.3-2.1c0-1.5,0.9-2.2,2.8-2.2
			c0.9,0,1.7,0.1,2.6,0.3c0.1,0,0.2,0.1,0.2,0.3v0.9c0,0.1-0.1,0.2-0.2,0.2l0,0c-0.8-0.1-1.6-0.2-2.4-0.2c-0.6,0-1.2,0.1-1.2,0.8
			c0,0.3,0.3,0.5,0.7,0.7l2,1.2c0.9,0.4,1.5,1.3,1.4,2.3C88.8,28.9,87.7,29.8,85.8,29.8z"/>
		<path class="st1" d="M76.7,25.7c0,0.3-0.1,0.3-0.2,0.3h-5.1v0.1c-0.1,1,0.6,1.9,1.6,2.1c0.1,0,0.2,0,0.3,0c1.1,0,2.1-0.1,2.8-0.2
			l0,0c0.1,0,0.2,0,0.2,0.1v1c0,0.2,0,0.3-0.3,0.3c-1,0.2-2,0.3-3,0.3c-1.9,0-3.5-1.5-3.5-3.4c0-0.1,0-0.3,0-0.4v-1.1
			c0-2.4,1.3-3.9,3.6-3.9s3.6,1.5,3.6,3.9V25.7z M73.2,22.6c-1,0-1.7,0.8-1.7,2v0.2h3.4v-0.2C74.9,23.4,74.2,22.6,73.2,22.6z"/>
		<path class="st1" d="M61.3,29.5c0,0.1-0.1,0.2-0.2,0.2h-1.3c-0.1,0-0.2-0.1-0.2-0.2l0,0v-0.4l-0.1,0.1c-0.4,0.2-0.8,0.4-1.3,0.6
			l0,0c-0.3,0.1-0.6,0.1-0.8,0.1c-1.2,0.2-2.4-0.7-2.6-1.9c0-0.2,0-0.4,0-0.6v-0.1c0-1.8,1.1-2.6,3.6-2.6h1.1v-0.8
			c0-0.9-0.3-1.2-0.9-1.3c-0.2,0-0.4,0-0.5,0c-0.8,0-1.7,0-2.5,0.1h-0.1c-0.1,0-0.2,0-0.2-0.2v-1c0-0.1,0-0.2,0.2-0.2
			c0.8-0.2,1.7-0.3,2.5-0.3l0,0c2.2,0,3.2,1,3.3,2.9V29.5z M58.9,25.9h-0.5c-1.5,0-1.8,0.5-1.8,1.4v0.1c0,0.9,0.5,1.1,1.2,1.1
			c0.3,0,0.5,0,0.8-0.1l0,0c0.3-0.1,0.6-0.2,0.8-0.3l0,0V26L58.9,25.9z"/>
		<rect class="st5" width="320" height="50"/>
	</g>
</g>
<g>
	<g>
		<defs>
			<rect id="SVGID_1_" x="8" y="8" width="90" height="34"/>
		</defs>
		<clipPath id="SVGID_2_">
			<use xlink:href="#SVGID_1_"  style="overflow:visible;"/>
		</clipPath>
		<g class="st6">
			<g>
				<defs>
					<rect id="SVGID_3_" x="8" y="8" width="89.9" height="34"/>
				</defs>
				<clipPath id="SVGID_4_">
					<use xlink:href="#SVGID_3_"  style="overflow:visible;"/>
				</clipPath>
				<g style="clip-path:url(#SVGID_4_);">
					
						<use xlink:href="#New_Symbol"  width="304.8" height="116.4" x="-152.4" y="-58.2" transform="matrix(0.2951 0 0 -0.292 53.0185 24.9921)" style="overflow:visible;"/>
				</g>
			</g>
		</g>
	</g>
</g>
</svg>
