<svg xmlns="http://www.w3.org/2000/svg" viewBox="0 0 783 528"><defs><style>.cls-1{fill:#c1d100;}</style></defs><title>Curve29n31-apple-2pt-ouline-100opacity</title><g id="Layer_2" data-name="Layer 2"><g id="Logo_only" data-name="Logo only"><path class="cls-1" d="M391.5,2c52.67,0,103.75,7,151.84,20.67C589.76,35.91,631.43,54.85,667.21,79S731,131.1,750.54,162.3C770.75,194.53,781,228.74,781,264s-10.25,69.47-30.46,101.7C731,396.9,702.94,424.93,667.21,449s-77.45,43.07-123.87,56.31C495.25,519.05,444.17,526,391.5,526s-103.75-7-151.84-20.67c-46.42-13.24-88.09-32.18-123.87-56.31S52,396.9,32.46,365.7C12.25,333.47,2,299.26,2,264s10.25-69.47,30.46-101.7C52,131.1,80.06,103.07,115.79,79s77.45-43.07,123.87-56.31C287.75,9,338.83,2,391.5,2m0-2C175.28,0,0,118.2,0,264S175.28,528,391.5,528,783,409.8,783,264,607.72,0,391.5,0Z"/></g></g></svg>