<svg xmlns="http://www.w3.org/2000/svg" viewBox="0 0 747 503"><defs><style>.cls-1{fill:#006c3d;}</style></defs><title>Asset 24</title><g id="Layer_2" data-name="Layer 2"><g id="Logo_only" data-name="Logo only"><path class="cls-1" d="M373.5,0V2c50.24,0,99,6.62,144.84,19.69,44.28,12.61,84,30.65,118.15,53.63S697.3,125,716,154.66c19.27,30.69,29,63.27,29,96.84s-9.77,66.15-29,96.83c-18.66,29.71-45.4,56.4-79.47,79.34s-73.87,41-118.15,53.64C472.47,494.37,423.74,501,373.5,501s-99-6.63-144.84-19.69c-44.28-12.61-84-30.66-118.15-53.64S49.7,378,31,348.33C11.77,317.65,2,285.07,2,251.5s9.77-66.15,29-96.84C49.7,125,76.44,98.26,110.51,75.32s73.87-41,118.15-53.63C274.53,8.62,323.26,2,373.5,2V0m0,0C167.21,0,0,112.58,0,251.5S167.21,503,373.5,503,747,390.38,747,251.5,579.8,0,373.5,0Z"/></g></g></svg>