<?xml version="1.0" encoding="utf-8"?>
<!-- Generator: Adobe Illustrator 24.0.0, SVG Export Plug-In . SVG Version: 6.00 Build 0)  -->
<svg version="1.1" id="specsavers_x5F_master_x5F_logo_x5F_rgb"
	 xmlns="http://www.w3.org/2000/svg" xmlns:xlink="http://www.w3.org/1999/xlink" x="0px" y="0px" viewBox="0 0 362.78 174.46"
	 style="enable-background:new 0 0 362.78 174.46;" xml:space="preserve">
<style type="text/css">
	.st0{fill:#009552;}
	.st1{fill:#FFFFFF;}
</style>
<g>
	<path class="st0" d="M247.42,29.19c-26.5,0-50.21,8.05-66.04,20.71c-15.84-12.6-39.49-20.6-65.92-20.6
		c-47.67,0-86.31,26.03-86.31,58.13c0,32.09,38.64,58.11,86.31,58.11c26.51,0,50.22-8.06,66.06-20.72
		c15.83,12.6,39.49,20.61,65.9,20.61c47.69,0,86.33-26.02,86.33-58.11C333.75,55.21,295.11,29.19,247.42,29.19z"/>
	<g>
		<path class="st1" d="M165.49,100.81c-0.49-0.12-0.74-0.42-0.74-0.87v-3.11c0-0.25,0.23-0.52,0.56-0.52h0.17
			c2.49,0.31,7.15,0.58,8.75,0.58c3.52,0,4.01-1.37,4.01-2.82c0-1.2-0.79-1.88-2.43-2.92c0,0-7.11-4.35-7.11-4.37
			c-2.63-1.6-4.21-4.16-4.21-6.88c0-5.01,3.12-7.45,9.53-7.45c4.07,0,5.88,0.36,8.67,0.96c0.47,0.12,0.68,0.4,0.68,0.88v3.01
			c0,0.44-0.18,0.66-0.51,0.66h-0.16c-1.48-0.21-5.16-0.56-8.12-0.56c-1.93,0-3.89,0.29-3.89,2.49c0,1.08,1.03,1.7,2.23,2.4
			l6.8,4.16c4.44,2.69,4.82,5.34,4.82,7.6c0,4.79-3.77,7.77-9.84,7.77C172.55,101.85,168.32,101.58,165.49,100.81z"/>
		<path class="st1" d="M153.55,96.69c3.44,0,4.69-0.12,6.69-0.37h0.16c0.22,0,0.6,0.06,0.6,0.46v3.38c0,0.66-0.09,0.85-0.84,1.04
			c-0.6,0.14-2.84,0.66-6.61,0.66c-7.21,0-11.51-4.6-11.51-12.29v-4.83c0-7.69,4.3-12.27,11.51-12.27c3.77,0,6.01,0.51,6.62,0.66
			c0.74,0.18,0.83,0.37,0.83,1.04v3.37c0,0.39-0.38,0.46-0.71,0.46c-2.04-0.25-3.29-0.35-6.73-0.35c-1.99,0-5.3,0.91-5.3,7.11v4.83
			C148.25,95.76,151.56,96.69,153.55,96.69z"/>
		<path class="st1" d="M132.4,84.96h-11.64v-0.54c0-4.08,2.3-6.69,5.87-6.69c3.51,0,5.77,2.61,5.77,6.69V84.96z M120.7,89.67v-0.48
			h17.23c0.37,0,0.73-0.12,0.73-0.97v-2.9c0-7.93-4.61-12.85-12.03-12.85c-7.59,0-12.13,4.8-12.13,12.85v3.83
			c0,12.08,10.19,12.7,12.23,12.7c4.73,0,6.77-0.29,10.01-0.87c0.74-0.12,0.82-0.33,0.82-1.04V96.5c0-0.39-0.42-0.43-0.61-0.43
			h-0.16c-2.31,0.21-5.86,0.52-9.54,0.52C121.34,96.59,120.7,91.76,120.7,89.67z"/>
		<path class="st1" d="M99.35,77.42c5.21,0,5.88,4.12,5.88,7.73v4c0,3.6-0.67,7.75-5.88,7.75c-1.18,0-3.48-0.14-5.02-0.37
			l-0.28-0.04V77.84l0.26-0.06C95.31,77.57,97.48,77.42,99.35,77.42z M99.35,72.46c-3.22,0-7.08,0.5-10.34,1.34
			c-1.1,0.29-1.16,0.51-1.16,1.1v36.09c0,0.39,0.32,0.72,0.71,0.72h4.78c0.38,0,0.7-0.33,0.7-0.72v-9.55l0.37,0.04
			c1.7,0.25,3.49,0.37,4.93,0.37c7.9,0,12.08-4.39,12.08-12.7v-4C111.43,76.84,107.26,72.46,99.35,72.46z"/>
		<path class="st1" d="M63.38,65.45c2.13-1.62,5.31-2.41,9.52-2.41c3.31,0,8.11,0.51,9.91,0.93c0.33,0.06,0.75,0.29,0.75,0.76v3.83
			c0,0.39-0.28,0.7-0.73,0.7c-3.85-0.35-7.2-0.53-10.24-0.53c-3.81,0.01-5.68,1.33-5.68,3.93c0,1.85,0.94,2.92,4.37,4.83l6.23,3.46
			c5.01,2.78,7.1,5.82,7.09,10.38c0,1.59-0.32,4.25-2.17,6.5c-1.84,2.26-5.21,4.1-11.23,4.1c0,0,0,0-0.01,0
			c-3.51,0-6.33-0.29-9.14-0.93c-0.35-0.06-0.79-0.31-0.8-0.81v-3.73c0-0.46,0.4-0.75,0.83-0.75c2.1,0.25,7.37,0.52,9.21,0.52
			c4.43-0.02,6.24-1.45,6.25-4.91c0-2.22-1.14-3.29-4.52-5.28l-6.85-4.1c-4.26-2.51-6.01-5.22-6.01-9.28
			C60.17,69.48,61.25,67.05,63.38,65.45z"/>
		<path class="st1" d="M211.5,73.33c0-0.29,0.21-0.51,0.5-0.51h5.2c0.33,0,0.6,0.3,0.73,0.79l4.97,21.73
			c0.21,1.01,0.66,1.55,1.31,1.55c0.64,0,1.08-0.54,1.3-1.55l4.97-21.73c0.12-0.55,0.48-0.79,0.77-0.79h5.2
			c0.29,0,0.5,0.22,0.5,0.51c0,0-0.02,0.22-0.04,0.27l-6.53,23.61c-0.85,3.07-2.92,4.64-6.17,4.64c-3.23,0-5.28-1.57-6.11-4.64
			c0,0-6.55-23.61-6.57-23.66L211.5,73.33z"/>
		<path class="st1" d="M272.24,74.85c2.59-2,5.35-2.42,7.21-2.42c0.41,0,0.72,0.32,0.72,0.71v3.74c0,0.39-0.31,0.7-0.72,0.7
			c-2.57,0-4.74,0.58-7.31,1.91l-0.17,0.1v21.07c0,0.39-0.33,0.77-0.7,0.77h-4.79c-0.37,0-0.7-0.37-0.7-0.77V73.51
			c0-0.39,0.31-0.71,0.7-0.71H271c0.39,0,0.73,0.32,0.73,0.71v1.76L272.24,74.85z"/>
		<path class="st1" d="M292.9,101.85c-2.15,0-6.38-0.27-9.22-1.04c-0.48-0.12-0.73-0.42-0.73-0.87v-3.11c0-0.25,0.23-0.52,0.56-0.52
			h0.17c2.49,0.31,7.15,0.58,8.74,0.58c3.52,0,4.02-1.37,4.02-2.82c0-1.2-0.79-1.88-2.44-2.92c0,0-7.11-4.35-7.11-4.37
			c-2.63-1.6-4.21-4.16-4.21-6.88c0-5.01,3.13-7.45,9.53-7.45c4.08,0,5.88,0.37,8.68,0.97c0.46,0.11,0.68,0.4,0.68,0.88v3
			c0,0.44-0.17,0.66-0.5,0.66h-0.17c-1.47-0.21-5.16-0.56-8.12-0.56c-1.93,0-3.92,0.29-3.92,2.49c0,1.08,1.04,1.7,2.24,2.4
			l6.79,4.16c4.45,2.69,4.83,5.34,4.83,7.6C302.74,98.87,298.97,101.85,292.9,101.85z"/>
		<path class="st1" d="M250.65,96.59c3.67,0,7.23-0.31,9.53-0.52h0.17c0.19,0,0.6,0.04,0.6,0.43v3.44c0,0.71-0.06,0.91-0.81,1.04
			c-3.23,0.58-5.28,0.87-10.01,0.87c-2.05,0-12.24-0.62-12.24-12.7v-3.83c0-8.06,4.54-12.85,12.14-12.85
			c7.42,0,12.02,4.92,12.02,12.85v2.9c0,0.85-0.33,0.97-0.7,0.97h-17.24v0.48C244.11,91.76,244.75,96.59,250.65,96.59z
			 M255.79,84.43c0-4.08-2.26-6.69-5.76-6.69c-3.58,0-5.88,2.61-5.88,6.69v0.54h11.64V84.43z"/>
		<path class="st1" d="M198.78,72.46c0.04,0,0.07,0,0.11,0c7.28,0.03,10.97,3.26,10.97,9.58v18.67c0,0.39-0.31,0.72-0.7,0.72h-4.41
			c-0.39,0-0.71-0.33-0.71-0.72V99.3l-0.5,0.31c-1.44,0.87-2.88,1.49-4.29,1.86c-0.01,0-0.01,0-0.01,0
			c-0.96,0.23-1.91,0.37-2.84,0.37c-3.96,0-8.66-1.45-8.66-8.35v-0.21c0-5.97,3.81-8.64,12.34-8.64h1.62h1.98v-2.61
			c0-2.96-1.16-4.06-3.1-4.39c-0.01-0.02-0.01-0.02-0.01-0.02s0,0,0,0.02c-0.53-0.1-1.13-0.14-1.78-0.14
			c-3.33,0-6.79,0.23-8.46,0.43h-0.25c-0.48,0-0.61-0.15-0.61-0.56v-3.33c0-0.3,0.08-0.62,0.72-0.78
			C192.06,72.91,195.08,72.46,198.78,72.46z M201.76,88.57h-1.69c-5.07,0-6.08,1.8-6.08,4.72v0.21c0,2.96,1.54,3.54,4.06,3.54
			c0.84,0,1.74-0.12,2.64-0.35c0.95-0.27,1.92-0.64,2.81-1.14l0.17-0.08v-6.9h-1.9H201.76z"/>
	</g>
</g>
</svg>
