<svg xmlns="http://www.w3.org/2000/svg" viewBox="0 0 1083 729"><defs><style>.cls-1{fill:#c1d100;}</style></defs><title>Asset 3</title><g id="Layer_2" data-name="Layer 2"><g id="Layer_1-2" data-name="Layer 1"><path class="cls-1" d="M541.5,2c72.92,0,143.65,9.61,210.23,28.57,64.28,18.3,122,44.49,171.55,77.85s88.35,72.1,115.47,115.26c28,44.62,42.25,92,42.25,140.82s-14.21,96.2-42.25,140.82c-27.12,43.16-66,81.94-115.47,115.26S816,680.13,751.73,698.43C685.15,717.39,614.42,727,541.5,727s-143.65-9.61-210.23-28.57c-64.28-18.3-122-44.49-171.55-77.85S71.37,548.48,44.25,505.32C16.21,460.7,2,413.32,2,364.5s14.21-96.2,42.25-140.82c27.12-43.16,66-81.94,115.47-115.26S267,48.87,331.27,30.57C397.85,11.61,468.58,2,541.5,2m0-2C242.44,0,0,163.19,0,364.5S242.44,729,541.5,729,1083,565.81,1083,364.5,840.56,0,541.5,0Z"/></g></g></svg>