<svg xmlns="http://www.w3.org/2000/svg" viewBox="0 0 1202 810"><defs><style>.cls-1{fill:#016c42;}</style></defs><title>biggreencurve</title><g id="Layer_2" data-name="Layer 2"><g id="Logo_only" data-name="Logo only"><path class="cls-1" d="M601,2c81,0,159.47,10.69,233.39,31.76,71.36,20.34,135.44,49.45,190.46,86.52s98.1,80.15,128.22,128.14C1184.21,298,1200,350.71,1200,405s-15.79,107-46.93,156.58c-30.12,48-73.26,91.1-128.22,128.14s-119.1,66.18-190.46,86.52C760.47,797.31,682,808,601,808s-159.47-10.69-233.39-31.76c-71.36-20.34-135.44-49.45-190.46-86.52S79.05,609.57,48.93,561.58C17.79,512,2,459.29,2,405S17.79,298,48.93,248.42c30.12-48,73.26-91.1,128.22-128.14S296.25,54.1,367.61,33.76C441.53,12.69,520.05,2,601,2m0-2C269.08,0,0,181.32,0,405S269.08,810,601,810s601-181.32,601-405S932.92,0,601,0Z"/></g></g></svg>