<svg xmlns="http://www.w3.org/2000/svg" viewBox="0 0 2211 1497"><defs><style>.cls-1{fill:#c1d100;}</style></defs><title>applecurveoutline-2211x1497</title><g id="Layer_2" data-name="Layer 2"><g id="Layer_1-2" data-name="Layer 1"><path class="cls-1" d="M1105.5,2c149.06,0,293.65,19.76,429.76,58.74a1338.34,1338.34,0,0,1,187.5,68.91,1131.5,1131.5,0,0,1,163.33,91.24c49.92,33.8,95.23,71,134.69,110.53,39.82,39.91,74,82.57,101.65,126.79,28.12,45,49.72,92.13,64.2,140a515.9,515.9,0,0,1,0,300.54c-14.48,47.89-36.08,95-64.2,140-27.63,44.22-61.83,86.88-101.65,126.79-39.46,39.54-84.77,76.73-134.69,110.53a1131.5,1131.5,0,0,1-163.33,91.24,1338.34,1338.34,0,0,1-187.5,68.91c-136.11,39-280.7,58.74-429.76,58.74s-293.65-19.76-429.76-58.74a1338.34,1338.34,0,0,1-187.5-68.91,1131.5,1131.5,0,0,1-163.33-91.24c-49.92-33.8-95.23-71-134.69-110.53-39.82-39.91-74-82.57-101.65-126.79-28.12-45-49.72-92.13-64.2-140a515.9,515.9,0,0,1,0-300.54c14.48-47.89,36.08-95,64.2-140C116.2,414,150.4,371.33,190.22,331.42c39.46-39.54,84.77-76.73,134.69-110.53a1131.5,1131.5,0,0,1,163.33-91.24,1338.34,1338.34,0,0,1,187.5-68.91C811.85,21.76,956.44,2,1105.5,2m0-2C495,0,0,335.11,0,748.5S495,1497,1105.5,1497,2211,1161.89,2211,748.5,1716.05,0,1105.5,0Z"/></g></g></svg>