<?xml version="1.0" encoding="utf-8"?>
<!-- Generator: Adobe Illustrator 24.3.0, SVG Export Plug-In . SVG Version: 6.00 Build 0)  -->
<svg version="1.1" id="Layer_1" xmlns="http://www.w3.org/2000/svg" xmlns:xlink="http://www.w3.org/1999/xlink" x="0px" y="0px"
	 viewBox="0 0 196.9 78" style="enable-background:new 0 0 196.9 78;" xml:space="preserve">
<style type="text/css">
	.st0{fill:#009152;}
	.st1{fill:#FFFFFF;}
</style>
<symbol  id="New_Symbol" viewBox="-152.5 -58.2 304.9 116.4">
	<ellipse class="st0" cx="66.2" cy="0" rx="86.2" ry="58.2"/>
	<ellipse class="st0" cx="-66.2" cy="0" rx="86.2" ry="58.2"/>
	<path class="st1" d="M-108.6,6.6c-5.1,1.4-8.2,2.4-8.2,5c0,2.2,2.2,3.6,5.6,3.6c3.4,0,6.8-1.3,9.6-3.6l0.1-0.1l0.3,6.5l0,0l0,0
		c-2.7,1.5-5.4,2.5-9.8,2.5c-3.2,0-6.1-0.8-8.2-2.3c-2.3-1.6-3.5-4-3.5-6.8c0-5.5,4.6-7.9,8.5-8.9c5.2-1.4,8.8-2.6,8.8-5.8
		c0-2.7-2.4-4.4-6.3-4.4c-3.9,0-7.8,1.7-10.8,4.6l-0.1,0.1l-0.6-6.9l0,0l0,0c3.1-2.1,7-3.2,11.2-3.2c3.6,0,6.7,0.9,8.9,2.6
		c2.4,1.8,3.7,4.4,3.7,7.6C-99.4,1.9-102.4,5-108.6,6.6z"/>
	<path class="st1" d="M-70.5,0c0-8.6-5.6-13.1-12.1-13.1c-3.1,0-5.6,1.1-7.5,2.8v-10.1H-96v33.1h5.9V9.9c2,1.9,4.6,3.2,7.9,3.2
		C-75.8,13.1-70.5,8.6-70.5,0z M-76.5,0c0,4.8-2.9,8-7,8c-2.5,0-4.9-1.1-6.6-3.6v-9.1c1.7-2.2,4-3.3,6.6-3.3
		C-79.4-8-76.5-4.8-76.5,0z"/>
	<path class="st1" d="M-43.5-1.9h-17.9c0.7-4,3.6-6.1,7.6-6.1c3.4,0,5.9,0.8,8.6,2.4l0.3-5.2c-2.4-1.3-5.4-2.3-9.3-2.3
		c-7.2,0-13.2,4.5-13.2,13c0,7.9,6,13.2,13.1,13.2c7.4,0,11.3-4.5,11.3-11C-43,0.8-43.1-0.5-43.5-1.9z M-48.6,2.9
		c0,3.1-2,5.5-5.6,5.5c-3.4,0-6.4-2.3-7.1-6.2h12.6C-48.6,2.4-48.6,2.6-48.6,2.9z"/>
	<path class="st1" d="M-15.3-10.5l0.6,5.7c2.4-2,5.7-3.2,9.2-3.2C-3-8-1.3-7-1.3-5.2c0,4.7-13.6,2.3-13.6,10.8
		c0,5.1,4.4,7.6,9.6,7.6c3.7,0,6.5-0.9,8.6-2.2L3.1,5.6C0.5,7.3-2.5,8.2-5.2,8.2C-7.3,8.2-9,7.4-9,5.8c0-4,13.7-2,13.7-10.8
		c0-5.4-4.7-8.1-10.2-8.1C-9.6-13.1-12.9-12.1-15.3-10.5z"/>
	<path class="st1" d="M30.3,3v-15.7h-5.9v2.6c-2-1.9-4.6-3-7.6-3c-5.7,0-9.1,3.4-9.1,8.2c0,5.1,4,8.2,9.9,8.2c2.2,0,4.4-0.4,6.9-1.1
		v0.8c0,3.9-2.9,5.6-6.5,5.6c-2.7,0-5.8-1-8-2.8l-0.2,5.1c1.9,1.3,5.4,2.3,9.3,2.3C25.5,13.1,30.3,10.1,30.3,3z M24.4-5.8V-2
		c-2.1,0.7-4.1,1.1-6.2,1.1c-3,0-4.9-1.6-4.9-3.9c0-2.3,2-3.8,4.6-3.8C20.4-8.6,22.4-7.7,24.4-5.8z"/>
	<path class="st1" d="M30.8,12.7h6.4l7.3-16l7.2,16h6.4l-12-25.3h-3.3L30.8,12.7z"/>
	<path class="st1" d="M81.2-1.9H63.4C64-5.9,67-8,70.9-8c3.4,0,5.9,0.8,8.6,2.4l0.3-5.2c-2.4-1.3-5.4-2.3-9.3-2.3
		c-7.2,0-13.2,4.5-13.2,13c0,7.9,6,13.2,13.1,13.2c7.4,0,11.3-4.5,11.3-11C81.8,0.8,81.6-0.5,81.2-1.9z M76.2,2.9
		c0,3.1-2,5.5-5.6,5.5c-3.4,0-6.4-2.3-7.1-6.2h12.6C76.1,2.4,76.2,2.6,76.2,2.9z"/>
	<path class="st1" d="M103.4,12l-0.8-5.4c-1.4,0.8-2.8,1-4.2,1c-2.6,0-5-1.3-6.7-4.1v-16.2h-5.9v25.3h5.9V9.2
		c1.7,2.3,4.1,3.9,7.4,3.9C100.7,13.1,102.1,12.8,103.4,12z"/>
	<path class="st1" d="M105.1-10.5l0.6,5.7c2.4-2,5.7-3.2,9.2-3.2c2.5,0,4.2,1,4.2,2.8c0,4.7-13.6,2.3-13.6,10.8
		c0,5.1,4.4,7.6,9.6,7.6c3.7,0,6.5-0.9,8.6-2.2l-0.3-5.3c-2.5,1.7-5.6,2.6-8.3,2.6c-2.1,0-3.8-0.8-3.8-2.4c0-4,13.7-2,13.7-10.8
		c0-5.4-4.7-8.1-10.2-8.1C110.8-13.1,107.5-12.1,105.1-10.5z"/>
	<path class="st1" d="M-19.6-5.7c-2-1.5-4.1-2.3-6.5-2.3c-4.1,0-7.7,2.9-7.7,8c0,5.1,3.6,8,7.7,8c2.4,0,4.5-0.8,6.5-2.2
		c0.3,1.8,0.6,3.5,1.1,5.2c-2.1,1.2-4.7,2.1-8.3,2.1C-34,13.1-39.8,8.2-39.8,0s5.9-13.1,13.1-13.1c3.6,0,6.2,1,8.3,2.3
		C-19-9.2-19.3-7.5-19.6-5.7z"/>
</symbol>
<use xlink:href="#New_Symbol"  width="304.9" height="116.4" x="-152.5" y="-58.2" transform="matrix(0.6296 0 0 -0.6296 98.8943 38.7706)" style="overflow:visible;"/>
</svg>
