<svg height="800" viewBox="0 0 300 800" width="300" xmlns="http://www.w3.org/2000/svg"><path d="m76 107.5c0-3.9 2.8-6.7 6.9-6.7 1.6 0 2.8.4 3.6.9v3c-1-.7-2.3-1.1-3.5-1.1-2.2 0-3.8 1.6-3.8 3.8 0 2.4 1.6 3.8 3.9 3.8 1.8 0 3-.7 3.6-1.1v3.1c-.7.5-2.1.8-3.8.8-4.4.2-6.9-2.8-6.9-6.5zm19.2-6.5h3.2v5.1h4.8v-5.1h3.2v13h-3.2v-5.3h-4.8v5.3h-3.2zm19.4 6.5c0-4 2.7-6.7 6.9-6.7 4 0 6.7 2.7 6.7 6.6s-2.7 6.7-6.9 6.7c-4 .1-6.7-2.7-6.7-6.6zm10.4 0c0-2.5-1.7-3.9-3.5-3.9-1.9 0-3.5 1.4-3.5 3.8 0 2.6 1.6 3.8 3.6 3.8 1.8.1 3.4-1.2 3.4-3.7zm10.9 0c0-4 2.7-6.7 6.9-6.7 4 0 6.7 2.7 6.7 6.6s-2.7 6.7-6.9 6.7c-4 .1-6.7-2.7-6.7-6.6zm10.4 0c0-2.5-1.7-3.9-3.5-3.9-1.9 0-3.5 1.4-3.5 3.8 0 2.6 1.6 3.8 3.6 3.8 1.8.1 3.4-1.2 3.4-3.7zm11.3 5.9v-3c.9.6 2.2 1.1 3.5 1.1 1 0 1.5-.4 1.5-1.1 0-2.1-4.9-1.4-4.9-5.8 0-2.3 1.6-3.8 4.4-3.8 1.5 0 2.6.4 3.1.6v3c-.8-.5-1.9-1-2.9-1-.9 0-1.4.4-1.4 1.1 0 2 4.9 1.3 4.9 5.7 0 2.5-1.6 4-4.6 4-1.6 0-2.9-.5-3.6-.8zm16.4-12.4h3.2v13h-3.2zm15 6.2v6.7h-3.1v-13.2h.2l8 6.9v-6.7h3.1v13.2h-.2zm16.5.3c0-4 2.8-6.6 6.8-6.6 2.4 0 3.9.9 4.1 1.1v3c-.7-.5-2.2-1.3-3.9-1.3-2 0-3.8 1.3-3.8 3.8 0 2.6 1.6 3.9 3.5 3.9 1.6 0 2.8-.9 2.8-2.4h-3.3v-2.4h6.4v.6c0 4.3-1.5 7.1-6 7.1-4.9-.1-6.6-3.6-6.6-6.8zm-132.7 26.1h-3.4v-2.6h10v2.6h-3.4v10.4h-3.2zm13.5 3.9c0-4 2.7-6.7 6.9-6.7 4 0 6.7 2.7 6.7 6.6s-2.7 6.7-6.9 6.7c-4 .1-6.7-2.7-6.7-6.6zm10.4 0c0-2.5-1.7-3.9-3.5-3.9-1.9 0-3.5 1.4-3.5 3.8 0 2.6 1.6 3.8 3.6 3.8 1.8.1 3.4-1.2 3.4-3.7zm31.4 2.7c0 3.2-2.7 3.7-5.2 3.7h-4.6v-13h3.9c2.4 0 5.1.6 5.1 3.5 0 1.4-.7 2.2-1.5 2.5 1 .4 2.3 1.3 2.3 3.3zm-5.9-6.7h-.7v2.7h.7c1.1 0 2-.3 2-1.4s-.9-1.3-2-1.3zm2.7 6.5c0-1.4-1.4-1.4-2.2-1.4h-1.2v2.8h1.2c1 .1 2.2 0 2.2-1.4zm11.2-1.3v-7.7h3.2v7.1c0 1.8.1 3.3 2.2 3.3s2.2-1.5 2.2-3.3v-7.1h3.1v7.7c0 4-1.9 5.5-5.3 5.5-3.5 0-5.4-1.5-5.4-5.5zm19.3-7.7h3.2v13h-3.2zm12 0h3.2v10.4h5.5v2.6h-8.6v-13zm28.1 6.3c0 5.7-4.9 6.6-8.3 6.6h-3v-13h2.8c3.5.1 8.5.7 8.5 6.4zm-3.3 0c0-3.1-2.4-3.8-4.9-3.8v7.9c2.7 0 4.9-1.1 4.9-4.1zm26.6-6.5h.2l6 13.2h-3.4l-.7-1.8h-4.1l-.7 1.8h-3.3zm1.3 9.1-1.2-2.9-1.2 2.9zm-194.4 27.6c0-3.9 2.8-6.7 6.9-6.7 1.6 0 2.8.4 3.6.9v3c-1-.7-2.3-1.1-3.5-1.1-2.2 0-3.8 1.6-3.8 3.8 0 2.4 1.6 3.8 3.9 3.8 1.8 0 3-.7 3.6-1.1v3.1c-.7.5-2.1.8-3.8.8-4.4.2-6.9-2.8-6.9-6.5zm18.9 0c0-4 2.7-6.7 6.9-6.7 4 0 6.7 2.7 6.7 6.6s-2.7 6.7-6.9 6.7c-4.1.1-6.7-2.7-6.7-6.6zm10.3 0c0-2.5-1.7-3.9-3.5-3.9-1.9 0-3.5 1.4-3.5 3.8 0 2.6 1.6 3.8 3.6 3.8 1.8.1 3.4-1.2 3.4-3.7zm14.7 1.2-.9 5.3h-3.2l2.6-13.2h.2l4.8 7.8 4.8-7.8h.2l2.6 13.2h-3.1l-1-5.3-3.4 5.5h-.2zm22.6 0-.9 5.3h-3.2l2.6-13.2h.2l4.8 7.8 4.8-7.8h.2l2.6 13.2h-3.1l-1-5.3-3.4 5.5h-.2zm18.9 0v-7.7h3.2v7.1c0 1.8.1 3.3 2.2 3.3s2.2-1.5 2.2-3.3v-7.1h3.1v7.7c0 4-1.9 5.5-5.3 5.5-3.5 0-5.4-1.5-5.4-5.5zm22.4-1.5v6.7h-3.1v-13.2h.2l8 6.9v-6.7h3.1v13.2h-.2zm17-6.2h3.2v13h-3.2zm14.6 2.6h-3.4v-2.6h10v2.6h-3.4v10.4h-3.2zm18.5 5.2-4.6-7.8h3.5l2.8 5.1 2.8-5.1h3.4l-4.7 7.8v5.1h-3.2zm28.5-.1-.9 5.3h-3.2l2.6-13.2h.2l4.8 7.8 4.8-7.8h.2l2.6 13.2h-3.1l-1-5.3-3.4 5.5h-.2zm19.2-7.7h3.2v13h-3.2zm11.9 0h3.2v10.4h5.5v2.6h-8.6v-13zm16.8 0h3.2v10.4h5.5v2.6h-8.7zm-92.9-132.9h17.7v2.9c-3.4-.1-7.7-.6-11.2-.3v8.6c2.9.2 6.2.2 8.9-.1v3.1c-2.6-.2-6.1-.3-8.9-.1v9.3c3.5.3 7.8-.2 11.2-.3v2.8h-17.7zm-2.9 24.6.1.1.6 1.2h-7l-.8-1.7c-.4-.9-3-6.9-4.2-9h-3.8v10.7h-6.6v-25.9h13.2c3.5 0 7.5 2.2 7.6 6.6 0 3.6-1.5 5.7-3.9 6.8-.5.2-.4.2-.6.3 1.5 3.5 2.9 6.2 4.6 9.4zm-8.2-14c1.1-1.5 1-4.4.2-5.9-1.6-2.7-7.2-1.9-7.2-1.9v9.5c2.3.1 5.5.2 7-1.7m-23-10.6c3.5 0 5.8 1.6 6.9 4.8.8 2.8.7 6.4-1.3 8.6-2.6 3.5-12 3-12 3v9.5h-6.6v-25.9zm.7 11.7c1.3-1.8 1.1-5.3.2-6.9-1.5-2.7-7.4-1.8-7.4-1.8v10.4c2.3.1 5.7.1 7.2-1.7m-78.2-10.2c-1.9-2.4-5.3-5-7.7-5.9-3.2-1.3-6.4-1.5-8.8-.9v-.3c7.2-2.5 15.9-.5 20.6 4.1.7.6 3.3 3.4 4.3 4.6 2.3 2.7 5.3 6.9 7.9 10.1v-13.3h3.7v26.6c-4.1-3.4-8.2-10-11.4-14 0 0-6.1-8.1-8.6-11m22.3 28.6c3.2 1.3 6.4 1.5 8.8.9v.3c-7.2 2.5-15.9.5-20.6-4.1-.7-.6-3.3-3.4-4.3-4.6-2.3-2.7-5.3-6.9-7.9-10.1v13.4h-3.7v-26.6c4.1 3.3 8.3 10 11.4 14 0 0 6 8.1 8.5 11 2.1 2.3 5.5 5 7.8 5.8m19-27.2c-3.4-.1-7.7-.6-11.2-.3v8.6c2.9.2 6.2.2 8.9-.1v3.1c-2.6-.2-6.1-.3-8.9-.1v9.3c3.5.3 7.8-.2 11.2-.3v2.9h-17.7v-26h17.8zm18.4 10.4c2 1.7 2.6 3.6 2.1 6.6s-3.6 5.5-6.4 6.1c-4 .9-8.6.5-12.2-1.2v-3.2c3.3 1.5 8.5 3.3 11.7.4.9-.9 1.4-2.1.9-3.3-.7-2.3-6.7-3.7-10.3-6.6-3.6-2.3-3.3-6.4-2-8.6 3.4-5.4 12-3.9 17.4-2.3v3.2c-1.3-.6-2-1-3.3-1.4-1-.2-5.6-1.4-7.7 1-.9 1-1.2 2.8.6 4.2 2.6 1.7 6.2 2.5 9.2 5.1m124.8-13.7c1.7 0 12.8.2 12.9 13.3 0 13-11 13.5-12.9 13.5s-12.9-.5-12.9-13.5c0-13.1 11.2-13.3 12.9-13.3m0 23.1c.7 0 6.1.2 6-10.4 0-9.8-5.2-9.6-6.1-9.6-.8 0-6-.3-6.1 9.6.1 10.7 5.4 10.4 6.2 10.4m16.8.2c.2 0 .5.2.5.7 0 .4 0 .7.2.9h-.6c-.1-.1-.1-.3-.1-.5 0-.6-.1-.9-.7-.9h-.8v1.3h-.6v-3.3h1.6c.7 0 1.1.3 1.1.9-.1.7-.5.9-.6.9m-.6-.2c.4 0 .6-.2.6-.5 0-.4-.3-.5-.6-.5h-.9v1zm-52.9-9.4c2 1.7 2.6 3.6 2.1 6.6s-3.6 5.5-6.4 6.1c-4 .9-8.6.5-12.2-1.2v-3.2c3.3 1.5 8.5 3.3 11.7.4.9-.9 1.4-2.1.9-3.3-.7-2.3-6.7-3.7-10.3-6.6-3.6-2.3-3.3-6.4-2-8.6 3.4-5.4 12-3.9 17.4-2.3v3.2c-1.3-.6-2-1-3.3-1.4-1-.2-5.6-1.4-7.7 1-.9 1-1.2 2.8.6 4.2 2.5 1.7 6.2 2.5 9.2 5.1m52.6 6.5c1.7 0 3.1 1.4 3.1 3.1s-1.4 3.1-3.1 3.1-3.1-1.4-3.1-3.1 1.4-3.1 3.1-3.1m0 5.8c1.5 0 2.8-1.3 2.8-2.8s-1.2-2.8-2.8-2.8c-1.5 0-2.8 1.2-2.8 2.8s1.3 2.8 2.8 2.8m-32.5-12.3c2 1.7 2.6 3.6 2.1 6.6s-3.6 5.5-6.4 6.1c-4.1.9-8.6.5-12.2-1.2v-3.2c3.3 1.5 8.5 3.3 11.7.4.9-.9 1.4-2.1 1-3.3-.7-2.3-6.7-3.7-10.3-6.6-3.6-2.3-3.3-6.4-2-8.6 3.4-5.4 12-3.9 17.4-2.3v3.2c-1.3-.6-2-1-3.3-1.4-1.1-.2-5.6-1.4-7.7 1-.9 1-1.2 2.8.6 4.2 2.5 1.7 6.1 2.5 9.1 5.1m-159 193.2h-3.4v-2.6h10v2.6h-3.4v10.4h-3.2v-10.4zm13.6 3.9c0-4 2.7-6.7 6.9-6.7 4 0 6.7 2.7 6.7 6.6s-2.7 6.7-6.9 6.7c-4 .1-6.7-2.7-6.7-6.6zm10.4 0c0-2.5-1.7-3.9-3.5-3.9-1.9 0-3.5 1.4-3.5 3.8 0 2.6 1.6 3.8 3.6 3.8 1.7.1 3.4-1.2 3.4-3.7zm21.7-6.5h8.2v2.6h-5v2.5h3.5v2.5h-3.5v2.8h5.3v2.6h-8.4v-13zm19.7 6.2v6.7h-3.1v-13.2h.2l8 6.9v-6.7h3.1v13.2h-.2zm17-6.2h3.2v5.1h4.8v-5.1h3.2v13h-3.2v-5.3h-4.8v5.3h-3.2v-13zm24.9-.2h.2l6 13.2h-3.4l-.7-1.8h-4.1l-.7 1.8h-3.3zm1.3 9-1.2-2.9-1.2 2.9zm15.7-2.6v6.7h-3.1v-13.2h.2l8 6.9v-6.7h3.1v13.2h-.2zm16.4.3c0-3.9 2.8-6.7 6.9-6.7 1.6 0 2.8.4 3.6.9v3c-1-.7-2.3-1.1-3.5-1.1-2.2 0-3.8 1.6-3.8 3.8 0 2.4 1.6 3.8 3.9 3.8 1.8 0 3-.7 3.6-1.1v3.1c-.7.5-2.1.8-3.8.8-4.3.2-6.9-2.8-6.9-6.5zm19.3-6.5h8.2v2.6h-5v2.5h3.5v2.5h-3.5v2.8h5.3v2.6h-8.4v-13zm-187.9 32.6h-3.4v-2.6h10v2.6h-3.4v10.4h-3.2zm14.6-2.6h3.2v5.1h4.8v-5.1h3.2v13h-3.2v-5.3h-4.8v5.3h-3.2zm20 0h8.2v2.6h-5v2.5h3.5v2.5h-3.5v2.8h5.3v2.6h-8.4v-13zm38.9 13.9-2.1-1.7c-1.1.7-2.4 1-3.8 1-4.1 0-6.7-2.8-6.7-6.7 0-4 2.7-6.7 6.9-6.7 4 0 6.7 2.7 6.7 6.6 0 1.5-.4 3-1.3 4.1l1.8 1.5zm-5.8-3.6c.4 0 .8 0 1.2-.2l-1.6-1.3 1.5-1.8 2 1.7c.3-.6.4-1.3.4-2.1 0-2.5-1.7-3.9-3.5-3.9-1.9 0-3.5 1.4-3.5 3.8-.1 2.5 1.6 3.8 3.5 3.8zm15-2.6v-7.7h3.2v7.1c0 1.8.1 3.3 2.2 3.3s2.2-1.5 2.2-3.3v-7.1h3.1v7.7c0 4-1.9 5.5-5.3 5.5-3.5 0-5.4-1.5-5.4-5.5zm23.7-7.9h.2l6 13.2h-3.4l-.7-1.8h-4.1l-.7 1.8h-3.3zm1.2 9-1.2-2.9-1.2 2.9zm12.6-8.8h3.2v10.4h5.5v2.6h-8.6v-13zm16.8 0h3.2v13h-3.2zm14.6 2.6h-3.4v-2.6h10v2.6h-3.4v10.4h-3.2zm18.5 5.2-4.6-7.8h3.5l2.8 5.1 2.8-5.1h3.4l-4.7 7.8v5.1h-3.2zm24.2-1.3c0-4 2.7-6.7 6.9-6.7 4 0 6.7 2.7 6.7 6.6s-2.7 6.7-6.9 6.7c-4 .1-6.7-2.7-6.7-6.6zm10.3 0c0-2.5-1.7-3.9-3.5-3.9-1.9 0-3.5 1.4-3.5 3.8 0 2.6 1.6 3.8 3.6 3.8 1.8.1 3.4-1.2 3.4-3.7zm11.6-6.5h8.3v2.6h-5.1v2.8h3.6v2.5h-3.6v5h-3.2zm-194.3 37.8-4.6-7.8h3.5l2.8 5.1 2.8-5.1h3.4l-4.7 7.8v5.1h-3.2zm14.1-1.3c0-4 2.7-6.7 6.9-6.7 4 0 6.7 2.7 6.7 6.6s-2.7 6.7-6.9 6.7c-4.1.1-6.7-2.7-6.7-6.6zm10.3 0c0-2.5-1.7-3.9-3.5-3.9-1.9 0-3.5 1.4-3.5 3.8 0 2.6 1.6 3.8 3.6 3.8 1.8.1 3.4-1.2 3.4-3.7zm11.4 1.2v-7.7h3.2v7.1c0 1.8.1 3.3 2.2 3.3s2.2-1.5 2.2-3.3v-7.1h3.1v7.7c0 4-1.9 5.5-5.3 5.5s-5.4-1.5-5.4-5.5zm29.8 5.3h-3.8l-2.6-4.3h-.8v4.3h-3.2v-13h4.1c2.5 0 5.5.5 5.5 4.3 0 2.2-1.2 3.4-2.4 3.9zm-4.1-8.7c0-1.6-1.2-1.8-2.6-1.8h-.5v3.7h.5c1.5 0 2.6-.4 2.6-1.9zm21.5 2.2c0-3.9 2.8-6.7 6.9-6.7 1.6 0 2.8.4 3.6.9v3c-1-.7-2.3-1.1-3.5-1.1-2.2 0-3.8 1.6-3.8 3.8 0 2.4 1.6 3.8 3.9 3.8 1.8 0 3-.7 3.6-1.1v3.1c-.7.5-2.1.8-3.8.8-4.4.2-6.9-2.8-6.9-6.5zm18.9 0c0-4 2.7-6.7 6.9-6.7 4 0 6.7 2.7 6.7 6.6s-2.7 6.7-6.9 6.7c-4.1.1-6.7-2.7-6.7-6.6zm10.3 0c0-2.5-1.7-3.9-3.5-3.9-1.9 0-3.5 1.4-3.5 3.8 0 2.6 1.6 3.8 3.6 3.8 1.8.1 3.4-1.2 3.4-3.7zm11.5-6.5h8.3v2.6h-5.1v2.8h3.6v2.5h-3.6v5h-3.2zm16.3 0h8.3v2.6h-5.1v2.8h3.6v2.5h-3.6v5h-3.2zm16.3 0h8.2v2.6h-5v2.5h3.5v2.5h-3.5v2.8h5.3v2.6h-8.4v-13zm16.6 0h8.2v2.6h-5v2.5h3.5v2.5h-3.5v2.8h5.3v2.6h-8.4v-13zm-149.8 71h8.2v2.6h-5v2.5h3.5v2.5h-3.5v2.8h5.3v2.6h-8.4v-13zm19.7 6.2v6.7h-3.1v-13.2h.2l8 6.9v-6.7h3.1v13.2h-.2zm28.4.1c0 5.7-4.9 6.6-8.3 6.6h-3v-13h2.8c3.6.1 8.5.7 8.5 6.4zm-3.2 0c0-3.1-2.4-3.8-4.9-3.8v7.9c2.7 0 4.9-1.1 4.9-4.1zm11.5-6.3h8.2v2.6h-5v2.5h3.5v2.5h-3.5v2.8h5.3v2.6h-8.4v-13zm28 6.3c0 5.7-4.9 6.6-8.3 6.6h-3v-13h2.8c3.6.1 8.5.7 8.5 6.4zm-3.3 0c0-3.1-2.4-3.8-4.9-3.8v7.9c2.7 0 4.9-1.1 4.9-4.1zm21.7 1.4v-7.7h3.2v7.1c0 1.8.1 3.3 2.2 3.3s2.2-1.5 2.2-3.3v-7.1h3.1v7.7c0 4-1.9 5.5-5.3 5.5-3.5 0-5.4-1.5-5.4-5.5zm29-3.3c0 4.2-3.8 4.5-5.9 4.5h-.7v4.1h-3.2v-13h4.1c2.5 0 5.7.4 5.7 4.4zm-3.2 0c0-1.8-1.6-1.9-2.9-1.9h-.4v4h.4c1.2 0 2.9-.2 2.9-2.1zm-139.8 25.6h3.2v13h-3.2zm15.3 7.7-.9 5.3h-3.2l2.6-13.2h.2l4.8 7.8 4.8-7.8h.2l2.6 13.2h-3.1l-1-5.3-3.4 5.5h-.2zm28.9-3.3c0 4.2-3.8 4.5-5.9 4.5h-.7v4.1h-3.2v-13h4.1c2.4 0 5.7.4 5.7 4.4zm-3.3 0c0-1.8-1.6-1.9-2.9-1.9h-.4v4h.4c1.2 0 2.9-.2 2.9-2.1zm21.6 8.6h-3.8l-2.6-4.3h-.8v4.3h-3.2v-13h4.1c2.5 0 5.5.5 5.5 4.3 0 2.2-1.2 3.4-2.4 3.9zm-4.1-8.7c0-1.6-1.2-1.8-2.6-1.8h-.5v3.7h.5c1.5 0 2.6-.4 2.6-1.9zm11 2.2c0-4 2.7-6.7 6.9-6.7 4 0 6.7 2.7 6.7 6.6s-2.7 6.7-6.9 6.7c-4 .1-6.7-2.7-6.7-6.6zm10.4 0c0-2.5-1.7-3.9-3.5-3.9-1.9 0-3.5 1.4-3.5 3.8 0 2.6 1.6 3.8 3.6 3.8 1.7.1 3.4-1.2 3.4-3.7zm9.6-6.5h3.5l2.9 6.9 3-6.9h3.4l-6.3 13.1h-.2zm20.5 0h3.2v13h-3.2zm15 6.2v6.7h-3.1v-13.2h.2l8 6.9v-6.7h3.1v13.2h-.2zm16.5.2c0-4 2.8-6.6 6.8-6.6 2.4 0 3.9.9 4.1 1.1v3c-.7-.5-2.2-1.3-3.9-1.3-2 0-3.8 1.3-3.8 3.8 0 2.6 1.6 3.9 3.5 3.9 1.6 0 2.8-.9 2.8-2.4h-3.3v-2.4h6.4v.6c0 4.3-1.5 7.1-6 7.1-4.8 0-6.6-3.6-6.6-6.8zm-141.2 23.4h.2l6 13.2h-3.4l-.7-1.8h-4.1l-.7 1.8h-3.3zm1.3 9-1.2-2.9-1.2 2.9zm22.8-8.8h3.2v10.4h5.5v2.6h-8.6v-13zm15.8 6.5c0-4 2.7-6.7 6.9-6.7 4 0 6.7 2.7 6.7 6.6s-2.7 6.7-6.9 6.7c-4 .1-6.7-2.7-6.7-6.6zm10.4 0c0-2.5-1.7-3.9-3.5-3.9-1.9 0-3.5 1.4-3.5 3.8 0 2.6 1.6 3.8 3.6 3.8 1.8.1 3.4-1.2 3.4-3.7zm13.7-3.9h-3.4v-2.6h10v2.6h-3.4v10.4h-3.2zm27.6 5.1-.9 5.3h-3.2l2.6-13.2h.2l4.8 7.8 4.8-7.8h.2l2.6 13.2h-3.1l-1-5.3-3.4 5.5h-.2zm18.4-1.2c0-4 2.7-6.7 6.9-6.7 4 0 6.7 2.7 6.7 6.6s-2.7 6.7-6.9 6.7c-4 .1-6.7-2.7-6.7-6.6zm10.4 0c0-2.5-1.7-3.9-3.5-3.9-1.9 0-3.5 1.4-3.5 3.8 0 2.6 1.6 3.8 3.6 3.8 1.7.1 3.4-1.2 3.4-3.7zm21.9 6.5h-3.8l-2.6-4.3h-.8v4.3h-3.2v-13h4.1c2.5 0 5.5.5 5.5 4.3 0 2.2-1.2 3.4-2.4 3.9zm-4.1-8.7c0-1.6-1.2-1.8-2.6-1.8h-.5v3.7h.5c1.5 0 2.6-.4 2.6-1.9zm11.9-4.3h8.2v2.6h-5v2.5h3.5v2.5h-3.5v2.8h5.3v2.6h-8.4v-13zm-139.8 72.1h4.6l3.8 8.8 4.6-8.8h.2l4.6 8.8 3.9-8.8h4.4l-8.1 17.1h-.3l-4.7-9-4.7 9h-.3zm36.2 0h10.7v3.3h-6.6v3.3h4.5v3.3h-4.5v3.6h6.9v3.4h-11zm41.3-.2h.3l7.8 17.1h-4.4l-.9-2.3h-5.4l-1 2.3h-4.2zm1.6 11.7-1.6-3.7-1.5 3.7zm29.9 5.4h-5l-3.4-5.6h-1v5.6h-4.1v-16.8h5.3c3.2 0 7.1.7 7.1 5.6 0 2.9-1.5 4.4-3.1 5zm-5.3-11.3c0-2-1.6-2.4-3.4-2.4h-.6v4.9h.6c1.9 0 3.4-.5 3.4-2.5zm15.4-5.6h10.7v3.3h-6.6v3.3h4.5v3.3h-4.5v3.6h6.9v3.4h-11zm-166.4 39.4h-4.5v-3.3h13v3.3h-4.4v13.5h-4.1zm19-3.4h4.1v6.6h6.3v-6.6h4.1v16.9h-4.1v-6.9h-6.3v6.9h-4.1zm25.9 0h10.7v3.3h-6.6v3.3h4.5v3.3h-4.5v3.6h6.9v3.4h-11zm34.2 8.5c0-5.1 3.6-8.7 9-8.7 2.1 0 3.7.5 4.7 1.1v4c-1.4-.9-3-1.4-4.5-1.4-2.9 0-5 2.1-5 5 0 3.2 2.1 5 5 5 2.4 0 3.9-.9 4.7-1.4v4c-.9.6-2.7 1.1-4.9 1.1-5.7-.1-9-3.9-9-8.7zm25-8.5h4.1v6.6h6.3v-6.6h4.1v16.9h-4.1v-6.9h-6.3v6.9h-4.1zm25.3 8.5c0-5.2 3.5-8.7 8.9-8.7 5.3 0 8.8 3.5 8.8 8.6s-3.6 8.7-8.9 8.7c-5.4 0-8.8-3.5-8.8-8.6zm13.4 0c0-3.3-2.2-5-4.6-5-2.5 0-4.6 1.8-4.6 4.9 0 3.3 2.1 5 4.7 5 2.4 0 4.5-1.7 4.5-4.9zm15-8.5h4.1v16.9h-4.1zm14.8 8.5c0-5.1 3.6-8.7 9-8.7 2.1 0 3.7.5 4.7 1.1v4c-1.4-.9-3-1.4-4.5-1.4-2.9 0-5 2.1-5 5 0 3.2 2.1 5 5 5 2.4 0 3.9-.9 4.7-1.4v4c-.9.6-2.7 1.1-4.9 1.1-5.7-.1-9-3.9-9-8.7zm25-8.5h10.7v3.3h-6.6v3.3h4.5v3.3h-4.5v3.6h6.9v3.4h-11zm21.3 16.1v-3.9c1.2.8 2.8 1.5 4.5 1.5 1.3 0 2-.5 2-1.4 0-2.7-6.4-1.8-6.4-7.6 0-3 2-5 5.7-5 1.9 0 3.4.5 4 .8v3.8c-1-.6-2.5-1.2-3.7-1.2s-1.8.6-1.8 1.4c0 2.6 6.4 1.7 6.4 7.4 0 3.2-2.1 5.1-6 5.1-2.2.1-3.8-.4-4.7-.9zm-188 19.9h4.6l3.8 8.8 4.6-8.8h.3l4.6 8.8 3.9-8.8h4.4l-8.1 17.1h-.3l-4.7-9-4.7 9h-.3zm36.3 0h10.7v3.3h-6.6v3.3h4.5v3.3h-4.5v3.6h6.9v3.4h-11zm39.7 10-1.2 6.9h-4.1l3.4-17.1h.3l6.2 10.1 6.2-10.1h.3l3.4 17.1h-4l-1.3-6.9-4.4 7.2h-.3zm31.8-10.2h.3l7.8 17.1h-4.4l-.9-2.3h-5.4l-1 2.3h-4.2zm1.6 11.7-1.6-3.7-1.5 3.7zm16.4-11.5h4.1v8l6.6-8h5.3l-7.1 8.2 7.2 8.6h-5.4l-6.5-8.2v8.2h-4.1v-16.8zm26.1 0h10.7v3.3h-6.6v3.3h4.5v3.3h-4.5v3.6h6.9v3.4h-11zm2.1 97c-3.3 2.5-7.5 4.8-11.7 5.2h-.6c-.5-.1-.6-.3-.6-.7 0-1 .2-1.8.4-3 .1-.6.2-1.8.9-2 .1 0 .2-.1.3-.1.4-.1.8-.3 1.2-.4 2.4-1.1 4.9-2.2 6.7-4.2.8-1 1.1-2.1.1-3.1-2.6-2.7-5.9-.9-8.2 1-1 .8-1.8 1.7-2.4 2.8-.5.8-1 1.7-1.4 2.5-.1.2-.3.3-.5.4-1.6.3-3.2.6-4.7 1.1h-.2v-.1c.1-.6.1-1.3.2-1.9.1-.4.1-.9.2-1.3.3-1.5 1-3.8 3-3.5.2 0 .4 0 .5.2 0 .2-.1.4-.1.7-.1.3.1.6.5.5.1 0 .3-.1.4-.1.3-.1.6-.3.9-.4.3-.2.4-.5.2-.8-.5-.6-1.2-1.2-2-1.3-1.2-.2-2.6.7-3.6 1.2-1.8.9-3.3 2.1-4.9 3.2-.9.6-1.7 1.3-2.6 2-.8.6-1.6 1.2-2.3 1.9-.7.6-1.5 1.2-2.2 1.8l-.1.1c-.1.1-.2.1-.3-.1-.1-.1.2-.7.3-.9.1-.3.2-.6.4-.9.2-.5.5-1.1.7-1.6 1.1-2.8 2.3-5.6 3.7-8.3 1.3-2.5 2.7-5.3 4.6-7.4.3-.3.6-.7.9-1s.6-.3.7-.8c.1-.3.1-.5 0-.8v-.3c0-.6-.3-1.1-.7-1.5-.3-.2-.5-.5-.8-.7-.1-.1-.2-.1-.3 0-1.7 1.1-2.7 2.6-3.8 4.3l-2.4 3.9c-.9 1.6-1.7 3.2-2.5 4.8-.4.8-.8 1.7-1.1 2.5-.4.9-.9 1.4-1.5 2.2-.3.4-.6.7-.9 1s-.6.7-.8 1c-.6.6-1.2 1.3-1.8 1.9-1.6 1.7-3.3 3.3-5 4.9-1.8 1.6-3.5 3.1-5.8 3.9-.2.1-.3.1-.5.1s-.3-.1-.3-.2v-.2c.5-1.5 1-3 1.7-4.4.4-.8.6-1.4 1.4-1.8.9-.4 3.5-1.8 2.6-1.3-.3.2 3.2-1.9 5-3.2 1.6-1.2 2.9-3 1.1-4.7-.3-.3-.7-.5-1-.6-.5-.2-1-.2-1.6-.2-2.9 0-5.1 1.8-7.1 3.6s-3.8 3.9-5.2 6.3c-.9 1.6-1.4 3.4-.7 5.2.5 1.4 1.7 2.6 3.1 3 1.7.5 3.6-.6 5-1.5 2.3-1.6 4.4-3.5 6.4-5.5.5-.6 1.1-1.1 1.6-1.6.6-.6 1.1-1.2 1.7-1.8l.4-.4c0 .2-.1.3-.1.5-.2.6-.5 1.2-.7 1.8-.2.5-.4 1.1-.6 1.6-.1.2-.2.5-.1.7.1 1.1.7 4.9 2.7 3.6 1.8-1.2 2.8-3.1 4.4-4.5.3-.3.7-.6 1.1-.9.7-.5 1.3-1.1 2-1.6.4-.3.7-.7 1.1-1 .3-.3.6-.5.9-.7.2-.1.3-.3.5-.4.3-.3.6-.5.9-.8.4-.3.8-.7 1.3-1 .1-.1.3-.1.4-.2v.3c-.3 1.4-.4 2.8-.4 4.2 0 .2-.1.4-.3.4-.4.1-.8.3-1.2.4-.6.2-1.2.5-1.9.8s-1.3.6-2 1c-.4.2-.8.5-1.2.8-.3.2-.3.3-.1.6 1.4 1.6 4.3 2.3 6.3 2.3.3 0 .7-.1 1-.3s.4-.5.5-.8c.4-1.2.5-2.5.4-3.7 0-.2 0-.3.2-.4.3-.2.6-.3.9-.4.5-.2 1.1-.3 1.7-.5.5-.1 1-.3 1.5-.4.2-.1.5-.1.7-.1-.1.5-.3 1-.4 1.5-.7 3.1 1.1 6.2 3.9 6.8 1.5.3 3.1 0 4.5-.6 1.8-.8 3.4-1.8 4.9-3.1 1.3-1.1 2.7-2.4 3.6-4.1v-.2c-.9-.3-.9-.2-1-.2zm-11-3c.1-.1.1-.2.1-.2.8-1.6 1.6-3.1 2.8-4.3.5-.5 3-2.2 3-.5 0 .4 0 .7-.1 1.1s-.3.7-.5.9c-.7.8-1.5 1.5-2.4 2.1-.4.3-.8.6-1.3.9-.2.1-.3.2-.5.2l-1.5.6c.1-.1.3-.5.4-.8zm-35 1.6v-.3c.8-1 1.7-2.1 2.5-3.1.7-.9 1.4-1.9 2.4-2.5.3-.2.8-.3 1.1-.1.5.2.7.8.4 1.3-.1.2-.3.4-.5.6l-.7.7c-.3.2-.6.5-.9.7-.2.3-4.2 2.9-4.3 2.7zm23 5.5c-.5 0-2.7-.7-2.9-.8 0-.2.2-.2.3-.3.7-.4 1.9-1 2.7-1.1.1.3.1 1.8-.1 2.2zm40.5-13.3c-.2-.9-.6-1.7-1.3-2.3-2.2-1.9-5.4-2.1-8.2-1.6-.8.2-1.5.4-2.3.6-.5.1-.7.3-1.1.5-.3.2-.3.3-.3.7-.1.6-.3 1.5-.1 2.1.5 1.1 4.6-1.2 5.3-1.4 1.5-.6 3.3-1 4.8-.1.2.1.4.3.5.5.1.4.1.9-.1 1.3s-.4.7-.8 1c-.1 0-.1.1-.2.1-.3.3-.7.6-1 .8l-1.8 1.2-.9.6c-.5.3-.9.6-1.4.9-.3.3-.6.6-1 .8-.4.3-.8.7-1.1 1.1-.7.8-1.3 1.8-1.6 2.9l-.3 1.5c-.1.5 0 1 .1 1.4 0 .2.1.3.2.5s.3.3.5.3c.4 0 .7-.3.9-.6 0-.1 0-.2-.1-.3h-.3v-.2c.1-.2.3-.4.4-.6.9-.8 1.8-1.7 2.8-2.3 1.2-.7 2.3-1.4 3.5-2.2.6-.4 1.2-.7 1.7-1.1 1.3-.9 2.5-1.8 3-3.4.3-1 .4-1.9.2-2.7zm-70.9-.6c.5 0 1.1 0 1.6-.1 1.1-.1.2-1.2-.3-1.5-.9-.5-1.9-.9-2.9-1.1-2-.4-4.1-.3-6.1-.4-.2 0-.3 0-.5-.2 0-.2 0-.3.2-.6.8-1.4 1.7-2.9 2.8-4 .2-.2.4-.4.5-.6.2-.4.1-.6-.3-.7h-.2c-.1 0-.2-.1-.3-.1-.2-.1-.4-.2-.7-.2-.9-.2-2.4 2.1-2.7 2.7-.7 1.2-1.3 2.5-2 3.6-.1.2-.3.3-.6.4-.5 0-1.1 0-1.6.1-.7 0-1.4 0-2.2.1-.7.1-1.4.2-2.1.2-.6.1-1.3.2-1.9.2-1 .1-1.9.2-2.9.3-1.1.2-2.3.2-3.4.4-.5 0-1 .1-1.4.2-.7.1-1.4.1-2.1.1-.4 0-1.2.1-1.4-.4-.1-.1-.2-.2-.3-.4-.1-.1-.2-.2-.4-.2v.2c0 .4.1.7 0 1.1 0 .6.1 1.3.4 1.8.2.4.7.4 1.1.6 1.4.4 3.2.2 4.6 0 1.6-.2 3.2-.5 4.7-.6 1.8-.2 3.6-.4 5.4-.7.1 0 1.7-.2 1.7-.1 0 0-1.2 3-1.6 4.2-.5.4-.9.9-1.4 1.3l-.5.5c-.3.3-.7.6-1 1l-.6.6c-.2.2-.3.4-.5.5-.5.6-1.1 1.1-1.6 1.7l-1.8 1.8-.7.7c-.1.1-1 .7-1.1.6-.1 0-.2-.2-.1-.3.8-2 1.6-4.1 2.5-6.1.1-.3 1.1-1.9.9-2.1s-.4-.2-.6-.3c-.5-.2-.9-.3-1.4-.4h-.1c-.2.2-.2.2-.4.6 0 .1-.1.2-.2.3-.1.2-.2.1-.3.1s-.2-.1-.3-.1c-1.5-.8-3.6-.1-5.1.6-1.2.6-2.3 1.2-3.4 2-.6.4-1.3.8-1.9 1.3-.9.7-1.9 1.4-2.8 2.1s-1.7 1.3-2.6 2h-.1v-.2c.9-2.2 2.2-4.3 3-6.5l.3-.9c.1-.4.1-.7 0-1.1-.8-2-4 .7-4.8 1.3-1.1.9-2.1 1.9-3.2 2.9-.8.7-1.5 1.5-2.3 2.3.1-.2.1-.3.2-.5.3-.6.5-.9.7-1.3 2.2-3.9 4.1-8 6.4-11.9l1.2-2.1c.3-.5.6-.9.8-1.4 1-1.6 1.8-3.3 2.8-4.8.5-.8 1-1.6 1.6-2.4.5-.6 1.3-1.6 1.4-2.5 0-.3 0-.3.1-.9 0-.1-.2-.8-.5-1.1l-.6-.6c-.2-.2-.4-.3-.6-.5-.1 0-.2-.1-.3-.1-.1.1-.1.2-.2.3-.4.6-.7 1.1-1.1 1.7-.5.7-1 1.5-1.5 2.2-.4.6-.7 1.2-1.1 1.7-.4.6-.8 1.2-1.1 1.8-.4.7-.9 1.4-1.3 2.2-.2.3-.3.5-.5.8-.5.9-1 1.7-1.5 2.6l-2.1 3.6c-.8 1.5-1.6 3.1-2.4 4.6-.6 1-1 1-2.1 1.5-.8.3-1.1.6-1.9.9-.5.2-1 .3-1.5.5-.1 0-.3.1-.5 0v-.1l.3-.6c.7-1.2-1.9-.5-1.9-.6 0 .5-.1.9-.2 1.3 0 .2-.1.3-.2.5-.3.5-.5 1-.8 1.4-.5.8-1 1.5-1.5 2.3-.4.6-.7 1.1-1.1 1.7-.3.4-.5.9-.8 1.3-.1.1-.2.3-.3.4-.2.3-.3.6-.5.8-.1.1-.2.3-.3.4-.2.3-.4.6-.7.9l-.2.2c.2-1.6.6-3.3.9-4.9.2-.8.4-1.5.6-2.3.2-.6.2-1.2.5-1.7.2-.4.4-.7 0-1-.5-.3-1-.1-1.5-.2-.1.1-.3.1-.4.2v.1c.1.3 0 .5-.2.8-.7.8-1.4 1.5-2 2.3-.7.7-1.3 1.5-1.9 2.3-.7.9-1.4 1.8-2.1 2.6-.4.5-.8 1-1.2 1.4-.2.2-.3.4-.5.6l-.1.1c.3-1 1-2 1.4-3 .5-1.1 1-2.2 1.5-3.4.4-.9.8-1.9 1.1-2.8.3-.8.6-1.7 1-2.4v-.1c0-.4-.1-.7-.2-1.1-.1-.2-.2-.4-.3-.7-.2-.4-.4-.7-.7-1.1s-.4-.9-.9-1h-1.1c-.1.3-.3.5-.5.6-.7.5-1.5 1-2.2 1.6-.6.4-1.2.9-1.8 1.3l-2.7 2.1c-.8.6-1.5 1.2-2.3 1.7-1.1.8-2.2 1.7-3.3 2.4-.6.4-1.1.8-1.7 1.2 0 0-.1 0-.1.1-.5.4-1 .8-1.6 1.1l-.9.6c-.1.1-.3.2-.4.3s-.3.2-.4.3c-.5.3-1 .7-1.5 1-.4.2-.7.5-1.1.7-.6.4-1.1.7-1.7 1.1-1 .6-2 1.1-2.9 1.7-1.1.6-2.2 1.2-3.3 1.7-.6.3-1.1.5-1.7.6-.3.1-.5 0-.7-.1-.2-.2-.4-.2-.7-.2h-.5c-.1 0-.2 0-.4.1 0 .4.2.8.6 1.1 1.6 1.1 3.4.4 5-.4 2.1-1.1 4.2-2.2 6.2-3.5 3.3-2.1 6.5-4.5 9.6-6.9 1.5-1.2 3.1-2.5 4.6-3.8 1.4-1.2 2.8-2.6 4.5-3.5h.1c0 .1-.1.2-.1.3-.2.4-.5.8-.7 1.2-.3.5-.6 1-.9 1.6-.3.5-.5.9-.7 1.4-.3.5-.5 1-.8 1.5-.6 1.2-1.2 2.3-1.7 3.5-.3.6-.5 1.3-.8 1.9-.6 1.7.4 2.9 1.4 4.1.6.8 2.1 2.2 2.9 1.1.7-.9 1.6-1.9 2.4-2.8.7-1 1.4-1.8 2.1-2.8.6-.9.9-1.5 1.5-2.3.3-.4.6-.9 1-1.4s1-1.2 1.4-1.7l.1-.1c-.1.3-.1.5-.2.8-.1.4-.3.9-.4 1.3 0 .1-.1.2-.1.3-.3.7-.5 1.4-.8 2.1-.2.5-.3 1.1-.5 1.6-.2.7-.4 1.5-.5 2.2v.9c0 .6.3 1.2.8 1.8s1.3 1.2 2.1.6c.6-.5 1.1-1.3 1.5-2 .5-.8.9-1.6 1.3-2.4l2.4-4.8c.3-.5.6-1.1.9-1.6.4-.7.8-1.5 1.2-2.2.1-.1.2-.2.2-.3h.3c.8.1 1.6 0 2.4-.4.6-.3 1.3-.6 2-.8.1-.1-.5 1-.8 1.5-.5.8-.9 1.8-1.3 2.6-.9 1.6-1.5 3.1-2.4 4.7l-1.2 2.1c-.2.4-.5.9-.7 1.3l-1.5 3.3c-.4 1 0 2.1.6 2.9.5.6.6 1.3 1.5 1.1.9-.3 1-1 1.5-1.7.3-.4.6-.9.9-1.4 1.5-2.2 2.9-4.5 4.4-6.8 1.4-2.1 3-4 4.6-5.9.4-.5.9-1 1.5-1.5.5-.4.9-.9 1.4-1.3.5-.5 1.1-.9 1.6-1.4 0 0 .1 0 .1-.1 0 .2-.1.4-.2.5-.4.8-.7 1.5-1.1 2.3-.5 1-1 2.1-1.5 3.1-.3.6-.6 1.2-.7 1.9s.3 1.7.9 2.1 1.3.1 1.9-.3c.2-.1.4-.2.6-.4.3-.2.6-.5.9-.7.2-.1.3-.3.5-.5.3-.3.6-.5.9-.8.5-.5 1-1 1.6-1.4l.7-.7.2-.2c.2-.2.4-.3.6-.5s.4-.3.6-.5l-1.2 1.5c-.2.3-.4.6-.5.8-.4.7-.4 1.7-.1 2.4.8 1.7 2.9.1 3.9-.5.9-.6 1.8-1.2 2.6-2 .1-.1.1-.1.2-.1.2 0-.4 1.8-.5 2l-.3 1.2c-.2 1.5 1.7 3.7 3.2 3 1.2-.5 2-1.6 2.8-2.6.7-.8 1.4-1.6 2-2.4 1.4-1.7 2.8-3.4 4.3-5l.1-.1c-.1.3-.3.7-.4 1-.2.5-.5 1-.7 1.5-.1.4-.3.7-.4 1.1-.7 2.1-1.4 4.3-1.6 6.5-.1.9-.2 1.8 0 2.7s.8 1.7 1.6 2.2c.9.6 1.6.3 2.3-.4.1-.1.2-.3.4-.5 0-.1.1-.1.1-.2.1-.2 0-.4-.2-.5-.1-.1-.3-.1-.4.1l-.2.2c-.2.2-.4.4-.6.5s-.3.1-.4-.1c-.2-.3-.3-.6-.3-1-.1-1.5.3-2.8.7-4.2.4-1.5.8-2.9 1.3-4.3.6-1.9 1.4-3.9 2.1-5.7l1.2-2.7c.4-.9.7-1.9 1.3-2.7.4-.8 1.9-.7 2.6-.7 1.3 0 2.5 0 3.8.1 1.9.7 3 .7 4.2.7zm-24.4 5.9c-.2.2-.4.4-.6.7-.4.4-.8.8-1.2 1.1-.4.4-.8.7-1.2 1.1-.2.2-.5.4-.7.6-.7.6-1.4 1.2-2.2 1.7-.7.5-2.2 1.7-3.1 1.5.2-1.3 1.6-2.9 2.5-3.9 1.3-1.5 3.1-3.2 5.2-3.2.1.1 1.5.2 1.3.4zm84.8 12.4c-.1 0-.1.1-.2.2 0-.4-.1-.8-.3-1.1-1.5-2.7-4.8 3.1-1.4 2.9.9 0 1.8-.9 1.9-1.8.1-.1.1-.2 0-.2zm-115.3 46.1c0 4-3.1 4.7-5.7 4.7h-1.8v-9.1h1.8c2.6-.1 5.7.4 5.7 4.4zm-1.3 0c0-2.9-2-3.3-4.5-3.3h-.4v6.8h.4c2.5 0 4.5-.7 4.5-3.5zm7.5-4.5h1.3v9.1h-1.3zm7.5 8.7v-1.3c.5.4 1.4.7 2.4.7 1.1 0 1.7-.4 1.7-1.3 0-2-4-1.4-4-4.3 0-1.6 1.1-2.5 2.8-2.5.9 0 1.7.3 2.1.4v1.3c-.5-.4-1.3-.6-2-.6-.9 0-1.6.5-1.6 1.3 0 2 4 1.2 4 4.3 0 1.7-1.1 2.6-3 2.6-1 0-1.8-.3-2.4-.6zm11-4.1c0-2.7 1.7-4.7 4.6-4.7 1.2 0 2.2.3 2.6.7v1.3c-.7-.5-1.6-.8-2.5-.8-2 0-3.3 1.4-3.3 3.5 0 2.2 1.4 3.5 3.4 3.5 1.1 0 2-.4 2.5-.8v1.3c-.4.3-1.4.6-2.7.6-2.9.1-4.6-1.9-4.6-4.6zm13 0c0-2.7 1.7-4.7 4.6-4.7s4.5 2 4.5 4.6c0 2.7-1.7 4.7-4.6 4.7-2.9.1-4.5-2-4.5-4.6zm7.7-.1c0-2-1.3-3.4-3.2-3.4s-3.2 1.4-3.2 3.4 1.3 3.5 3.2 3.5 3.2-1.4 3.2-3.5zm6.1-4.5h1.4l2.9 6.5 2.9-6.5h1.4l-4.2 9.2h-.1zm14.2 0h5.4v1.1h-4v2.8h3v1.1h-3v2.9h4.2v1.1h-5.5v-9zm18.2 9.1h-1.6l-2.1-3.3h-1.8v3.3h-1.3v-9.1h2.8c1.9 0 3.6.6 3.6 2.9 0 1.6-.9 2.4-1.9 2.7zm-1.8-6.2c0-1.5-1.3-1.8-2.4-1.8h-1.3v3.5h1.3c1.2.1 2.4-.2 2.4-1.7zm-47.2 43.9 3.8-1.8-3.8-1.9v-1.3l5.8 3v.1l-5.8 3zm-90 17.2h1.3v3.9h4.8v-3.9h1.3v9.1h-1.3v-4h-4.8v4h-1.3zm13.9 5.5v-5.4h1.3v5.1c0 1.9.5 2.9 2.2 2.9 1.6 0 2.2-1 2.2-2.9v-5.1h1.4v5.4c0 2.7-1.2 3.8-3.5 3.8-2.5 0-3.6-1.3-3.6-3.8zm15.1-2.1-1 5.7h-1.3l1.8-9.2h.1l3.2 6.8 3.2-6.8h.1l1.8 9.2h-1.3l-1.1-5.7-2.8 5.8h-.1zm20.5 3.2c0 2.2-2.1 2.5-3.5 2.5h-3v-9.1h2.3c1.8 0 3.6.3 3.6 2.4 0 1.1-.6 1.7-1.2 1.8.8.3 1.8.8 1.8 2.4zm-4.2-5.5h-.9v2.8h1c1.1 0 2.3-.1 2.3-1.4-.1-1.3-1.3-1.4-2.4-1.4zm2.8 5.4c0-1.2-1-1.5-2.2-1.5h-1.6v3h1.6c1.2 0 2.2-.3 2.2-1.5zm7.4-6.5h5.4v1.1h-4v2.8h3v1.1h-3v2.9h4.2v1.1h-5.5v-9zm18.1 9.1h-1.6l-2.1-3.3h-1.8v3.3h-1.3v-9.1h2.8c1.9 0 3.6.6 3.6 2.9 0 1.6-.9 2.4-1.9 2.7zm-1.7-6.2c0-1.5-1.3-1.8-2.4-1.8h-1.3v3.5h1.3c1.2.1 2.4-.2 2.4-1.7zm9.3-1.7h-2.6v-1.1h6.6v1.1h-2.6v8h-1.3v-8zm9 3.4c0-2.7 1.7-4.7 4.6-4.7s4.5 2 4.5 4.6c0 2.7-1.7 4.7-4.6 4.7-2.9.1-4.5-2-4.5-4.6zm7.7-.1c0-2-1.3-3.4-3.2-3.4s-3.2 1.4-3.2 3.4 1.3 3.5 3.2 3.5c2 0 3.2-1.4 3.2-3.5zm8.8-3.4c0 .7-.4 1.6-1.1 2.1h-.8c.6-.5.9-1.2.9-1.6-.5 0-.8-.3-.8-.8s.4-.9.9-.9c.5.1.9.4.9 1.2zm5.8 7.6v-1.3c.5.4 1.4.7 2.4.7 1.1 0 1.7-.4 1.7-1.3 0-2-4-1.4-4-4.3 0-1.6 1.1-2.5 2.8-2.5.9 0 1.7.3 2.1.4v1.3c-.5-.4-1.3-.6-2-.6-.9 0-1.6.5-1.6 1.3 0 2 4 1.2 4 4.3 0 1.7-1.1 2.6-3 2.6-1.1 0-1.9-.3-2.4-.6zm18.2 0v-1.3c.5.4 1.4.7 2.4.7 1.1 0 1.7-.4 1.7-1.3 0-2-4-1.4-4-4.3 0-1.6 1.1-2.5 2.8-2.5.9 0 1.7.3 2.1.4v1.3c-.5-.4-1.3-.6-2-.6-.9 0-1.6.5-1.6 1.3 0 2 4 1.2 4 4.3 0 1.7-1.1 2.6-3 2.6-1 0-1.9-.3-2.4-.6zm13.3-7.5h-2.6v-1.1h6.6v1.1h-2.6v8h-1.4zm9 3.4c0-2.7 1.7-4.7 4.6-4.7s4.5 2 4.5 4.6c0 2.7-1.7 4.7-4.6 4.7-2.9.1-4.5-2-4.5-4.6zm7.7-.1c0-2-1.3-3.4-3.2-3.4s-3.2 1.4-3.2 3.4 1.3 3.5 3.2 3.5c2 0 3.2-1.4 3.2-3.5zm14.2 4.6h-1.6l-2.1-3.3h-1.8v3.3h-1.3v-9.1h2.8c1.9 0 3.6.6 3.6 2.9 0 1.6-.9 2.4-1.9 2.7zm-1.7-6.2c0-1.5-1.3-1.8-2.4-1.8h-1.3v3.5h1.3c1.2.1 2.4-.2 2.4-1.7zm9.5 2.6-3.2-5.5h1.4l2.5 4.3 2.5-4.3h1.4l-3.2 5.5v3.6h-1.3v-3.6z" fill="#fff"/></svg>