<svg xmlns="http://www.w3.org/2000/svg" viewBox="0 0 320 50"><defs><style>.cls-1{fill:#016c42;}.cls-2{fill:none;}</style></defs><title>cta-fom</title><g id="Layer_2" data-name="Layer 2"><g id="layer_1-2" data-name="layer 1"><path class="cls-1" d="M133.07,20.26v3.07h4.47V25h-4.47v4.67h-2V18.46h7.32v1.8Z"/><path class="cls-1" d="M139.69,18.61a1.27,1.27,0,1,1,2.53,0,1.27,1.27,0,0,1-2.53,0ZM142,29.67h-2V21.15h2Z"/><path class="cls-1" d="M152,24.23v5.44h-2v-5a1.69,1.69,0,0,0-1.76-1.92A2.79,2.79,0,0,0,146,23.89v5.78h-2V21.15h2v1.09A4,4,0,0,1,149,21C151,21,152,22.24,152,24.23Z"/><path class="cls-1" d="M162.06,17.82V29.67h-2v-.91a3.76,3.76,0,0,1-2.6,1.07c-2.21,0-4-1.52-4-4.42s1.87-4.42,4-4.42a3.65,3.65,0,0,1,2.56,1V17.82Zm-2,9.1v-3a2.76,2.76,0,0,0-2.22-1.19,2.42,2.42,0,0,0-2.37,2.69,2.42,2.42,0,0,0,2.35,2.69A2.64,2.64,0,0,0,160.09,26.92Z"/><path class="cls-1" d="M168.14,25.41a4.46,4.46,0,0,1,8.92,0,4.46,4.46,0,0,1-8.92,0Zm6.91,0a2.46,2.46,0,1,0-4.89,0,2.46,2.46,0,1,0,4.89,0Z"/><path class="cls-1" d="M186.51,21.15v8.52h-2V28.58a4.09,4.09,0,0,1-3,1.25c-2,0-3-1.25-3-3.23V21.15h2v5c0,1.18.59,1.94,1.76,1.94a2.81,2.81,0,0,0,2.22-1.12V21.15Z"/><path class="cls-1" d="M194.46,29.29a3.91,3.91,0,0,1-2.11.54c-1.84,0-2.93-1.09-2.93-3.28V22.66h-1.55V21.15h1.55V19.44l2-.46v2.17h3v1.51h-3v3.9A1.3,1.3,0,0,0,192.75,28a2.56,2.56,0,0,0,1.42-.45Z"/><path class="cls-1" d="M212.62,23.68v6h-2V24.26c0-.9-.35-1.46-1.26-1.46a2.34,2.34,0,0,0-1.88,1.08v5.79h-2V24.26c0-.9-.35-1.46-1.28-1.46a2.32,2.32,0,0,0-1.86,1.08v5.79h-2V21.15h2v1.06A3.38,3.38,0,0,1,205,21a2.3,2.3,0,0,1,2.32,1.44A3.53,3.53,0,0,1,210.1,21,2.38,2.38,0,0,1,212.62,23.68Z"/><path class="cls-1" d="M214.11,25.41a4.46,4.46,0,0,1,8.91,0,4.46,4.46,0,0,1-8.91,0Zm6.91,0a2.46,2.46,0,1,0-4.9,0,2.46,2.46,0,1,0,4.9,0Z"/><path class="cls-1" d="M230.49,21.36l-.27,1.83a2.86,2.86,0,0,0-1.42-.36,2.63,2.63,0,0,0-2.26,1.38v5.46h-2V21.15h2v1.16a3,3,0,0,1,4-.95Z"/><path class="cls-1" d="M238.86,26.05h-6a2.37,2.37,0,0,0,2.55,2.05,5.29,5.29,0,0,0,2.88-.8L238.4,29a6.29,6.29,0,0,1-3.14.79,4.16,4.16,0,0,1-4.43-4.39A4.34,4.34,0,0,1,235.25,21a3.45,3.45,0,0,1,3.79,3.7A5,5,0,0,1,238.86,26.05Zm-1.69-1.6a1.74,1.74,0,0,0-1.88-1.84,2.44,2.44,0,0,0-2.4,2.08h4.24A.86.86,0,0,0,237.17,24.45Z"/><rect class="cls-2" width="320" height="50"/></g></g></svg>