<svg xmlns="http://www.w3.org/2000/svg" viewBox="0 0 320 50"><defs><style>.cls-1{fill:#016c42;}.cls-2{fill:none;}</style></defs><title>ctaarrow</title><g id="Layer_2" data-name="Layer 2"><g id="Layer_1-2" data-name="Layer 1"><g id="ctaarrow"><path class="cls-1" d="M265.15,26a.83.83,0,0,1-.6-.25l-6.3-6.3a.85.85,0,0,1,1.2-1.2l6.3,6.3a.85.85,0,0,1,0,1.2A.82.82,0,0,1,265.15,26Z"/><path class="cls-1" d="M258.85,32.3a.82.82,0,0,1-.6-.25.85.85,0,0,1,0-1.2l6.3-6.3a.85.85,0,0,1,1.2,1.2l-6.3,6.3A.83.83,0,0,1,258.85,32.3Z"/><rect class="cls-2" width="320" height="50"/></g></g></g></svg>