<svg xmlns="http://www.w3.org/2000/svg" xmlns:xlink="http://www.w3.org/1999/xlink" viewBox="0 0 155 37.16"><defs><style>.cls-1{fill:none;}.cls-2{fill:#1d1d1b;}.cls-3{clip-path:url(#clip-path);}</style><clipPath id="clip-path" transform="translate(0 0)"><rect class="cls-1" x="0.03" width="154.97" height="37.16"/></clipPath></defs><title>kenzo</title><g id="Layer_2" data-name="Layer 2"><g id="Layer_1-2" data-name="Layer 1"><g id="kenzo"><polygon class="cls-2" points="29.4 35.99 30.58 35.99 30.58 1.18 29.4 1.18 29.4 35.99 29.4 35.99"/><polygon class="cls-2" points="34.11 35.99 35.29 35.99 35.29 1.18 34.11 1.18 34.11 35.99 34.11 35.99"/><polygon class="cls-2" points="31.76 35.99 32.94 35.99 32.94 1.18 31.76 1.18 31.76 35.99 31.76 35.99"/><polygon class="cls-2" points="36.95 35.99 52.55 35.99 52.55 34.81 36.95 34.81 36.95 35.99 36.95 35.99"/><polygon class="cls-2" points="36.95 31.28 52.55 31.28 52.55 30.1 36.95 30.1 36.95 31.28 36.95 31.28"/><polygon class="cls-2" points="36.95 33.63 52.55 33.63 52.55 32.45 36.95 32.45 36.95 33.63 36.95 33.63"/><polygon class="cls-2" points="36.95 20.94 51.65 20.94 51.65 19.76 36.95 19.76 36.95 20.94 36.95 20.94"/><polygon class="cls-2" points="36.95 16.23 51.65 16.23 51.65 15.05 36.95 15.05 36.95 16.23 36.95 16.23"/><polygon class="cls-2" points="36.95 18.58 51.65 18.58 51.65 17.41 36.95 17.41 36.95 18.58 36.95 18.58"/><polygon class="cls-2" points="36.95 7.07 52.55 7.07 52.55 5.89 36.95 5.89 36.95 7.07 36.95 7.07"/><polygon class="cls-2" points="36.95 2.36 52.55 2.36 52.55 1.18 36.95 1.18 36.95 2.36 36.95 2.36"/><g class="cls-3"><polygon class="cls-2" points="36.95 4.71 52.55 4.71 52.55 3.53 36.95 3.53 36.95 4.71 36.95 4.71"/><polygon class="cls-2" points="0 35.99 1.18 35.99 1.18 1.18 0 1.18 0 35.99 0 35.99"/></g><polygon class="cls-2" points="4.71 35.99 5.89 35.99 5.89 1.18 4.71 1.18 4.71 35.99 4.71 35.99"/><polygon class="cls-2" points="2.35 35.99 3.53 35.99 3.53 1.18 2.35 1.18 2.35 35.99 2.35 35.99"/><path class="cls-2" d="M11.68,17.23,24.75,4.16l-.84-.83L10,17.23l.75.75h0L25.43,32.64l.83-.84L11.68,17.23Zm-2.5-.83L23.08,2.5l-.83-.83L8.35,15.56l.83.84ZM7.52,14.73,21.42.83,20.58,0,6.69,13.9l.83.83Zm.84,5.84-.84.83L22.09,36l.84-.83L8.36,20.57Zm.83-.84L23.76,34.3l.83-.83L10,18.9l-.83.83Z" transform="translate(0 0)"/><polygon class="cls-2" points="63.14 5.68 78.6 31.88 79.62 31.29 64.15 5.08 63.14 5.68 63.14 5.68"/><polygon class="cls-2" points="56.17 35.99 57.35 35.99 57.35 1.18 56.17 1.18 56.17 35.99 56.17 35.99"/><polygon class="cls-2" points="60.88 35.99 62.06 35.99 62.06 1.18 60.88 1.18 60.88 35.99 60.88 35.99"/><polygon class="cls-2" points="58.53 35.99 59.71 35.99 59.71 1.18 58.53 1.18 58.53 35.99 58.53 35.99"/><polygon class="cls-2" points="80.75 35.99 81.93 35.99 81.93 1.18 80.75 1.18 80.75 35.99 80.75 35.99"/><polygon class="cls-2" points="85.46 35.99 86.64 35.99 86.64 1.18 85.46 1.18 85.46 35.99 85.46 35.99"/><polygon class="cls-2" points="83.1 35.99 84.28 35.99 84.28 1.18 83.1 1.18 83.1 35.99 83.1 35.99"/><polygon class="cls-2" points="89.93 35.99 117.65 35.99 117.65 34.81 89.93 34.81 89.93 35.99 89.93 35.99"/><polygon class="cls-2" points="89.93 31.28 117.65 31.28 117.65 30.1 89.93 30.1 89.93 31.28 89.93 31.28"/><polygon class="cls-2" points="89.93 33.63 117.65 33.63 117.65 32.45 89.93 32.45 89.93 33.63 89.93 33.63"/><path class="cls-2" d="M113.43,12.33l-.83-.83L95.92,28.18l.83.83,16.68-16.68Zm-18.34,15,16.68-16.68-.84-.83L94.26,26.51l.83.83Zm-1.67-1.66L110.1,9l-.83-.83L92.59,24.84l.83.84Z" transform="translate(0 0)"/><polygon class="cls-2" points="89.93 7.07 117.65 7.07 117.65 5.89 89.93 5.89 89.93 7.07 89.93 7.07"/><polygon class="cls-2" points="89.93 2.36 117.65 2.36 117.65 1.18 89.93 1.18 89.93 2.36 89.93 2.36"/><polygon class="cls-2" points="89.93 4.71 117.65 4.71 117.65 3.53 89.93 3.53 89.93 4.71 89.93 4.71"/><path class="cls-2" d="M155,18.58a18.58,18.58,0,1,0-18.58,18.58A18.58,18.58,0,0,0,155,18.58m-1.14,0A17.44,17.44,0,1,1,136.42,1.14a17.44,17.44,0,0,1,17.44,17.44" transform="translate(0 0)"/><path class="cls-2" d="M152.6,18.58a16.19,16.19,0,1,0-16.18,16.19A16.17,16.17,0,0,0,152.6,18.58m-1.21,0a15,15,0,1,1-15-15,15,15,0,0,1,15,15" transform="translate(0 0)"/><path class="cls-2" d="M150.17,18.58a13.76,13.76,0,1,0-13.75,13.76,13.76,13.76,0,0,0,13.75-13.76m-1.22,0A12.54,12.54,0,1,1,136.42,6.05,12.54,12.54,0,0,1,149,18.58" transform="translate(0 0)"/><path class="cls-2" d="M128.49,16.79l.29.08c.76.2,1.48.05,1.71-.79s-.07-1.26-1.3-1.59l-.57-.15-1.07,4,.49.13.45-1.67Zm.51-1.88.13,0c.49.13,1.06.36.9,1s-.75.58-1.26.45l-.16-.05.39-1.43Zm4.41,3.92L133.6,20l.53.14-.79-4.67-3,3.65.53.14.73-.87,1.83.49Zm-.09-.51-1.41-.38,1.14-1.43.27,1.81Zm3.83.72a1.13,1.13,0,0,0,1.26-.86,1.14,1.14,0,0,0-.27-1.09,2.09,2.09,0,0,0-1-.47l-.6-.16-1.07,4,.5.13.45-1.69.21.06.72,2,.61.16-.8-2.07Zm-.24-2,.13,0c.49.13,1.06.38.9,1s-.75.58-1.26.44l-.16,0,.39-1.44Zm4.2.64-.5-.13-1.07,4,.5.14,1.07-4Zm3.94,1.62a1.18,1.18,0,0,0-.87-.88,1.12,1.12,0,0,0-1.45.71c-.15.56.19.93.6,1.25l.24.19c.31.23.6.51.49.94a.78.78,0,0,1-.95.58.77.77,0,0,1-.57-1l-.53,0a1.29,1.29,0,0,0,.94,1.45,1.27,1.27,0,0,0,1.6-.91,1.3,1.3,0,0,0-.66-1.46l-.26-.19c-.22-.16-.49-.41-.4-.72a.65.65,0,0,1,.82-.39.72.72,0,0,1,.54.55l.46-.13Z" transform="translate(0 0)"/></g></g></g></svg>