<svg xmlns="http://www.w3.org/2000/svg" viewBox="0 0 90 34.82"><defs><style>.cls-1{fill:#009452;}.cls-2{fill:#fff;}</style></defs><title>Asset 6</title><g id="Layer_2" data-name="Layer 2"><g id="Layer_1-2" data-name="Layer 1"><path class="cls-1" d="M64.46,0C56.63,0,49.63,2.43,45,6.22,40.27,2.47,33.28.1,25.47.11,11.38.14,0,7.94,0,17.52s11.45,17.33,25.54,17.3c7.83,0,14.83-2.43,19.5-6.22h0c4.69,3.75,11.68,6.12,19.49,6.11C78.62,34.68,90,26.88,90,17.3S78.55,0,64.46,0Z"/><path class="cls-2" d="M15.75,20.61a4,4,0,0,1-3.32,1.23h0a11.17,11.17,0,0,1-2.7-.27.28.28,0,0,1-.24-.24V20.22A.24.24,0,0,1,9.74,20c.62.08,2.17.15,2.72.15,1.31,0,1.84-.43,1.84-1.46,0-.67-.34-1-1.34-1.58l-2-1.22a3,3,0,0,1-1.78-2.77A2.51,2.51,0,0,1,10.1,11a4.53,4.53,0,0,1,2.81-.73,17.76,17.76,0,0,1,2.93.27.25.25,0,0,1,.22.23v1.14a.2.2,0,0,1-.21.21c-1.14-.1-2.13-.15-3-.15-1.12,0-1.67.4-1.67,1.18,0,.55.28.87,1.29,1.43l1.84,1a3.33,3.33,0,0,1,2.11,3.09A3.11,3.11,0,0,1,15.75,20.61Z"/><path class="cls-2" d="M22.48,16.81V18c0,1.07-.19,2.31-1.73,2.31a13.78,13.78,0,0,1-1.48-.1l-.09,0V14.64l.08,0a9.18,9.18,0,0,1,1.49-.11C22.28,14.5,22.48,15.74,22.48,16.81Zm1.83,0c0-2.48-1.24-3.79-3.57-3.78a12.85,12.85,0,0,0-3.06.4c-.33.09-.34.16-.34.33l0,10.78a.21.21,0,0,0,.21.21H19a.21.21,0,0,0,.21-.22V21.68l.1,0a13.27,13.27,0,0,0,1.46.1c2.34,0,3.57-1.32,3.56-3.8Z"/><path class="cls-2" d="M30.51,16.58v.16H27.06v-.16a1.77,1.77,0,0,1,1.74-2C29.83,14.58,30.5,15.36,30.51,16.58Zm1.84.26C32.35,14.47,31,13,28.79,13s-3.58,1.44-3.57,3.85V18a3.46,3.46,0,0,0,3.62,3.78,13.4,13.4,0,0,0,3-.26c.22,0,.24-.1.24-.31v-1c0-.13-.13-.14-.18-.14h-.05c-.68.07-1.73.16-2.82.16a1.85,1.85,0,0,1-1.94-2.06V18h5.09c.11,0,.22,0,.22-.29Z"/><path class="cls-2" d="M39,14.5c0,.12-.11.14-.21.14a12.8,12.8,0,0,0-2-.1c-.59,0-1.57.27-1.56,2.12v1.45c0,1.84,1,2.12,1.57,2.12a15.26,15.26,0,0,0,2-.11h0c.07,0,.18,0,.18.14v1c0,.2,0,.25-.25.31a9,9,0,0,1-1.95.2c-2.13,0-3.41-1.37-3.41-3.66V16.67c0-2.3,1.26-3.67,3.39-3.68a7.79,7.79,0,0,1,2,.2c.22.05.25.11.25.31Z"/><path class="cls-2" d="M43,21.75a12,12,0,0,1-2.72-.3.24.24,0,0,1-.22-.26v-.93a.16.16,0,0,1,.16-.15h0c.73.09,2.11.17,2.59.17,1,0,1.18-.41,1.18-.85s-.23-.56-.72-.87l-2.11-1.29A2.48,2.48,0,0,1,40,15.21c0-1.49.92-2.22,2.81-2.23a9.92,9.92,0,0,1,2.56.29.23.23,0,0,1,.2.26v.89c0,.14-.06.2-.15.2h-.05a21.26,21.26,0,0,0-2.4-.16c-.57,0-1.15.09-1.15.75,0,.32.31.5.66.72l2,1.23a2.38,2.38,0,0,1,1.43,2.27C45.92,20.86,44.81,21.75,43,21.75Z"/><path class="cls-2" d="M61.38,13.28l-1.92,7.06a1.72,1.72,0,0,1-1.82,1.38,1.7,1.7,0,0,1-1.81-1.38s-1.95-7-2-7.06v-.06a.14.14,0,0,1,.15-.15h1.53c.1,0,.18.09.22.24l1.48,6.48c.07.31.19.47.39.47s.32-.16.38-.47l1.46-6.49a.26.26,0,0,1,.22-.24h1.54a.15.15,0,0,1,.15.15Z"/><path class="cls-2" d="M74.17,14.24a.22.22,0,0,1-.22.21,4.37,4.37,0,0,0-2.16.57l-.05,0,0,6.29a.23.23,0,0,1-.21.23H70.13a.22.22,0,0,1-.21-.23v-8.1a.21.21,0,0,1,.21-.22h1.33a.21.21,0,0,1,.21.21v.53l.16-.12A3.42,3.42,0,0,1,74,12.91a.21.21,0,0,1,.21.21Z"/><path class="cls-2" d="M77.94,21.68a12.61,12.61,0,0,1-2.72-.3.25.25,0,0,1-.22-.26v-.93a.16.16,0,0,1,.16-.15h0c.74.09,2.11.16,2.59.16,1,0,1.18-.4,1.18-.84s-.24-.57-.72-.87l-2.11-1.3a2.46,2.46,0,0,1-1.24-2.05c0-1.5.92-2.23,2.81-2.23a10.44,10.44,0,0,1,2.56.28.25.25,0,0,1,.21.27v.89c0,.14,0,.2-.15.2h0a19,19,0,0,0-2.4-.16c-.57,0-1.15.09-1.15.75,0,.31.31.5.66.71l2,1.24a2.38,2.38,0,0,1,1.43,2.27C80.84,20.79,79.73,21.68,77.94,21.68Z"/><path class="cls-2" d="M68.82,17.63c0,.26-.1.29-.21.29h-5.1v.15a1.84,1.84,0,0,0,1.94,2.05c1.09,0,2.14-.09,2.82-.15h0c.05,0,.18,0,.18.14v1c0,.22,0,.27-.24.31a14,14,0,0,1-3,.27,3.47,3.47,0,0,1-3.62-3.78V16.78c0-2.4,1.33-3.84,3.57-3.85s3.56,1.47,3.56,3.83Zm-3.56-3.12a1.76,1.76,0,0,0-1.74,2v.16H67V16.5C67,15.29,66.29,14.5,65.26,14.51Z"/><path class="cls-2" d="M53.4,21.4a.21.21,0,0,1-.2.21H51.89a.21.21,0,0,1-.21-.21V21l-.15.09a4.78,4.78,0,0,1-1.26.56h0a3.61,3.61,0,0,1-.85.11,2.27,2.27,0,0,1-2.56-2.48v-.07c0-1.78,1.12-2.58,3.64-2.59h1.06v-.78c0-.88-.34-1.21-.92-1.31a4.22,4.22,0,0,0-.53,0,24.68,24.68,0,0,0-2.5.12h-.07c-.14,0-.18,0-.18-.17v-1c0-.09,0-.19.21-.23A12.42,12.42,0,0,1,50.11,13h0c2.15,0,3.25,1,3.25,2.85ZM51,17.77h-.5c-1.49,0-1.79.55-1.79,1.42v.06c0,.88.46,1.06,1.2,1.06a3.06,3.06,0,0,0,.78-.11h0a3.72,3.72,0,0,0,.83-.34l0,0V17.77Z"/></g></g></svg>