<?xml version="1.0" encoding="utf-8"?>
<!-- Generator: Adobe Illustrator 24.0.0, SVG Export Plug-In . SVG Version: 6.00 Build 0)  -->
<svg version="1.1" id="specsavers_x5F_master_x5F_logo_x5F_rgb"
	 xmlns="http://www.w3.org/2000/svg" xmlns:xlink="http://www.w3.org/1999/xlink" x="0px" y="0px" viewBox="0 0 362.78 174.46"
	 style="enable-background:new 0 0 362.78 174.46;" xml:space="preserve">
<style type="text/css">
	.st0{fill:#009552;}
	.st1{fill:#FFFFFF;}
</style>
<g>
	<path class="st0" d="M247.42,29.19c-26.5,0-50.21,8.05-66.04,20.71c-15.84-12.6-39.49-20.6-65.92-20.6
		c-47.67,0-86.31,26.03-86.31,58.13c0,32.09,38.64,58.11,86.31,58.11c26.51,0,50.22-8.06,66.06-20.72
		c15.83,12.6,39.49,20.61,65.9,20.61c47.69,0,86.33-26.02,86.33-58.11C333.75,55.21,295.11,29.19,247.42,29.19z"/>
	<g>
		<path class="st1" d="M63.03,103.58c-8.39,0-11.08-0.65-11.08-9.64V68.55c0-0.39,0.32-0.71,0.72-0.71h4.87
			c0.4,0,0.72,0.32,0.72,0.71v25.39c0,3.71,0.7,4.41,4.1,4.41h9.04c0.4,0,0.72,0.31,0.72,0.71v3.09c0,0.52-0.12,0.63-0.77,0.76
			C69.91,103.24,65.64,103.58,63.03,103.58L63.03,103.58z"/>
		<path class="st1" d="M84.93,103.58c-7.08,0-11.48-4.5-11.48-11.76v-3.91c0-7.25,4.4-11.76,11.48-11.76
			c7.08,0,11.48,4.5,11.48,11.76v3.91C96.41,99.07,92.01,103.58,84.93,103.58L84.93,103.58z M84.93,81.13
			c-3.46,0-5.52,2.53-5.52,6.77v3.91c0,4.24,2.07,6.78,5.52,6.78c3.46,0,5.52-2.54,5.52-6.78v-3.91
			C90.45,83.67,88.38,81.13,84.93,81.13L84.93,81.13z"/>
		<path class="st1" d="M108.2,103.53c-2.53,0-4.55-0.68-5.86-1.95c-1.62-1.59-2.38-4.33-2.38-8.6V77.24c0-0.4,0.34-0.75,0.72-0.75
			h4.52c0.38,0,0.72,0.35,0.72,0.75v15.74c0,2.44,0.19,3.92,1.22,4.83c0.79,0.67,1.72,0.93,3.22,0.93c1.95,0,4.47-1.33,5.68-1.96
			l0.14-0.07v-0.16V77.24c0-0.4,0.34-0.75,0.72-0.75h4.52c0.39,0,0.72,0.35,0.72,0.75v25.24c0,0.39-0.32,0.7-0.72,0.7h-4.52
			c-0.4,0-0.72-0.31-0.72-0.7v-1.11v-0.48l-0.41,0.26C113.43,102.66,111.44,103.53,108.2,103.53L108.2,103.53z"/>
		<path class="st1" d="M131.91,103.19h-4.52c-0.38,0-0.72-0.35-0.72-0.75V77.19c0-0.39,0.32-0.71,0.72-0.71h4.52
			c0.39,0,0.72,0.32,0.72,0.71v25.24C132.63,102.84,132.29,103.19,131.91,103.19L131.91,103.19z M132.06,72.35h-4.76
			c-0.41,0-0.77-0.33-0.77-0.71V67.4c0-0.38,0.36-0.71,0.77-0.71h4.76c0.4,0,0.72,0.31,0.72,0.71v4.25
			C132.78,72.03,132.46,72.35,132.06,72.35L132.06,72.35z"/>
		<path class="st1" d="M146.42,103.58c-2.04,0-6.06-0.25-8.73-0.96c-0.49-0.12-0.74-0.41-0.74-0.86v-2.9c0-0.25,0.23-0.51,0.57-0.51
			h0.2c2.32,0.29,6.73,0.53,8.25,0.53c3.3,0,3.75-1.24,3.75-2.58c0-1.08-0.74-1.73-2.29-2.68l-6.73-4.06c-2.5-1.51-4-3.91-4-6.44
			c0-4.7,2.97-6.98,9.07-6.98c3.87,0,6.04,0.4,8.69,0.96c0.46,0.11,0.67,0.39,0.67,0.86v2.8c0,0.3-0.09,0.66-0.52,0.66h-0.2
			c-1.36-0.2-5.31-0.58-8.11-0.58c-1.9,0-3.66,0.28-3.66,2.29c0,0.9,0.79,1.44,2.09,2.2l6.43,3.86c4.24,2.53,4.59,5,4.59,7.12
			C155.79,100.79,152.2,103.58,146.42,103.58L146.42,103.58z"/>
	</g>
	<g>
		<path class="st1" d="M202.91,103.19h-4.35c-0.37,0-0.69-0.35-0.69-0.75V77.19c0-0.39,0.31-0.71,0.69-0.71h4.35
			c0.38,0,0.69,0.32,0.69,0.71v25.24C203.6,102.84,203.28,103.19,202.91,103.19L202.91,103.19z M203.05,72.35h-4.58
			c-0.39,0-0.74-0.33-0.74-0.71V67.4c0-0.38,0.34-0.71,0.74-0.71h4.58c0.38,0,0.69,0.31,0.69,0.71v4.25
			C203.74,72.03,203.43,72.35,203.05,72.35L203.05,72.35z"/>
		<path class="st1" d="M218.34,103.58c-1.87,0-11.18-0.57-11.18-11.86v-3.57c0-7.51,4.14-12,11.09-12c6.78,0,10.99,4.6,10.99,12v2.7
			c0,0.84-0.35,0.95-0.69,0.95h-15.41h-0.25v0.26v0.14c0,1.92,0.58,6.39,5.92,6.39c3.38,0,6.59-0.28,8.72-0.49l0.12,0
			c0.18,0,0.6,0.04,0.6,0.47v3.18c0,0.69-0.09,0.88-0.78,1C224.52,103.32,222.66,103.58,218.34,103.58L218.34,103.58z M218.24,81.13
			c-3.23,0-5.31,2.43-5.31,6.19v0.2v0.26h0.25h10.02h0.25v-0.26v-0.2C223.46,83.57,221.41,81.13,218.24,81.13L218.24,81.13z"/>
		<path class="st1" d="M237.98,103.19h-4.4c-0.37,0-0.69-0.35-0.69-0.75V67.68c0-0.39,0.31-0.7,0.69-0.7h4.4
			c0.37,0,0.64,0.3,0.64,0.7v34.75C238.62,102.8,238.38,103.19,237.98,103.19L237.98,103.19z"/>
		<path class="st1" d="M251.47,103.58c-1.96,0-5.82-0.25-8.39-0.96c-0.47-0.12-0.71-0.41-0.71-0.86v-2.9c0-0.25,0.22-0.51,0.55-0.51
			h0.19c2.24,0.29,6.47,0.53,7.94,0.53c3.17,0,3.61-1.24,3.61-2.58c0-1.08-0.71-1.73-2.2-2.68l-6.47-4.06
			c-2.41-1.51-3.85-3.91-3.85-6.44c0-4.7,2.85-6.98,8.73-6.98c3.72,0,5.81,0.4,8.35,0.96c0.44,0.11,0.65,0.39,0.65,0.86v2.8
			c0,0.3-0.09,0.66-0.5,0.66h-0.19c-1.31-0.2-5.11-0.58-7.8-0.58c-1.82,0-3.52,0.28-3.52,2.29c0,0.9,0.76,1.44,2.02,2.2l6.19,3.86
			c4.08,2.53,4.41,5,4.41,7.12C260.48,100.79,257.03,103.58,251.47,103.58L251.47,103.58z"/>
		<path class="st1" d="M274.64,103.58c-1.87,0-11.18-0.57-11.18-11.86v-3.57c0-7.51,4.14-12,11.09-12c6.78,0,10.99,4.6,10.99,12v2.7
			c0,0.84-0.35,0.95-0.69,0.95h-15.4h-0.25v0.26v0.14c0,1.92,0.58,6.39,5.92,6.39c3.37,0,6.59-0.28,8.72-0.49l0.12,0
			c0.18,0,0.6,0.04,0.6,0.47v3.18c0,0.69-0.09,0.88-0.78,1C280.82,103.32,278.95,103.58,274.64,103.58L274.64,103.58z M274.54,81.13
			c-3.23,0-5.31,2.43-5.31,6.19v0.2v0.26h0.25h10.02h0.25v-0.26v-0.2C279.76,83.57,277.71,81.13,274.54,81.13L274.54,81.13z"/>
		<path class="st1" d="M310.09,103.19h-4.35c-0.37,0-0.69-0.35-0.69-0.75V86.7c0-4.2-0.35-5.67-4.27-5.67
			c-1.49,0-3.17,0.55-5.46,1.77l-0.14,0.07v0.16v19.4c0,0.4-0.32,0.75-0.69,0.75h-4.34c-0.37,0-0.69-0.35-0.69-0.75V77.19
			c0-0.39,0.31-0.71,0.69-0.71h4.11c0.38,0,0.69,0.32,0.69,0.71v1.01v0.47l0.39-0.25c2.68-1.74,4.44-2.28,7.52-2.28
			c6.96,0,7.92,5.07,7.92,10.55v15.73C310.78,102.84,310.46,103.19,310.09,103.19L310.09,103.19z"/>
		<path class="st1" d="M191.9,103.19h-4.78c-1.14,0-1.96,0-2.65-1.58L173.99,78.1c-0.38-0.9-0.56-1.21-0.82-1.17
			c-0.32,0.04-0.33,0.13-0.33,1.28v24.28c0,0.4-0.27,0.7-0.64,0.7h-4.02c-0.38,0-0.69-0.31-0.69-0.7V69.52
			c0-0.92,0.73-1.67,1.63-1.67h5.11c0.86,0,1.31,0.19,1.85,1.39l11.41,25.72c0.13,0.34,0.34,0.77,0.57,0.67
			c0.19-0.09,0.12-0.64,0.12-1.07V68.51c0-0.39,0.26-0.66,0.64-0.66h4.06c0.38,0,0.64,0.27,0.64,0.66v33.01
			C193.54,102.44,192.8,103.19,191.9,103.19L191.9,103.19z"/>
	</g>
</g>
</svg>
