<svg xmlns="http://www.w3.org/2000/svg" viewBox="0 0 1369 922"><defs><style>.cls-1{fill:#016c42;}</style></defs><title>Asset 5</title><g id="Layer_2" data-name="Layer 2"><g id="Layer_1-2" data-name="Layer 1"><path class="cls-1" d="M684.5,2c92.22,0,181.68,12.16,265.89,36.15,81.31,23.16,154.32,56.31,217,98.53a565.57,565.57,0,0,1,83.29,68,444.69,444.69,0,0,1,62.82,78C1349,339.13,1367,399.15,1367,461s-18,121.87-53.49,178.38a444.69,444.69,0,0,1-62.82,78,565.57,565.57,0,0,1-83.29,68c-62.69,42.22-135.7,75.37-217,98.53C866.18,907.84,776.72,920,684.5,920s-181.68-12.16-265.89-36.15c-81.31-23.16-154.32-56.31-217-98.53a565.57,565.57,0,0,1-83.29-68,444.69,444.69,0,0,1-62.82-78C20,582.87,2,522.85,2,461S20,339.13,55.49,282.62a444.69,444.69,0,0,1,62.82-78,565.57,565.57,0,0,1,83.29-68c62.69-42.22,135.7-75.37,217-98.53C502.82,14.16,592.28,2,684.5,2m0-2C306.46,0,0,206.4,0,461S306.46,922,684.5,922,1369,715.6,1369,461,1062.54,0,684.5,0Z"/></g></g></svg>