<svg xmlns="http://www.w3.org/2000/svg" viewBox="0 0 728 90"><defs><style>.cls-1{fill:#fff;}.cls-2{fill:#016c42;}.cls-3{fill:none;}</style></defs><title>cta-new_1</title><g id="Layer_2" data-name="Layer 2"><g id="layer_1-2" data-name="layer 1"><rect class="cls-1" x="582" y="27" width="134" height="37" rx="18.5"/><path class="cls-2" d="M597.37,40.85v3.08h4.46v1.66h-4.46v4.67h-2V39.06h7.31v1.79Z"/><path class="cls-2" d="M604,39.2a1.27,1.27,0,1,1,1.26,1.27A1.28,1.28,0,0,1,604,39.2Zm2.26,11.06h-2V41.75h2Z"/><path class="cls-2" d="M616.28,44.82v5.44h-2V45.32a1.69,1.69,0,0,0-1.76-1.92,2.79,2.79,0,0,0-2.23,1.09v5.77h-2V41.75h2v1.09a4,4,0,0,1,3-1.25C615.29,41.59,616.28,42.84,616.28,44.82Z"/><path class="cls-2" d="M626.36,38.42V50.26h-2v-.91a3.74,3.74,0,0,1-2.61,1.07c-2.21,0-4-1.52-4-4.41s1.87-4.42,4-4.42a3.62,3.62,0,0,1,2.56,1V38.42Zm-2,9.09v-3a2.77,2.77,0,0,0-2.22-1.18A2.42,2.42,0,0,0,619.8,46a2.43,2.43,0,0,0,2.35,2.69A2.64,2.64,0,0,0,624.39,47.51Z"/><path class="cls-2" d="M632.44,46a4.46,4.46,0,1,1,4.46,4.41A4.25,4.25,0,0,1,632.44,46Zm6.91,0a2.46,2.46,0,1,0-4.9,0,2.46,2.46,0,1,0,4.9,0Z"/><path class="cls-2" d="M650.81,41.75v8.51h-2V49.17a4.1,4.1,0,0,1-3,1.25c-2,0-3-1.25-3-3.23V41.75h2v4.94c0,1.19.6,1.94,1.76,1.94a2.84,2.84,0,0,0,2.23-1.12V41.75Z"/><path class="cls-2" d="M658.76,49.88a3.83,3.83,0,0,1-2.11.54c-1.85,0-2.93-1.09-2.93-3.28V43.25h-1.56v-1.5h1.56V40l2-.47v2.18h3v1.5h-3v3.91a1.3,1.3,0,0,0,1.35,1.47,2.48,2.48,0,0,0,1.42-.45Z"/><path class="cls-2" d="M676.92,44.28v6h-2V44.85c0-.89-.36-1.45-1.27-1.45a2.34,2.34,0,0,0-1.87,1.07v5.79h-2V44.85c0-.89-.35-1.45-1.28-1.45a2.33,2.33,0,0,0-1.85,1.07v5.79h-2V41.75h2v1.06a3.35,3.35,0,0,1,2.59-1.22A2.3,2.3,0,0,1,671.59,43a3.52,3.52,0,0,1,2.8-1.44A2.38,2.38,0,0,1,676.92,44.28Z"/><path class="cls-2" d="M678.4,46a4.46,4.46,0,1,1,4.47,4.41A4.26,4.26,0,0,1,678.4,46Zm6.92,0a2.46,2.46,0,1,0-4.9,0,2.46,2.46,0,1,0,4.9,0Z"/><path class="cls-2" d="M694.79,42l-.27,1.82a3,3,0,0,0-1.43-.35,2.6,2.6,0,0,0-2.25,1.38v5.45h-2V41.75h2V42.9a3,3,0,0,1,2.49-1.31A3,3,0,0,1,694.79,42Z"/><path class="cls-2" d="M703.16,46.65h-6a2.38,2.38,0,0,0,2.54,2.05,5.29,5.29,0,0,0,2.88-.81l.11,1.75a6.25,6.25,0,0,1-3.13.78A4.16,4.16,0,0,1,695.12,46a4.33,4.33,0,0,1,4.42-4.45,3.44,3.44,0,0,1,3.79,3.7A5.07,5.07,0,0,1,703.16,46.65Zm-1.7-1.6a1.73,1.73,0,0,0-1.87-1.84,2.43,2.43,0,0,0-2.4,2.08h4.24A.93.93,0,0,0,701.46,45.05Z"/><rect class="cls-3" width="728" height="90"/></g></g></svg>