<svg xmlns="http://www.w3.org/2000/svg" viewBox="0 0 300 600"><defs><style>.cls-1{fill:#fff;}.cls-2{fill:none;}</style></defs><title>sub-new</title><g id="Layer_2" data-name="Layer 2"><g id="template_2" data-name="template 2"><g id="sub300x2600v2"><path class="cls-1" d="M29.67,496.12v1.69h-10v-1.39l4.78-4.92c1.85-1.9,2.41-2.78,2.41-4a2.21,2.21,0,0,0-2.43-2.2,5.51,5.51,0,0,0-4.12,2.14L20,485.42a6.24,6.24,0,0,1,4.54-1.82c2.53,0,4.33,1.42,4.33,3.84,0,1.62-.88,3-2.7,4.84l-3.75,3.84Z"/><path class="cls-1" d="M31.26,496.73l.28-2a5.93,5.93,0,0,0,4.13,1.57c1.62,0,3.32-.92,3.32-2.95s-1.48-2.76-3.68-2.76a9.81,9.81,0,0,0-3.75.82l.82-7.64h7.71v1.68H33.88l-.54,3.92a10,10,0,0,1,2.61-.32c2.92,0,4.94,1.46,4.94,4.2,0,3.17-2.42,4.73-5,4.73A7.85,7.85,0,0,1,31.26,496.73Z"/><path class="cls-1" d="M42,487.2a3.58,3.58,0,1,1,3.58,3.6A3.46,3.46,0,0,1,42,487.2Zm5.73,0a2.16,2.16,0,1,0-2.15,2.28A2.15,2.15,0,0,0,47.77,487.2Zm6.64-3.4,1.94,0-10.87,14H43.56Zm-3.7,10.6A3.57,3.57,0,1,1,54.29,498,3.46,3.46,0,0,1,50.71,494.4Zm5.72,0a2.15,2.15,0,1,0-2.14,2.29A2.16,2.16,0,0,0,56.43,494.4Z"/><path class="cls-1" d="M65.18,492.48A5.45,5.45,0,1,1,70.62,498,5.26,5.26,0,0,1,65.18,492.48Zm9,0a3.6,3.6,0,1,0-3.59,3.9A3.61,3.61,0,0,0,74.21,492.48Z"/><path class="cls-1" d="M86.75,485.64v1.52h3.16v1.46H86.75v9.19H84.91v-9.19H80.78v9.19H78.92v-9.19H77.08v-1.46h1.84v-1.5a3.34,3.34,0,0,1,3.54-3.7,3.39,3.39,0,0,1,1.79.44L84,484a2.83,2.83,0,0,0-1.47-.38c-1.09,0-1.72.76-1.72,2v1.52h4.13v-1.5a3.34,3.34,0,0,1,3.52-3.7,3.46,3.46,0,0,1,1.8.44l-.3,1.62a2.79,2.79,0,0,0-1.46-.38C87.37,483.64,86.75,484.4,86.75,485.64Z"/><path class="cls-1" d="M107,487.16V497c0,3.5-2.34,4.9-5.09,4.9a7.68,7.68,0,0,1-4-1.12l.2-1.78a6,6,0,0,0,3.84,1.38,2.92,2.92,0,0,0,3.23-3.18v-.74a4.88,4.88,0,0,1-3.29,1.3c-2.6,0-5-1.84-5-5.43s2.42-5.4,4.92-5.4a4.6,4.6,0,0,1,3.37,1.34v-1.14Zm-1.84,7.51v-4.49a3.81,3.81,0,0,0-3.13-1.64c-1.84,0-3.3,1.46-3.3,3.82s1.46,3.83,3.28,3.83A3.84,3.84,0,0,0,105.15,494.67Z"/><path class="cls-1" d="M109.88,483h1.84v14.81h-1.84Z"/><path class="cls-1" d="M123,491.2v6.61h-1.83v-1.27a4.6,4.6,0,0,1-3.43,1.47c-2.28,0-3.86-1.36-3.86-3.41s1.7-3.4,4.1-3.4a10,10,0,0,1,3.19.6v-.56a2.64,2.64,0,0,0-3-2.76,5.37,5.37,0,0,0-3.3,1.14l-.1-1.68a6.74,6.74,0,0,1,3.66-1C121,487,123,488.28,123,491.2ZM121.17,495v-1.82a7.72,7.72,0,0,0-3-.64c-1.6,0-2.5.82-2.5,2a2.08,2.08,0,0,0,2.34,2A4.23,4.23,0,0,0,121.17,495Z"/><path class="cls-1" d="M124.82,496.84,125,495a5.6,5.6,0,0,0,3.8,1.38c1.2,0,2.14-.59,2.14-1.58,0-2.4-6-1.2-6-4.84,0-2,1.74-3,3.82-3a6.47,6.47,0,0,1,3.56,1l-.14,1.72a5.68,5.68,0,0,0-3.4-1.12c-1.1,0-2,.42-2,1.38,0,2.08,6.08,1.1,6.08,4.84,0,2.12-1.88,3.25-4,3.25A6.7,6.7,0,0,1,124.82,496.84Z"/><path class="cls-1" d="M134.3,496.84l.22-1.84a5.6,5.6,0,0,0,3.8,1.38c1.2,0,2.14-.59,2.14-1.58,0-2.4-6-1.2-6-4.84,0-2,1.74-3,3.82-3a6.47,6.47,0,0,1,3.56,1l-.14,1.72a5.68,5.68,0,0,0-3.4-1.12c-1.1,0-2,.42-2,1.38,0,2.08,6.08,1.1,6.08,4.84,0,2.12-1.88,3.25-4,3.25A6.7,6.7,0,0,1,134.3,496.84Z"/><path class="cls-1" d="M153.48,493.18H145.7a3.37,3.37,0,0,0,3.58,3.2,5.49,5.49,0,0,0,3.54-1.16L153,497A6.84,6.84,0,0,1,149.2,498a5.11,5.11,0,0,1-5.4-5.47,5.38,5.38,0,0,1,5.38-5.58,4.19,4.19,0,0,1,4.52,4.5A6.06,6.06,0,0,1,153.48,493.18Zm-1.54-2a2.59,2.59,0,0,0-2.74-2.7,3.57,3.57,0,0,0-3.48,3.22h6.18A4.22,4.22,0,0,0,151.94,491.2Z"/><path class="cls-1" d="M155.26,496.84l.22-1.84a5.6,5.6,0,0,0,3.8,1.38c1.2,0,2.14-.59,2.14-1.58,0-2.4-6-1.2-6-4.84,0-2,1.74-3,3.82-3a6.47,6.47,0,0,1,3.56,1l-.14,1.72a5.68,5.68,0,0,0-3.4-1.12c-1.1,0-2,.42-2,1.38,0,2.08,6.08,1.1,6.08,4.84,0,2.12-1.88,3.25-4,3.25A6.7,6.7,0,0,1,155.26,496.84Z"/><path class="cls-1" d="M23.08,509.64v1.52h3.15l0,1.46H23.08v9.19H21.22v-9.19H19.38v-1.46h1.84v-1.5a3.35,3.35,0,0,1,3.55-3.7,3.38,3.38,0,0,1,1.78.44L26.27,508a2.79,2.79,0,0,0-1.46-.38C23.71,507.64,23.08,508.4,23.08,509.64Z"/><path class="cls-1" d="M26.74,516.48A5.26,5.26,0,0,1,32.19,511a5.53,5.53,0,0,1,0,11.05A5.27,5.27,0,0,1,26.74,516.48Zm9,0a3.6,3.6,0,1,0-3.58,3.9A3.6,3.6,0,0,0,35.77,516.48Z"/><path class="cls-1" d="M46.63,511.38l-.28,1.74a3.19,3.19,0,0,0-1.62-.44,3.53,3.53,0,0,0-3.07,2.12v7H39.82V511.16h1.84v1.74A3.86,3.86,0,0,1,44.91,511,3.37,3.37,0,0,1,46.63,511.38Z"/><path class="cls-1" d="M53.48,520.84,53.7,519a5.6,5.6,0,0,0,3.8,1.38c1.2,0,2.14-.59,2.14-1.58,0-2.4-6-1.2-6-4.84,0-2,1.74-3,3.82-3a6.47,6.47,0,0,1,3.56,1l-.14,1.72a5.68,5.68,0,0,0-3.4-1.12c-1.1,0-2,.42-2,1.38,0,2.08,6.08,1.1,6.08,4.84,0,2.12-1.88,3.25-4,3.25A6.7,6.7,0,0,1,53.48,520.84Z"/><path class="cls-1" d="M70.34,521.27a4.4,4.4,0,0,1-2.56.74c-2.22,0-3.34-1.48-3.34-3.84v-5.55H62.5v-1.46h1.94V509l1.84-.46v2.64h3.88v1.46H66.28v5.59c0,1.21.52,2.13,1.86,2.13a3.22,3.22,0,0,0,1.9-.63Z"/><path class="cls-1" d="M81.6,511.16v10.65H79.76v-1.44A5.14,5.14,0,0,1,76,522c-2.54,0-3.72-1.48-3.72-3.89v-7h1.84v6.6c0,1.57.74,2.58,2.42,2.58a4.14,4.14,0,0,0,3.18-1.66v-7.52Z"/><path class="cls-1" d="M94,507v14.81H92.14v-1.23A4.8,4.8,0,0,1,88.82,522c-2.78,0-5-1.94-5-5.53s2.3-5.52,4.94-5.52a4.64,4.64,0,0,1,3.38,1.36V507Zm-1.84,11.76v-4.5a3.69,3.69,0,0,0-3.1-1.68c-1.92,0-3.36,1.5-3.36,3.9s1.44,3.9,3.34,3.9A3.69,3.69,0,0,0,92.14,518.76Z"/><path class="cls-1" d="M105.86,517.18H98.08a3.37,3.37,0,0,0,3.58,3.2,5.49,5.49,0,0,0,3.54-1.16l.14,1.73a6.84,6.84,0,0,1-3.76,1.06,5.11,5.11,0,0,1-5.4-5.47,5.38,5.38,0,0,1,5.38-5.58,4.19,4.19,0,0,1,4.52,4.5A6.06,6.06,0,0,1,105.86,517.18Zm-1.54-2a2.59,2.59,0,0,0-2.74-2.7,3.57,3.57,0,0,0-3.48,3.22h6.18A4.22,4.22,0,0,0,104.32,515.2Z"/><path class="cls-1" d="M117.62,514.84v7H115.8V515.2a2.26,2.26,0,0,0-2.42-2.56,4,4,0,0,0-3.2,1.66v7.51h-1.84V511.16h1.84v1.48a5,5,0,0,1,3.74-1.68C116.46,511,117.62,512.44,117.62,514.84Z"/><path class="cls-1" d="M127,521.27a4.4,4.4,0,0,1-2.56.74c-2.22,0-3.34-1.48-3.34-3.84v-5.55h-1.94v-1.46h1.94V509l1.84-.46v2.64h3.88v1.46h-3.88v5.59c0,1.21.52,2.13,1.86,2.13a3.22,3.22,0,0,0,1.9-.63Z"/><path class="cls-1" d="M128.3,520.84l.22-1.84a5.6,5.6,0,0,0,3.8,1.38c1.2,0,2.14-.59,2.14-1.58,0-2.4-6-1.2-6-4.84,0-2,1.74-3,3.82-3a6.47,6.47,0,0,1,3.56,1l-.14,1.72a5.68,5.68,0,0,0-3.4-1.12c-1.1,0-2,.42-2,1.38,0,2.08,6.08,1.1,6.08,4.84,0,2.12-1.88,3.25-4,3.25A6.7,6.7,0,0,1,128.3,520.84Z"/><rect class="cls-2" width="300" height="600"/></g></g></g></svg>