<svg xmlns="http://www.w3.org/2000/svg" viewBox="0 0 300 600"><defs><style>.cls-1{fill:#fff;}.cls-2{fill:none;}</style></defs><title>headline300x600</title><g id="Layer_2" data-name="Layer 2"><g id="template_2" data-name="template 2"><g id="headline300x600"><path class="cls-1" d="M35.37,465.34v3.36H20.28v-2.82l6.78-7c2.67-2.76,3.3-3.87,3.3-5.34,0-1.77-1.35-2.66-3.12-2.66-2.19,0-4.23,1.19-6.06,3.23l-.69-4a9.84,9.84,0,0,1,7-2.7c4.23,0,6.87,2.25,6.87,5.82,0,2.43-1.38,4.62-3.75,7l-4.95,5.07Z"/><path class="cls-1" d="M52.23,452.74h4.62v2.82H52.23V468.7H48.51V455.56H45.84l0-2.82h2.7V451c0-4.1,2.43-6,5.79-6a5.34,5.34,0,0,1,2.82.68l-.42,3.25a4.12,4.12,0,0,0-2.16-.55,2.25,2.25,0,0,0-2.31,2.55Z"/><path class="cls-1" d="M57.72,460.72c0-5.19,3.78-8.28,8.37-8.28s8.34,3.09,8.34,8.28S70.68,469,66.09,469,57.72,465.91,57.72,460.72Zm13,0c0-3.18-2.07-5-4.59-5s-4.59,1.86-4.59,5,2,5,4.59,5S70.68,464,70.68,460.72Z"/><path class="cls-1" d="M88.5,453.13,88,456.55a5.41,5.41,0,0,0-2.67-.66,4.91,4.91,0,0,0-4.23,2.58V468.7H77.37v-16h3.72v2.16a5.7,5.7,0,0,1,7.41-1.77Z"/><path class="cls-1" d="M106.38,468.7h-3.84V452.92l-3.78,2.88V452l5.13-4.25h2.49Z"/><path class="cls-1" d="M26.13,486.74h4.62v2.82H26.13V502.7H22.41V489.56H19.74l0-2.82h2.7V485c0-4.1,2.43-6,5.79-6a5.34,5.34,0,0,1,2.82.68l-.42,3.25a4.12,4.12,0,0,0-2.16-.55,2.25,2.25,0,0,0-2.31,2.55Z"/><path class="cls-1" d="M44.52,487.13,44,490.55a5.41,5.41,0,0,0-2.67-.66,4.91,4.91,0,0,0-4.23,2.58V502.7H33.39v-16h3.72v2.16a5.7,5.7,0,0,1,7.41-1.77Z"/><path class="cls-1" d="M45.21,494.72c0-5.19,3.78-8.28,8.37-8.28s8.34,3.09,8.34,8.28S58.17,503,53.58,503,45.21,499.91,45.21,494.72Zm13,0c0-3.18-2.07-5-4.59-5s-4.59,1.86-4.59,5,2,5,4.59,5S58.17,498,58.17,494.72Z"/><path class="cls-1" d="M87.78,491.48V502.7H84.06V492.56c0-1.68-.66-2.73-2.37-2.73a4.38,4.38,0,0,0-3.51,2V502.7H74.46V492.56c0-1.68-.66-2.73-2.4-2.73a4.37,4.37,0,0,0-3.48,2V502.7H64.86v-16h3.72v2a6.33,6.33,0,0,1,4.86-2.28,4.32,4.32,0,0,1,4.35,2.7,6.57,6.57,0,0,1,5.25-2.7C86,486.44,87.78,488.24,87.78,491.48Z"/><path class="cls-1" d="M114.84,499.64v3.06H100v-2.31c3.36-.93,4.2-2.55,4.2-4a4.23,4.23,0,0,0-.21-1.23h-3.6v-2.55h1.92l-.18-.21A8.39,8.39,0,0,1,99.9,487c0-2.84,2.49-5.61,7-5.61a8.79,8.79,0,0,1,7.08,3.33l-1.86,3.3a6.36,6.36,0,0,0-5.28-3.11c-1.89,0-3.12,1.13-3.12,2.63s.78,2.49,1.86,3.87c.3.39.63.78.9,1.17h5.58v2.55h-4.53a2,2,0,0,1,0,.42,5,5,0,0,1-1.71,4.08Z"/><path class="cls-1" d="M132.87,495.14c0,4.74-3.51,7.86-8.25,7.86a7.76,7.76,0,0,1-8-8.1c0-4.89,3.39-9.33,8-13.19h4.95a31.6,31.6,0,0,0-7.35,7.25,7.87,7.87,0,0,1,3.54-.75A6.82,6.82,0,0,1,132.87,495.14Zm-3.87.3a4.09,4.09,0,0,0-4.32-4.17,4.23,4.23,0,1,0-.06,8.46A4.13,4.13,0,0,0,129,495.44Z"/><path class="cls-1" d="M150.57,489.5c0,4.89-3.42,9.33-8,13.2h-4.95a31.82,31.82,0,0,0,7.35-7.26,7.83,7.83,0,0,1-3.51.75,6.83,6.83,0,0,1-7.17-6.93c0-4.74,3.51-7.86,8.25-7.86A7.78,7.78,0,0,1,150.57,489.5Zm-3.81-.51a4.06,4.06,0,0,0-4.26-4.32,4.13,4.13,0,0,0-4.35,4.29,4.31,4.31,0,0,0,8.61,0Z"/><rect class="cls-2" width="300" height="600"/></g></g></g></svg>