<svg xmlns="http://www.w3.org/2000/svg" viewBox="0 0 300 600"><defs><style>.cls-1{fill:#fff;}.cls-2{fill:none;}</style></defs><title>healine300x600v2</title><g id="Layer_2" data-name="Layer 2"><g id="template_2" data-name="template 2"><g id="healine300x600v2"><path class="cls-1" d="M35.49,50.45v3.7H20.21V31h4.22V50.45Z"/><path class="cls-1" d="M53.34,43.26V54.15H49.28V52.37A7.58,7.58,0,0,1,44,54.48c-3.92,0-6.33-2.38-6.33-5.68,0-3.53,2.74-5.68,6.83-5.68a16,16,0,0,1,4.78.8v-.53c0-2.67-2-3.86-4.52-3.86a9.25,9.25,0,0,0-5.54,1.91l-.17-3.56a12.34,12.34,0,0,1,6.44-1.62C50,36.26,53.34,38.37,53.34,43.26ZM49.28,49.4V46.76A14.09,14.09,0,0,0,45,46c-2.11,0-3.37,1.09-3.37,2.67S43,51.31,44.8,51.31A6.19,6.19,0,0,0,49.28,49.4Z"/><path class="cls-1" d="M55.68,52.63l.43-4a9.84,9.84,0,0,0,6.37,2.24c1.72,0,2.91-.72,2.91-1.94,0-3.27-9.44-1.59-9.44-7.46,0-3.53,3-5.25,6.67-5.25a11.11,11.11,0,0,1,6,1.55l-.2,3.66a10.54,10.54,0,0,0-5.74-1.78c-1.45,0-2.64.56-2.64,1.69,0,2.74,9.47,1.41,9.47,7.45,0,3.73-3.27,5.65-7.06,5.65A11.91,11.91,0,0,1,55.68,52.63Z"/><path class="cls-1" d="M84.53,53.36a8,8,0,0,1-4.36,1.12c-3.79,0-6-2.25-6-6.77v-8h-3.2v-3.1h3.2V33.06l4.09-1v4.49h6.11v3.1H78.22v8.06c0,1.78.93,3,2.78,3a5.27,5.27,0,0,0,2.93-.92Z"/><path class="cls-1" d="M113.3,42.93V54.15h-4.09V44c0-2.44-1.29-4-3.63-4A5.76,5.76,0,0,0,101,42.23V54.15H96.9V36.59H101v2.24a8.36,8.36,0,0,1,6.11-2.57C111.26,36.26,113.3,38.83,113.3,42.93Z"/><path class="cls-1" d="M117,31.34A2.61,2.61,0,1,1,119.64,34,2.64,2.64,0,0,1,117,31.34Zm4.65,22.81h-4.09V36.59h4.09Z"/><path class="cls-1" d="M142.54,36.59V52.23c0,6.34-4.22,8.72-9.24,8.72a14.78,14.78,0,0,1-6.73-1.59l.29-3.73a10.91,10.91,0,0,0,6.47,2.08c2.87,0,5.12-1.35,5.12-5v-.82a7.89,7.89,0,0,1-5.22,1.91C129.17,53.85,125,51,125,45s4.19-8.78,8.18-8.78a7.42,7.42,0,0,1,5.25,1.88V36.59Zm-4.09,11.65V42a5.91,5.91,0,0,0-4.59-2.27c-2.67,0-4.69,2.11-4.69,5.31s2,5.31,4.66,5.31A5.86,5.86,0,0,0,138.45,48.24Z"/><path class="cls-1" d="M163.43,42.93V54.15h-4.09V44c0-2.48-1.36-4-3.83-4a6,6,0,0,0-4.62,2.54V54.15H146.8V29.73h4.09v9.1a8.38,8.38,0,0,1,6.17-2.57C161.38,36.26,163.43,38.83,163.43,42.93Z"/><path class="cls-1" d="M179.37,53.36A8,8,0,0,1,175,54.48c-3.79,0-6-2.25-6-6.77v-8h-3.2v-3.1H169V33.06l4.09-1v4.49h6.11v3.1h-6.11v8.06c0,1.78.93,3,2.78,3a5.27,5.27,0,0,0,2.93-.92Z"/><path class="cls-1" d="M34.8,80.26V91.15H30.74V89.37a7.62,7.62,0,0,1-5.28,2.11c-3.93,0-6.34-2.38-6.34-5.68,0-3.53,2.74-5.68,6.83-5.68a16.11,16.11,0,0,1,4.79.8v-.53c0-2.67-2-3.86-4.52-3.86a9.25,9.25,0,0,0-5.55,1.91l-.16-3.56a12.33,12.33,0,0,1,6.43-1.62C31.5,73.26,34.8,75.37,34.8,80.26ZM30.74,86.4V83.76A14.15,14.15,0,0,0,26.41,83c-2.11,0-3.36,1.09-3.36,2.67s1.38,2.64,3.2,2.64A6.2,6.2,0,0,0,30.74,86.4Z"/><path class="cls-1" d="M65.22,82.37c0,6-3.86,9.11-8.38,9.11a7.66,7.66,0,0,1-5.18-1.92v1.59H47.57V66.73h4.09V75.5a7.7,7.7,0,0,1,5.48-2.24C61.56,73.26,65.22,76.4,65.22,82.37Zm-4.12,0c0-3.33-2-5.55-4.89-5.55a5.37,5.37,0,0,0-4.55,2.51v6.31a5.7,5.7,0,0,0,4.59,2.27C59.08,87.91,61.1,85.7,61.1,82.37Z"/><path class="cls-1" d="M68.52,66.73h4.09V91.15H68.52Z"/><path class="cls-1" d="M93.21,73.59V91.15H89.15V88.9A8.48,8.48,0,0,1,83,91.48c-4.19,0-6.2-2.58-6.2-6.67V73.59h4.09v10.2c0,2.44,1.22,4,3.63,4a5.81,5.81,0,0,0,4.59-2.31V73.59Z"/><path class="cls-1" d="M109.67,74l-.56,3.76a5.92,5.92,0,0,0-2.94-.72,5.4,5.4,0,0,0-4.65,2.83V91.15H97.43V73.59h4.09V76a6.27,6.27,0,0,1,8.15-2Z"/><path class="cls-1" d="M116.93,82.86a6.84,6.84,0,0,1,3.34-5.61c1.55-1,2.34-2,2.34-3.13,0-1.62-1.35-2.68-3.27-2.68-2.34,0-4.59,1.39-5.81,4.26L111.32,72c1.12-2.34,4.09-4.33,8.12-4.33,4.69,0,7.53,2.78,7.53,6.18,0,2.47-1.46,4.19-3.67,5.74a4.73,4.73,0,0,0-2.44,3.63v1h-3.93Zm-.56,6.08a2.54,2.54,0,1,1,2.54,2.54A2.56,2.56,0,0,1,116.37,88.94Z"/><rect class="cls-2" width="300" height="600"/></g></g></g></svg>